<?xml version="1.0" encoding="utf-8"?>
<!-- Generator: Adobe Illustrator 27.2.0, SVG Export Plug-In . SVG Version: 6.00 Build 0)  -->
<svg version="1.1" id="Layer_1" xmlns="http://www.w3.org/2000/svg" xmlns:xlink="http://www.w3.org/1999/xlink" x="0px" y="0px"
	 viewBox="0 0 1000 1000" style="enable-background:new 0 0 1000 1000;" xml:space="preserve">
<style type="text/css">
	.st0{fill:none;stroke:#070000;stroke-width:7;stroke-miterlimit:10;}
	.st1{fill:none;stroke:#070000;stroke-width:7;stroke-linecap:round;stroke-miterlimit:10;}
</style>
<g>
	<path class="st0" d="M495.99,33.65c-17.82,0.9-35.63,2.74-53.32,5.41c-78.52,11.88-146.01,71-189.83,133.94
		c-24.72,35.51-44.22,74.55-59.44,115c-28.38,75.41-31.57,156.68,1.38,231.54c28.6,64.97,80.47,117.78,139.83,156.71
		c50.04,32.82,107.25,56.96,167.03,59.74c38.44,1.78,76.81-5.28,113.94-15.42c55.73-15.23,110.33-37.97,155.07-74.52
		c49.15-40.16,84.55-95.86,104.62-156.07c21.42-64.27,25.75-134.73,8.4-200.22c-23.51-88.72-86.79-165.06-167.17-209.38
		C648.61,42.96,572.18,29.78,495.99,33.65z"/>
	<path class="st0" d="M521.53,162.42c0.58-6.04,55.38-20.05,61.44-21.82c22.04-6.43,45.87-12.95,69.05-11.58
		c45.34,2.67,96-6.81,73.34,16.6s-42.67,52.74-38.67,84.74c4,32-64,30.67-69.34,53.34c-5.33,22.67,24,36,50.67,56
		c26.67,20-22.67,61.34,12.02,96.02c4.38,4.38,9.4,8.95,11.71,14.13c-25.78-5.95-45.36-34.96-69.35-46.45
		c-16.8-8.05-35.81-10.6-54.43-10.16c-15.62,0.37-31.71,2.7-46.56-2.18c-15.49-5.09-27.37-17.27-40.24-27.28
		c-29.69-23.09-67.43-35.62-105.03-34.87c-24.7,0.49-49.3,6.49-73.91,4.19c-7.06-0.66-15.35-3.11-17.33-9.91
		c-1.04-3.57,0.05-7.41,1.57-10.8c9.56-21.42,34-31.63,49.21-49.49c1.87-2.2,3.7-5.12,2.61-7.8c-1.23-3.02-5.21-3.55-8.46-3.56
		c-12.84-0.05-25.67,0.84-38.38,2.67c-3.41,0.49-7.34,0.89-9.87-1.45c-3.05-2.83-2.16-7.79-0.89-11.75
		c7.64-23.9,22.94-48.21,47.27-54.32c10.23-2.57,20.96-1.61,31.48-0.95c35.78,2.24,76.1-1.04,100.03-27.73
		c6.23-6.94,10.97-15.14,17.53-21.77c6.55-6.63,15.76-11.72,24.92-10C516.75,129.01,523,147.36,521.53,162.42z"/>
	<path class="st1" d="M746.7,405.03c4.99-8.63,10.9-17.96,19.92-22.82c2.64-1.42,5.6-2.42,8.59-2.2
		c24.18,1.84,19.42,58.56-20.51,25.02"/>
	<path class="st0" d="M800.73,617.69c6.03-18.02-43.37-43.32-78.04-48.65c-34.67-5.33-37.33-34.67,0-48
		c37.15-13.27,31.44-60.05,68.49-68.53c47.84-10.94,55.76,66.6,58.42,96.66"/>
	<path class="st0" d="M505.24,457.04c0,0,61.46-1.33,34.79,38.67c-26.67,40-34.91,33.33-34.79,80c0.12,46.67-7.88,80-46.55,73.34
		s-92-55.6-81.34-114.47s-110.67,2.46-112-60.2c-1.33-62.67,60-108.8,98.67-89.73c23.33,11.5,44.15-1.51,66.79-6.74
		c29.01-6.7,30.76,21.89,38.09,44.13C474.46,438.89,485.26,457.8,505.24,457.04z"/>
	<path class="st1" d="M246.77,181.99c0,0-44.09-68.97-62.76-72.97"/>
	<path class="st1" d="M279.52,93.02c0,0-116.84,25.33-163.51,237.34s70.67,357.35,214.67,434.68s391.81,10.67,459.25-65.34"/>
	<path class="st1" d="M712.03,717.05c0,0,32,32,34.67,53.34"/>
	<path class="st0" d="M829.37,830.38c-92.5,11.96-185.17,25.56-276.55,44.34c-34.04,6.99-106.17,11.48-109.69,55
		c-1.01,12.53,0.05,27.51,10.75,34.11c7.67,4.73,17.49,3.22,26.35,1.53c79.03-15.11,157.65-32.35,235.75-51.67
		c38.98-9.64,78.29-18.98,116.75-30.54c20.58-6.19,15.32-12.11,7.52-29.06C839.31,852.04,831.22,830.38,829.37,830.38z"/>
	<line class="st0" x1="582.32" y1="728.59" x2="618.64" y2="862.09"/>
	<line class="st0" x1="651.9" y1="856.3" x2="608.4" y2="722.47"/>
</g>
</svg>
