<?xml version="1.0" encoding="utf-8"?>
<!-- Generator: Adobe Illustrator 27.2.0, SVG Export Plug-In . SVG Version: 6.00 Build 0)  -->
<svg version="1.1" id="Layer_1" xmlns="http://www.w3.org/2000/svg" xmlns:xlink="http://www.w3.org/1999/xlink" x="0px" y="0px"
	 viewBox="0 0 1000 1000" style="enable-background:new 0 0 1000 1000;" xml:space="preserve">
<style type="text/css">
	.st0{fill:none;stroke:#000000;stroke-width:7;stroke-linecap:round;stroke-miterlimit:10;}
	.st1{fill:none;stroke:#000000;stroke-width:7;stroke-miterlimit:10;}
	.st2{fill:none;stroke:#F0AB16;stroke-width:7;stroke-linecap:round;stroke-miterlimit:10;}
</style>
<g>
	<path class="st0" d="M261.06,706.22l19-161.52c0,0-153.92-60.81-95.01-304.04S471.99,10.73,601.2,33.53
		c78.94,13.93,147.58,74.83,189.08,140.94c55.48,88.39,44.11,197.65,5.78,290.26c-38,91.82-102.21,155.56-196.76,188.29
		c0,0-51.31-20.9-49.41,100.71c0,0-15.2,26.6-68.41,11.4s-224.23-96.91-256.54-39.91c-32.3,57.01,243.23,100.71,315.44,87.41"/>
	<path class="st1" d="M519.49,815.04c0,0,24.7,35.6-32.3,43.2c-57.01,7.6-237.53-45.61-254.63-53.21
		c-17.1-7.6-12.36-38.01,18.52-39.91"/>
	<path class="st1" d="M232.55,805.04c0,0-28.5,30.4,0,45.61s195.73,72.21,237.53,60.81c41.81-11.4,33.11-56.69,33.11-56.69"/>
	<path class="st1" d="M430.18,912.95c0,0-0.67,66.91-56.39,65.01s-153.85-54.23-113.34-115.48"/>
	<path class="st2" d="M430.18,746.95c0,0,35.42-181.35,73.77-200.35c39.49-19.57,152.48-49.6,149.81-107.22
		c-0.86-18.6-20.01-32.95-38.62-32.39c-18.62,0.55-35.31,13.14-45.14,28.96c-1.27,2.04-2.48,4.3-2.32,6.69s2.29,4.8,4.65,4.36
		c1.23-0.23,2.22-1.14,3.08-2.05c19.9-21.09,26.82-81.24-10.3-88.38c-49.41-9.5-78.89,30.78-65.1,61.94s49.9-65.75-20.41-86.65
		c-70.3-20.9-93.11,43.68-77.92,68.4c10.89,17.71,38.28-10.59,44.08-19.73c4.67-7.37,7.14-16.59,4.65-24.95
		c-3.22-10.82-13.72-17.75-24.09-22.21c-19.53-8.4-41.38-11.35-62.44-8.42c-13.3,1.85-27,6.48-35.57,16.81
		c-12.28,14.79-10.49,37.18-2.2,54.52c16.34,34.19,39.32,52.97,44.94,92.04c4.8,33.34,3.34,67.68,0.62,101.14
		c-3.57,43.84-10.14,87.65-19.36,130.67"/>
</g>
</svg>
