<?xml version="1.0" encoding="utf-8"?>
<!-- Generator: Adobe Illustrator 27.2.0, SVG Export Plug-In . SVG Version: 6.00 Build 0)  -->
<svg version="1.1" id="Layer_1" xmlns="http://www.w3.org/2000/svg" xmlns:xlink="http://www.w3.org/1999/xlink" x="0px" y="0px"
	 viewBox="0 0 1000 1000" style="enable-background:new 0 0 1000 1000;" xml:space="preserve">
<style type="text/css">
	.st0{fill:none;stroke:#000000;stroke-width:7;stroke-linecap:round;stroke-miterlimit:10;}
</style>
<g>
	<path class="st0" d="M397.96,197.14c-81.78,2.86-166.34,26.24-235.27,64.31C114.19,288.24,71.2,325.7,43.7,374.28
		C-35.1,513.45,88.32,632.52,221.3,659.15c15.7,3.14,31.63,4.97,47.61,5.81c8.42,0.44,27.35-3.89,34.12,2.06
		c7.7,6.76,1.97,37.11,0.75,47.08c-4.06,33.24-15.64,70.99-46.27,89.06c63.24-37.3,137.37-81.89,180.31-142.65
		c1.19-1.68,2.41-3.43,4.19-4.47c1.43-0.83,3.09-1.12,4.72-1.39c104.44-17.64,256.59-60.45,272.44-185.59
		c0.32-2.54,0.78-5.2,0.78-7.76C731.02,314,602.6,216.19,467.6,199.93C444.91,197.2,421.55,196.32,397.96,197.14z"/>
	<path class="st0" d="M768.43,350.66c0,0,48.57,144.2-47.81,228.73c-96.38,84.53-170.97,103.18-183.4,99.45
		c4.23,1.27,10.07,8.54,13.63,11.2c12.42,9.27,25.86,17.23,39.87,23.84c42.55,20.07,88.19,24.13,134.22,16.62
		c26.1-4.25,50.93-3.93,76.24,4.35c21.68,7.09,41.83,18.11,63.51,25.24c30.76,10.12,62.95,12.63,95.15,10.36
		c7.08-0.5,14.14-1.22,21.18-2.11c0,0-115.6-80.8-105.67-98.2c12.59-22.06,43.49-37.57,60.29-56.97
		C1040.41,492.18,876.82,375.45,768.43,350.66z"/>
</g>
</svg>
