<?xml version="1.0" encoding="utf-8"?>
<!-- Generator: Adobe Illustrator 27.2.0, SVG Export Plug-In . SVG Version: 6.00 Build 0)  -->
<svg version="1.1" id="Layer_1" xmlns="http://www.w3.org/2000/svg" xmlns:xlink="http://www.w3.org/1999/xlink" x="0px" y="0px"
	 viewBox="0 0 1000 1000" style="enable-background:new 0 0 1000 1000;" xml:space="preserve">
<style type="text/css">
	.st0{fill-rule:evenodd;clip-rule:evenodd;fill:#0D0E16;}
	.st1{fill:#0D0E16;}
</style>
<g>
	<path class="st0" d="M449.49,669.2c-0.09-1.01-0.87-1.87-1.86-2.23c-1.04-0.38-2.15-0.72-3.25-0.78
		c-7.86-0.38-15.76-0.37-23.57-1.18c-3.14-0.33-6.73,0.38-9.94-2.06c10.15-4.05,18.54-10.55,27.87-15.38
		c0.98-0.51,2.8-0.77,2.18-2.53c-0.6-1.72-2.61-1.99-3.78-1.54c-4.35,1.67-8.94,2.48-13.29,4.04c-8.55,3.05-15.94,8.28-23.4,13.29
		c-2.5,1.68-5-0.02-7.51,0.79c-1.12,0.36-1.15-2.21-1.69-3.44c-2.08-4.79-6.17-7.6-11.31-7.11c-3.23,0.31-6.35,1.77-7.59,4.93
		c-1.77,4.5,1.15,10.32,5.78,12.38c1.5,0.67,1.86,0.98,1.21,2.97c-0.85,2.6-3,5.32-1.15,8.46c1.81,3.07,8.23,5.45,11.8,4.21
		c3.91-1.35,7.07-6.32,6.24-10.75c-0.54-2.88,0.09-4.34,2.97-4.76c-0.31-1.41-1.68-2.55,1.67-2.66c10.28-0.33,20.4,1.48,30.6,1.63
		c3.67,0.05,7.21,0.52,10.79,0.93c0.03,1.75-2.74,2.01-1.72,3.97c0.07,0.15,0.11,0.3,0.12,0.46c2.64,0.43,4.73-1.1,6.99-1.97
		C448.48,670.56,449.57,670.22,449.49,669.2z M376.44,662.93c-1.62-2.69-1.63-4.95-0.13-6.64c0.02-0.07,0.05-0.14,0.1-0.2
		c1.32-1.58,3.21-2.36,5.14-2.47c0.97-0.16,1.96-0.15,2.94,0.14c0.69,0.2,1.4,0.64,2.07,1.16c0.64,0.41,1.2,0.92,1.66,1.51
		c0.06,0.06,0.13,0.13,0.19,0.19c0.38,0.4,0.62,0.98,0.8,1.61c0.02,0.07,0.04,0.15,0.07,0.22c0.24,0.42,0.35,0.92,0.38,1.43
		c0.11,0.49,0.14,0.98,0.06,1.5c-0.02,0.12-0.07,0.2-0.15,0.27c0.05,1.11-0.31,2.15-1.57,3.01
		C381.97,668.78,379.64,668.25,376.44,662.93z M393.09,672.32c1.43,2.37-0.13,6.61-3.06,8.29c-3.02,1.73-8.36,0.61-9.92-2.09
		c-1.33-2.3,0.08-6.46,2.72-8.05C386.12,668.51,391.35,669.46,393.09,672.32z M401.04,664.42c6.46-9.26,25.33-17.76,34.34-17.34
		C423.93,653.32,414.45,661.61,401.04,664.42z"/>
	<path class="st0" d="M403.5,670.89c0.74-0.5,1.34-0.72,2.38-0.35c10.18,3.56,20.46,4.17,30.77,0.5c1.79-0.64,2.9,0.04,3.91,1.34
		c0.07,0.15,0.12,0.31,0.13,0.47c-4.1,3.45-9.25,2.25-13.83,2.52c-7.64,0.45-15.25-1.09-22.53-3.72
		C404.01,671.53,403.78,671.15,403.5,670.89z"/>
</g>
<g>
	<path class="st0" d="M913.85,634.26c0.26-3.54-0.2-7.63-3.68-10.56c-3.17-2.68-7-3.14-10.76-3.87c-2.7,0.06-5.48,0.03-8.12-0.44
		c-7.5,0.13-14.96-0.7-22.42-1.5c-0.16-0.02-0.27-0.08-0.37-0.16c-1.49,0-2.99,0.01-4.52-0.01c-2.13-0.02-4.26-0.5-6.38-0.63
		c-1.47,0.62-2.71,1.68-2.63,3.23c0.29,5.85-1.01,11.66-0.06,17.52c1.94-3.88,1.04-8.17,1.87-12.2c0.64-3.13,1.82-5.04,5.37-5
		c5.07,0.06,10.12,0.41,15.21,0.33c6.94-0.12,14.19-0.42,20.71,1.45c3.27,0.94,8.99-0.01,10.34,5.39c0.88,3.52,2.38,7.22,2,10.66
		c-1.38,12.36-3.33,24.66-5.3,36.95c-0.87,5.46-4.99,8.06-10.46,7.49c-9.77-1.03-19.34-3.48-29.2-3.96
		c-3.03-0.14-6.32-0.98-8.93-2.47c-4.76-2.72-4.37-7.8-4.32-12.46c0.07-7.82,1.73-15.52,2.04-23.35c-1.9,8.95-3.63,17.92-3.95,27.08
		c-0.27,7.88,2.43,11.49,10.18,12.72c11.96,1.89,23.98,3.44,35.96,5.17c4.01,0.58,6.58-1.88,8.41-4.65c1.73-2.62,2.92-5.8,3.55-8.9
		C910.93,659.6,912.91,646.97,913.85,634.26z"/>
	<path class="st0" d="M902.65,632.21c-0.21-2.86-1.15-4.92-4.39-5.31c-3.56-0.43-7.11-1.04-10.66-1.56
		c-7.06-1.47-14.12-1.37-21.31-0.92c-4.72,0.29-3.7,3.4-3.77,5.81c-0.02,0.66,0.02,1.29,0.16,1.83c2.21-0.13,4.47,0.38,6.64,0.63
		c1.46,0.17,2.92,0.38,4.38,0.6c8.77,0.36,17.39,2.85,26.31,1.68C902.22,634.67,902.8,634.26,902.65,632.21z"/>
	<path class="st0" d="M873.27,642.01c0.01-0.14,0.02-0.28,0.04-0.43c0.21-1.18,0.05-2.59-1.25-2.83c-2.5-0.47-5.64-1.63-7.46,0.01
		c-2.15,1.93-1.45,5.35-1.23,8.2c0,0,0,0,0,0c1.32-0.01,3.24,0.44,5.18,0.72c0.48,0.03,0.97,0.09,1.46,0.17
		c0.75,0.06,1.49,0.07,2.16-0.01c0.34-1.84,0.5-3.7,0.94-5.52C873.16,642.19,873.21,642.09,873.27,642.01z M869.59,645.32
		c-0.3,0.09-0.63,0.13-0.96,0.15c-0.2,0.02-0.41,0.02-0.63-0.01c-0.71-0.04-1.42-0.18-2.03-0.36c-0.33-0.1-0.46-0.46-0.41-0.78
		c-0.62-0.93-0.5-2.42,0.04-3.33c0.42-0.72,1.11-1.02,1.93-1.06c0.77-0.03,1.86,0.08,2.57,0.43c1.09,0.54,1.01,1.32,0.69,2.12
		C870.98,643.64,870.91,644.92,869.59,645.32z"/>
	<path class="st0" d="M887.43,643.28c0.01-0.14,0.01-0.28,0.04-0.43c0.21-1.18,0.05-2.59-1.25-2.83c-2.49-0.47-5.64-1.63-7.45,0.01
		c-2.15,1.93-1.45,5.35-1.23,8.2c0,0,0,0,0,0c1.32-0.01,3.24,0.44,5.18,0.72c0.48,0.03,0.97,0.09,1.47,0.17
		c0.75,0.06,1.49,0.07,2.16-0.01c0.34-1.84,0.5-3.7,0.94-5.52C887.31,643.46,887.36,643.37,887.43,643.28z M883.74,646.59
		c-0.3,0.09-0.63,0.13-0.96,0.15c-0.2,0.02-0.41,0.02-0.63-0.01c-0.71-0.04-1.43-0.18-2.03-0.36c-0.34-0.1-0.46-0.45-0.4-0.78
		c-0.62-0.93-0.5-2.42,0.03-3.33c0.43-0.72,1.11-1.02,1.93-1.06c0.78-0.03,1.87,0.08,2.57,0.43c1.09,0.54,1.01,1.32,0.69,2.12
		C885.13,644.91,885.06,646.19,883.74,646.59z"/>
	<path class="st0" d="M900.96,644.59c0.02-0.15,0.02-0.29,0.04-0.43c0.21-1.18,0.05-2.59-1.25-2.83c-2.49-0.47-5.64-1.63-7.45,0.01
		c-2.15,1.93-1.45,5.35-1.23,8.2c0,0,0,0,0,0c1.32-0.02,3.25,0.44,5.18,0.72c0.48,0.03,0.97,0.09,1.46,0.17
		c0.76,0.06,1.49,0.07,2.16-0.01c0.34-1.84,0.5-3.7,0.94-5.52C900.84,644.76,900.9,644.67,900.96,644.59z M897.28,647.89
		c-0.3,0.09-0.63,0.13-0.96,0.15c-0.2,0.02-0.42,0.02-0.63-0.01c-0.71-0.04-1.43-0.18-2.04-0.36c-0.33-0.1-0.46-0.46-0.4-0.78
		c-0.62-0.93-0.5-2.43,0.03-3.33c0.43-0.72,1.11-1.02,1.93-1.06c0.78-0.03,1.87,0.08,2.57,0.43c1.09,0.54,1.01,1.32,0.69,2.13
		C898.66,646.21,898.6,647.49,897.28,647.89z"/>
	<path class="st0" d="M871.62,655.24c0.01-0.14,0.01-0.28,0.04-0.43c0.21-1.18,0.05-2.59-1.25-2.83c-2.49-0.47-5.63-1.63-7.45,0.01
		c-2.15,1.93-1.45,5.35-1.23,8.2c0,0,0,0,0,0c1.32-0.02,3.25,0.44,5.18,0.72c0.49,0.03,0.97,0.09,1.46,0.17
		c0.75,0.06,1.49,0.07,2.16-0.01c0.35-1.84,0.5-3.7,0.94-5.52C871.5,655.42,871.55,655.33,871.62,655.24z M867.93,658.55
		c-0.3,0.09-0.63,0.13-0.96,0.15c-0.2,0.02-0.42,0.02-0.63-0.01c-0.71-0.04-1.42-0.18-2.03-0.36c-0.34-0.1-0.46-0.46-0.41-0.78
		c-0.62-0.93-0.5-2.43,0.04-3.33c0.43-0.72,1.1-1.02,1.93-1.06c0.78-0.03,1.87,0.08,2.57,0.43c1.1,0.54,1.01,1.32,0.69,2.12
		C869.32,656.87,869.25,658.15,867.93,658.55z"/>
	<path class="st0" d="M885.77,656.52c0.01-0.14,0.02-0.28,0.04-0.43c0.21-1.18,0.05-2.59-1.25-2.83c-2.49-0.47-5.64-1.63-7.46,0.01
		c-2.14,1.93-1.45,5.35-1.23,8.19h0c1.31-0.01,3.24,0.44,5.18,0.72c0.49,0.03,0.97,0.09,1.46,0.17c0.76,0.06,1.49,0.07,2.16-0.01
		c0.34-1.84,0.5-3.7,0.94-5.52C885.65,656.69,885.7,656.6,885.77,656.52z M882.08,659.82c-0.3,0.09-0.62,0.13-0.96,0.15
		c-0.2,0.02-0.42,0.02-0.63-0.01c-0.71-0.04-1.43-0.18-2.03-0.37c-0.34-0.1-0.46-0.46-0.41-0.78c-0.62-0.93-0.5-2.42,0.04-3.33
		c0.43-0.72,1.11-1.02,1.93-1.06c0.78-0.03,1.87,0.08,2.57,0.43c1.09,0.54,1.01,1.32,0.69,2.13
		C883.47,658.14,883.4,659.42,882.08,659.82z"/>
	<path class="st0" d="M899.3,657.82c0.01-0.14,0.02-0.28,0.04-0.43c0.21-1.18,0.05-2.59-1.25-2.83c-2.49-0.47-5.64-1.63-7.46,0.01
		c-2.15,1.93-1.45,5.35-1.22,8.2c0,0,0,0,0,0c1.32-0.01,3.24,0.44,5.18,0.72c0.48,0.03,0.97,0.09,1.46,0.17
		c0.75,0.06,1.49,0.07,2.16-0.01c0.34-1.84,0.5-3.7,0.94-5.52C899.18,657.99,899.24,657.9,899.3,657.82z M895.62,661.13
		c-0.3,0.09-0.62,0.13-0.96,0.15c-0.21,0.02-0.42,0.02-0.63-0.01c-0.71-0.04-1.42-0.18-2.03-0.36c-0.34-0.11-0.46-0.46-0.41-0.78
		c-0.62-0.93-0.5-2.42,0.04-3.33c0.42-0.72,1.1-1.02,1.93-1.05c0.78-0.03,1.87,0.08,2.57,0.43c1.09,0.54,1.01,1.32,0.69,2.12
		C897,659.45,896.93,660.72,895.62,661.13z"/>
	<path class="st0" d="M869.49,667.49c0.01-0.14,0.02-0.28,0.04-0.43c0.21-1.18,0.05-2.58-1.25-2.83c-2.49-0.47-5.64-1.63-7.45,0.01
		c-2.15,1.93-1.45,5.35-1.23,8.2c0,0,0,0,0,0c1.32-0.02,3.24,0.44,5.18,0.72c0.48,0.03,0.97,0.09,1.46,0.17
		c0.75,0.06,1.49,0.07,2.16-0.01c0.35-1.84,0.5-3.7,0.94-5.52C869.37,667.66,869.42,667.57,869.49,667.49z M865.8,670.8
		c-0.3,0.09-0.62,0.13-0.96,0.15c-0.2,0.02-0.42,0.02-0.63-0.01c-0.71-0.04-1.43-0.18-2.04-0.37c-0.34-0.1-0.46-0.45-0.41-0.78
		c-0.62-0.93-0.5-2.42,0.04-3.33c0.43-0.72,1.1-1.02,1.93-1.06c0.78-0.03,1.87,0.08,2.57,0.43c1.1,0.54,1.01,1.32,0.69,2.12
		C867.19,669.12,867.12,670.39,865.8,670.8z"/>
	<path class="st0" d="M883.64,668.76c0.01-0.14,0.02-0.28,0.04-0.43c0.21-1.18,0.05-2.59-1.25-2.83c-2.5-0.47-5.64-1.63-7.46,0.01
		c-2.15,1.93-1.45,5.35-1.22,8.2c0,0,0,0,0,0c1.32-0.01,3.24,0.44,5.18,0.72c0.48,0.03,0.97,0.09,1.46,0.17
		c0.75,0.06,1.49,0.07,2.16-0.01c0.34-1.84,0.5-3.7,0.94-5.52C883.52,668.93,883.58,668.84,883.64,668.76z M879.96,672.07
		c-0.3,0.09-0.63,0.13-0.96,0.15c-0.2,0.02-0.41,0.02-0.63-0.01c-0.71-0.04-1.43-0.17-2.04-0.36c-0.34-0.1-0.46-0.46-0.41-0.78
		c-0.62-0.93-0.5-2.43,0.03-3.33c0.43-0.72,1.11-1.02,1.93-1.06c0.78-0.04,1.87,0.08,2.57,0.43c1.09,0.54,1.01,1.32,0.69,2.12
		C881.34,670.39,881.27,671.67,879.96,672.07z"/>
	<path class="st0" d="M897.17,670.06c0.01-0.15,0.02-0.28,0.04-0.43c0.21-1.18,0.05-2.59-1.25-2.83c-2.49-0.47-5.64-1.63-7.45,0.01
		c-2.15,1.93-1.45,5.35-1.23,8.2c0,0,0,0,0,0c1.32-0.02,3.24,0.44,5.18,0.72c0.48,0.03,0.97,0.09,1.46,0.17
		c0.76,0.06,1.49,0.07,2.16-0.01c0.34-1.84,0.5-3.7,0.94-5.52C897.06,670.23,897.11,670.14,897.17,670.06z M893.49,673.37
		c-0.3,0.09-0.63,0.13-0.96,0.15c-0.2,0.01-0.42,0.01-0.63-0.01c-0.71-0.04-1.42-0.18-2.03-0.37c-0.33-0.1-0.46-0.46-0.4-0.78
		c-0.62-0.93-0.5-2.43,0.03-3.33c0.43-0.72,1.11-1.02,1.93-1.06c0.78-0.03,1.87,0.08,2.57,0.43c1.09,0.54,1.01,1.32,0.69,2.12
		C894.87,671.69,894.81,672.97,893.49,673.37z"/>
</g>
<g>
	<path class="st1" d="M117.46,86.71c0-0.02,0-0.05-0.01-0.07c-1.74-5.18-2.69-10.98-4.08-15.98c-1.95-7.01-4.11-13.98-5.93-21.04
		c-2.83-10.96-1.91-15.2-13.74-17.56C78.83,28.64,75.82,45.7,71.46,56.13c-5.64,13.51-11.92,26.67-17.43,40.32
		c-1.03,2.57-7.3,11.26-2.51,11.26c6.21,0.01,12.68,3.29,18.17-0.01c2.8-1.68,5.11-3.88,6.77-6.51c0.87-3.2,1.91-6.34,3.15-9.44
		c0.15-0.38,0.38-0.65,0.65-0.83c1.67-2.91,4.5-2.71,9.15-2.26c7.05,0.68,6.09,6.27,7.17,12.16c0.25,1.34,0.19,8.27,1.68,11.57
		c1.12,0.31,2.27,0.49,3.4,0.72c0.66-0.06,1.3-0.05,2.01,0.12c4.76-0.7,10.84,1.08,14.28-2.75c2.31-2.57,3.58-5.51,3.92-8.55
		C120.34,96.87,118.43,91.93,117.46,86.71z M112,109.62c-4.02-0.39-10.48,1.34-11.6-3.82c-1.01-4.67-1.84-9.67-2.99-14.24
		c-1.24-4.91-7.64-4.23-11.47-4.79c-3.6-0.52-11.6-3.96-14.1,0.27c-2.33,3.93-4.4,9.52-5.73,13.9c-1.39,4.56-2.93,5.24-7.01,4.8
		c-0.12,0.11-0.29,0.17-0.49,0.15c-0.15-0.02-0.31-0.03-0.46-0.05c-0.16-0.01-0.32-0.03-0.48-0.04c-1.44-0.1-3.12-0.19-3.96-1.35
		c-1.02-1.42,0.7-3.39,1.56-4.63c0.26-0.9,0.58-1.78,0.83-2.52c4.17-12.26,9.77-24.77,15.11-36.58c1.63-3.61,3.66-7.02,5.59-10.46
		c0.23-0.72,0.53-1.42,0.87-2.11c0.35-1.09,0.72-2.17,1.19-3.2c0.87-1.92,1.97-3.71,2.55-5.75c0.07-0.23,0.23-0.35,0.42-0.42
		c0.45-0.77,1.11-1.25,2.15-1.23c0.49-0.25,1.12-0.35,1.97-0.22c2.68,0.42,6.51,0.52,8.52,2.5c0.8,0.79,1.14,2.32,1.57,3.3
		c0.64,1.49,1.11,2.87,1.33,4.42c1.53,3.95,2.24,8.62,3.31,13.1c2.77,11.59,6.78,22.66,9.26,34.22
		C110.44,97.33,116.38,110.04,112,109.62z"/>
	<path class="st0" d="M93.93,75.12c-4.88,1.01-9.42-1.24-14.13-2.03c-3.35-0.56,3.08-12.52,3.79-14.27
		c1.02-2.49,4.72-4.32,5.77-0.78C91.03,63.67,92.36,69.46,93.93,75.12C88.91,76.16,92.44,69.76,93.93,75.12z"/>
</g>
<g>
	<path class="st0" d="M502.36,762.13c1.16,0.45,4.49,4.83,5.01,6.04c1.71,3.99,5.44,6.54,7.44,10.34c0.57,1.09,1.54,1.07,2.48,0.54
		c7.76-4.45,15.61-8.74,23.62-12.74c1.64-0.82,2.66-1.1,3.87,0.61c2.48,3.55,5.14,6.97,7.73,10.45c1.1,1.47,0.07,2.22-1.06,2.75
		c-5.02,2.37-10.01,4.79-15.1,6.98c-4.78,2.05-9.34,4.46-13.61,7.39c-2.19,1.5-2.24,5.07-0.66,7.16c1.29,1.71,3.33,3.08,3.15,5.64
		l0.08-0.07c-0.6-0.37-1.44-0.61-1.76-1.15c-2.17-3.69-5.05-6.71-8.28-9.48c-2.85-2.45-6.68-3.39-9.79-3.45
		c-2.76-0.05-5.56,0.08-8.34-0.46l0.07,0.1c0.12-0.61,0.29-1.04,1.06-1.19c3.71-0.71,4.08-2.15,2.06-5.6
		c-0.88-1.51-2.71-2.77-2.15-4.96l-0.08,0.06c0.92,0.28,1.83,0.52,2.22,1.59c1.19,3.31,3.35,3.51,6.14,1.95
		c2.53-1.42,5.13-2.73,8.04-4.26c-1.53-0.76-2.1-2.22-2.89-3.46c-2.34-3.63-5.59-7.71-9.35-13.94L502.36,762.13z M542.35,768.93
		c-1.74-0.16-3.13,0.26-4.41,0.92c-2.95,1.54-5.77,3.38-8.8,4.74c-6.93,3.13-13.37,7.16-20.04,10.77c-0.75,0.41-1.74,0.44-1.42,1.62
		c0.24,0.89,1.16,0.72,1.82,0.86c3.31,0.7,5.77,2.21,8.41,4.64c0.78,0.72,2.7-0.59,3.66-0.82c4.95-1.19,9.11-4.25,13.83-5.91
		c4.69-1.64,8.72-4.75,13.57-5.94c1.84-0.45,2.01-1.47,0.97-2.49c-1.01-0.98-1.29-2.26-2.11-3.27
		C546.21,772.03,544.64,769.95,542.35,768.93z"/>
	<path class="st0" d="M524.26,805.47c0.63-0.18,0.23-0.92,0.56-0.29c0.85,1.6,3.16,3,3.76,9.52c0.57,6.15,0.81,12.5-2.67,18.11
		c-4.04,6.51-9.56,11.08-17.23,12.78c-3.56,0.79-7.08,1.1-10.72,0.61c-0.38-0.05-0.72-0.57-2.12-0.84
		c-7.73-3.67-9.24-4.33-15.72-11.05c-3.77-7.55-4.63-15.55-2.28-23.72c2.41-8.4,8.87-13.74,16.17-17.78
		c1.1-0.61,5.89-1.85,7.09-1.41l-0.84,1.64c-3.44,0.06-4.8,1.12-5.87,1.7c-4.3,2.36-8.63,4.83-11.15,9.31
		c-2.33,4.16-3.15,8.77-3.93,13.44c-1.27,7.71,0.23,14.3,6.3,19.59c4.23,3.69,8.19,7.49,14.42,7.77c8.04,0.35,14.85-1.79,20.47-7.7
		c5.3-5.56,7.72-11.79,6.63-19.64c-0.49-3.47-1.05-7.65-3.82-11.97L524.26,805.47z"/>
	<path class="st0" d="M500.45,784.98c-3.29-1.56-7.13-8.83-8.98-11.51c-2.43-3.53-4.93-7.04-7.33-10.61
		c-2.36-3.5-1.35-6.42,2.75-6.56c2.35-0.08,4.48-0.93,6.49-1.59c4.07-1.34,6.12,0.66,7.48,3.63c1.19,2.59,3.52,4.52,4.04,7.44
		l-0.14,0.11c-2.53-1.32-5.25-6.23-6.83-8.46c-2.17-3.06-5.15-1.66-12.05,1.41c-1.06,0.47,0.64,3.16,1.36,3.91
		c2.31,2.42,3.15,5.68,5.11,8.33c2.27,3.07,7.76,9.39,8.44,13.42L500.45,784.98z"/>
	<path class="st0" d="M500.05,838.04c-6.01-0.61-8.32-2.24-11.84-4.92c-4.91-3.74-6.21-9.66-5.11-15.34
		c1.04-5.37,2.72-10.83,7.27-14.76c6.6-5.67,18.2-4.64,24.77,2.58c4.76,5.23,5.48,8.84,5.19,16.1
		C519.93,831.63,509.14,840.05,500.05,838.04z M518.53,822.31c1.51-9.68-4.85-18.53-13.97-20.27c-7.42-1.42-17.13,1.84-19.56,14.8
		c-2.5,11.68,5.9,18.87,17.29,19.83C509.49,837.27,517.39,830.62,518.53,822.31z"/>
</g>
<g>
	<path class="st0" d="M952.56,331.66c0.01-0.04,0.02-0.07,0.03-0.11c0.01-0.9,0.05-1.79,0.11-2.69l0,0l-0.08-0.49
		c0.03-0.17,0-0.34-0.09-0.53c0.01-0.14,0.01-0.28,0-0.42c0.08-0.44,0.06-0.86-0.1-1.26c-0.02-0.07-0.04-0.14-0.08-0.2
		c0.02-0.3,0.03-0.6,0.05-0.89c0.08-0.45,0.15-0.9,0.23-1.35c-0.16-1.1-0.31-2.2-0.46-3.3c-0.18-3.29-1.55-6.23-2.88-9.14
		c-1.51-3.3-3.96-5.99-6.38-8.64c-4.01-4.39-9.02-7.08-14.8-8.39c-0.07,0.05-0.1,0.12-0.14,0.19c-0.01-0.01-0.03-0.01-0.05-0.02
		c-0.65-0.1-1.25-0.3-1.74-0.75c0,0,0.06-0.06,0.1-0.1c-0.11-0.04-0.22-0.07-0.33-0.11c-0.66-0.17-1.32-0.35-1.95-0.56
		c-0.11-0.04-0.21-0.08-0.32-0.12c-0.89-0.25-1.78-0.53-2.55-0.97c-0.03-0.01-0.07-0.01-0.11-0.02c-0.21-0.04-0.41-0.1-0.6-0.17
		c-0.12-0.05-0.24-0.1-0.36-0.15c-0.05-0.02-0.09-0.05-0.13-0.07c-0.09-0.05-0.18-0.11-0.26-0.16c-0.05-0.04-0.1-0.07-0.15-0.11
		c-0.76-0.59-1.21-1.51-1.09-2.59c0.07-0.64,0.25-1.14,0.49-1.54c0.09-0.16,0.2-0.31,0.32-0.44c0.01-0.01,0.01-0.01,0.02-0.02
		c0.18-0.19,0.39-0.35,0.61-0.48c0.15-0.09,0.31-0.17,0.48-0.23c0.07-0.03,0.14-0.06,0.21-0.08c0.22-0.07,0.46-0.13,0.7-0.17
		c0.04-0.01,0.08-0.01,0.11-0.01c0.23-0.03,0.47-0.06,0.71-0.07c0.07-0.01,0.13-0.01,0.2-0.01c0.27-0.01,0.54-0.01,0.82-0.01
		c0.22-0.14,0.45-0.26,0.69-0.38c1.61-0.79,3.5-1.15,4.31-2.99c0.04-0.1,0.11-0.19,0.17-0.27c-0.04-0.19-0.1-0.38-0.17-0.58l0-0.01
		c0-0.52-0.09-1.06-0.26-1.54c-0.3-0.46-0.75-0.84-1.45-1.07c-1.35-0.46-2.76-0.61-4.15-0.77c-0.64-0.07-1.28-0.15-1.92-0.26
		c-0.17,0-0.33,0-0.49-0.02c-5-0.53-9.72,0.9-14.48,2.06c-0.88-0.09-1.66,0.25-2.45,0.56c-1.79,0.71-3.58,1.41-5.37,2.11
		c-1.82,0.99-3.61,2.02-5.45,2.96c-3.15,1.61-6.01,3.67-8.9,5.67c-0.12,0.1-0.25,0.21-0.37,0.31c-0.05,0.02-0.1,0.06-0.16,0.13
		l0.01,0c-0.63-0.07-1.06,0.34-1.54,0.65c-0.46,0.54-0.98,1.05-1.18,1.75c-3.77,5.25-8.88,10.67-10.47,17.1c0,0-0.01,0-0.02,0
		c0,0.04-0.01,0.08-0.02,0.12c-0.1,0.44-0.19,0.88-0.26,1.33c-0.02,0.11,0,0.21,0.01,0.31c-0.43,2.75-0.86,5.5-1.22,8.26
		c-0.21,1.66-0.46,3.34-0.27,5.03c0.38,3.35,0.82,6.7,1.13,10.06c0.31,3.49,1.27,6.74,2.96,9.82c1.07,1.94,1.87,4.03,2.79,6.05
		c2.75,4.15,7.15,6.92,9.57,11.36c0.17,0.32,0.55,0.52,0.85,0.76c2.79,2.28,5.7,4.4,8.84,6.18c0.31,0.04,0.62,0.09,0.92,0.13
		c4.28,2.5,9.04,3.53,13.83,4.42c0.26,0.21,0.53,0.42,0.79,0.63l-0.8,5.39c-0.8,1.3-0.77,2.8-1,4.23c-0.38,2.35-1.3,4.37-2.89,6.15
		c-1.24,1.39-2.55,2.44-4.57,1.98c-0.6-0.14-1.22-0.08-1.81,0.17c-1.95-0.29-3.88-0.03-5.82,0.14l0.05,0.01
		c-1.3-0.1-2.62-0.19-3.89,0.15c-1.2,0.33-1.38,1.15-0.53,2.04c0.59,0.63,1.29,1.08,2.2,1.12c2.14,1.02,4.62,0.85,6.72,2.01
		c0.22,0.21,0.46,0.34,0.72,0.45c0.94,0.14,1.89,0.28,2.83,0.42c0.02,0,0.04,0.01,0.06,0.01c0.2,0.03,0.4,0.05,0.6,0.08
		c2.28,0.34,4.56,0.67,6.85,0.98c-0.02-0.01-0.04-0.01-0.05-0.01c0.52,0.07,1.03,0.15,1.55,0.22c1.4,0.18,2.81,0.35,4.21,0.49
		c2.9,0.3,5.93,0.34,8.96,0.42c0.2,0.01,0.39,0.01,0.59,0.02c1.82,0.05,3.64,0.12,5.43,0.28c0.27-0.14,0.54-0.29,0.81-0.43
		c0.24-0.27,0.3-0.59,0.29-0.93c-0.04-0.18-0.12-0.34-0.2-0.51c0.02-0.02,0.05-0.04,0.07-0.07c0.08-0.09,0.06-0.22-0.05-0.36
		c-0.38-0.52-0.92-0.81-1.47-1.08c-2.57-1.23-5.16-2.38-7.91-3.17c-2-0.57-3.99-1.17-5.79-2.23c-1.13-0.66-2.27-1.33-2.69-2.71
		c-0.22-0.5-0.43-1-0.65-1.5c0.19-2.16,1.16-4.26,0.44-6.48l0.01-0.01c0.05-1.7,0.82-3.36,0.29-5.09l0,0
		c0.11-0.82,0.22-1.65,0.33-2.48c3.01,0.17,9,0.58,12.08-0.59c0.09-0.01,0.18-0.01,0.28-0.04c0.26-0.1,0.52-0.21,0.75-0.34
		c0,0.07,0,0.13,0.01,0.21c0.02,0.04,0.05,0.07,0.08,0.1l-0.01,0c-0.01,0.02-0.03,0.03-0.04,0.05c-0.16,0.12-0.31,0.25-0.47,0.37
		c0.15,0.02,0.3,0.04,0.45,0.06l0.02,0.01c0.17-0.14,0.34-0.28,0.51-0.42l0,0c0,0,0,0,0,0c0.02-0.14,0.05-0.29,0.09-0.43l0.04-0.47
		c0,0-0.01,0-0.01,0c0.32-0.35,0.52-0.79,0.52-1.37c0-0.93-0.32-2.12-1.38-2.29c-0.08-0.01-0.14,0-0.21,0.01
		c-1.37-0.73-2.94-0.6-4.44-0.74c-2.1-0.19-4.26,0.11-6.31-0.64c-0.39-0.33-0.98-0.32-1.4-0.6c0.03-0.02,0.05-0.03,0.08-0.06
		c-0.03-0.21-0.02-0.39,0-0.55c-0.11-0.3-0.13-0.64,0-1.01c0.11-0.31,0.25-0.58,0.39-0.83c0.13-0.23,0.28-0.42,0.44-0.6
		c0.03-0.03,0.06-0.07,0.09-0.1c0.09-0.1,0.19-0.17,0.29-0.26c0.78-0.65,1.77-0.92,2.86-0.99c0.36-0.02,0.73-0.03,1.11-0.03
		c0.06,0,0.11,0,0.17,0.01c0.39,0.01,0.78,0.03,1.17,0.06c0.63,0.04,1.25,0.04,1.87,0.02c-0.01,0.01-0.01,0.01-0.02,0.02
		c3.06-0.06,6.01-0.76,8.86-1.83c0.07-0.14,0.17-0.27,0.28-0.38c0.02-0.02,0.05-0.04,0.07-0.06c0.11-0.1,0.24-0.19,0.39-0.25
		c0.19-0.07,0.37-0.16,0.56-0.24c0,0,0,0,0,0c0.25-0.11,0.51-0.22,0.77-0.33c1.72-0.99,3.44-1.98,5.17-2.96l0,0
		c0.84-0.18,1.6-0.52,2.36-0.89c0.25-0.19,0.51-0.36,0.77-0.55c0.7-0.49,1.29-1.1,1.96-1.63c0.14-0.11,0.29-0.23,0.44-0.33
		c0.08-0.05,0.16-0.1,0.25-0.13c1.05-1.06,1.92-2.25,2.64-3.58c0.68-1.25,1.32-2.54,2.13-3.7c0.01-0.05,0.02-0.11,0.04-0.16
		c0.36-1.09,0.99-2.02,1.51-3.04c0.48-0.95,0.83-1.94,1.28-2.91c0.14-1.1,0.6-2.17,0.87-3.32c0.15-0.62,0.31-1.22,0.48-1.82
		C952.19,334.18,952.31,332.91,952.56,331.66z M948.12,320.31c0.24,0.05,0.47,0.03,0.68-0.03c-0.03,0.05-0.05,0.09-0.07,0.14
		c-0.01,0.05-0.04,0.09-0.05,0.14c-2.02,1.85-3.46,4.14-4.66,6.57c-0.14,0.29-0.11,0.52,0,0.72c-0.69-0.11-1.38-0.26-2.07-0.38
		c1.11-2.14,2.42-4.16,3.69-6.21C946.22,320.33,946.83,319.41,948.12,320.31z M945.94,314.99c0.03,0.06,0.07,0.13,0.1,0.19
		c0.21,0.25,0.44,0.4,0.71,0.41c0,0,0,0,0,0c-0.75,0.77-1.39,1.62-1.96,2.48c-0.41,0.66-0.82,1.32-1.2,1.96
		c-0.69,1.22-1.32,2.4-1.99,3.36c0.57-0.96,1.25-2.12,1.99-3.36c0.37-0.65,0.77-1.31,1.2-1.96c0.22-0.36,0.45-0.72,0.68-1.08
		c0.4-0.63,0.67-1.27,0.16-1.91C945.74,315.06,945.84,315.03,945.94,314.99z M936.54,307.47c0.02,0,0.03,0,0.05,0.01
		c0.01,0,0.02,0,0.03,0c-1.28,1.17-1.66,3.01-2.36,4.6c-0.68,1.1-1.39,2.19-2.02,3.32c-0.6,1.06-1.19,2.14-1.63,3.27
		c-0.37,0.96,0.17,1.25,1.08,0.98c0.11-0.05,0.17-0.13,0.22-0.21c0.27-0.3,0.4-0.67,0.46-1.08l0,0c0.32-0.14,0.58-0.51,1.01-0.31
		c0.16-0.16,0.39-0.29,0.49-0.48c1.49-2.78,3.03-5.53,4.73-8.18c0.36-0.55,0.4-1.16,0.06-1.75l0-0.01
		c-0.12-0.37-0.24-0.74-0.36-1.11l0.01,0.05c-0.01,0-0.03,0.01-0.04,0.02c0.01-0.02,0.02-0.04,0.03-0.07
		c0.26-0.51,0.6-0.88,1.03-1.11c0.07,0.07,0.14,0.14,0.2,0.22c0.1,0.16,0.21,0.33,0.32,0.49c0.2,0.23,0.44,0.41,0.67,0.61
		c1.42,1.96,3.34,3.49,4.69,5.52c0.14,0.27,0.26,0.56,0.39,0.83c-0.08,0.09-0.14,0.2-0.19,0.31c-0.03,0.19-0.02,0.36,0.01,0.52
		c-0.17,0.3-0.35,0.6-0.53,0.9c-0.25-0.01-0.5,0.05-0.76,0.13c-2.3,2.81-4.45,5.7-5.75,9.08c0.11-0.49,0.21-0.97,0.36-1.45
		c-0.11-0.35-0.13-0.76-0.28-1.08c0.93-1.89,2.04-3.68,3.31-5.37c0.54-0.72,1.25-1.33,1.56-2.21c0.19-0.12,0.33-0.28,0.51-0.41
		c0.02-0.14,0.05-0.29,0.08-0.43c-0.01-0.23,0.07-0.51-0.05-0.67c-0.36-0.5-0.66-0.09-0.86,0.18c-1.95,2.72-3.74,5.54-5.44,8.41
		c-0.31,0.32-0.6,0.89-1.07,0.68c-0.59-0.26-0.19-0.79-0.01-1.17c0.16-0.34,0.39-0.66,0.61-0.97c1.64-2.32,2.98-4.81,4.21-7.36
		c0.15-0.32,0.59-0.68,0-1.3c-2.16,3.71-4.26,7.32-6.36,10.92c-0.11-0.03-0.22-0.06-0.33-0.09c-0.32-0.06-0.65-0.04-0.98-0.02
		c-0.22,0.04-0.42,0.11-0.6,0.23c-0.01,0.01-0.01,0.01-0.02,0.02c-0.72-1.23-2.05-1.36-3.31-1.61l0,0c0,0-0.01-0.01-0.01-0.01
		c-0.05-0.08-0.11-0.15-0.18-0.19c-0.19-0.19-0.4-0.33-0.67-0.41c-0.01,0.13-0.03,0.25-0.04,0.38c-0.05,0.04-0.1,0.08-0.14,0.12
		c-1.66,0.69-3.31,1.32-5.04,0.15c1.58-0.64,2.28-1.61,2.09-2.81c0.06-0.03,0.12-0.07,0.18-0.09c1.06-0.72,2.28-1.23,2.99-2.38
		c0.71-1.16,2.07-1.93,2.11-3.49c0.09-0.5,0.28-0.94,0.67-1.28c0.08,0.3,0.2,0.66,0.58,0.47c0.77-0.37,1.26-1.06,1.51-1.84
		c0.18-0.58-0.42-0.66-0.84-0.79c0.66-0.69,1.49-0.95,2.42-0.97c0.12,0.08,0.25,0.14,0.4,0.18
		C936.05,307.5,936.32,307.62,936.54,307.47z M932,339.32c0.02,0.06,0.03,0.12,0.05,0.18c-3.37,3.38-5.95,7.31-8.09,11.56
		c-0.17,0.33-0.2,0.74-0.29,1.11l-0.02,0c0,0,0,0,0,0c0,0,0,0,0,0c-0.16-0.03-0.32-0.07-0.48-0.1c-0.01,0.06-0.02,0.13-0.03,0.19
		c-0.11-0.01-0.22-0.04-0.33-0.09c-0.39-0.25-0.69-0.69-1.23-0.63c-0.19-0.24-0.39-0.47-0.58-0.71l-0.01-0.03
		c-0.04-0.06-0.07-0.12-0.11-0.18c0.08-0.11,0.15-0.22,0.21-0.35c-0.06-1.07,0-2.17-0.49-3.15c1.35,0.37,1.66-0.83,2.11-1.66
		c1.71-3.16,3.63-6.16,5.86-8.97c0.06,0.01,0.12,0.03,0.19,0.03l0,0c0.17-0.13,0.34-0.27,0.52-0.39c0.38-0.39,0.76-0.79,1.13-1.18
		c0.72,0.22,1.67,0.02,1.96,1.04c0.41,0.53,0.27,1.05-0.04,1.55c-0.17,0.38-0.3,0.77-0.35,1.18
		C931.95,338.91,931.96,339.11,932,339.32z M920.36,339.48c-0.33,0.25-0.38,0.54-0.16,0.88c0.01,0.01,0.01,0.02,0.01,0.02
		c0.13,0.17,0.26,0.35,0.39,0.52h0c0.17,0.03,0.33,0.06,0.5,0.09c-0.06,0.3-0.12,0.6-0.17,0.9c-1.06,1.1-0.12,2.51-0.58,3.7
		c-0.14-0.04-0.29-0.07-0.44-0.1l0,0c0,0,0,0,0,0c-0.1-0.81-0.23-1.62-0.31-2.44c-0.13-1.25,0-2.54-0.64-3.71
		c-0.1-0.22-0.21-0.44-0.32-0.66c-0.63-1.41-0.64-2.73,0.4-3.99c0.28-0.34,0.63-0.79,0.39-1.41c-0.86,0.48-1.15,1.3-1.66,1.94
		c-0.42,0.52-0.72,1.19-1.54,1.17l-0.14,0.12c-0.01-0.01-0.02-0.01-0.03-0.02l0.17-0.1c0.33-1.11,0.97-2.06,1.58-3.03
		c0.84-1.35,1.8-2.65,2.25-4.22c0.11-0.15,0.18-0.29,0.21-0.42c1.09-2.15,1.21-2.14,3.36-1.87c0.15,0.02,0.3,0.04,0.46,0.07
		c0,0,0,0,0,0c0.15,0.03,0.31,0.07,0.46,0.11c0.46,0.05,0.92,0.1,1.38,0.15c0.27,0.2,0.55,0.37,0.91,0.18
		c0.16,0.01,0.31,0.01,0.47,0.02c0.98,0.24,2.09-0.38,2.99,0.36c-0.16,0.06-0.32,0.16-0.44,0.29c-0.66,0.88-0.7,1.67,0.37,2.27
		c0.06,0.02,0.13,0.03,0.2,0.05c-0.35,0.76-0.85,1.42-1.52,1.96c-0.36,0.17-0.66,0.39-0.94,0.63c0.11-0.25,0.15-0.53,0.22-0.79
		c0.11-0.12,0.22-0.24,0.33-0.35c0.02-0.16,0.04-0.31,0.06-0.47c0,0,0,0,0,0s0,0,0,0c-0.24-0.66-0.14-1.27,0.28-1.83
		c0.19-0.11,0.33-0.28,0.51-0.39c0.05-0.6-0.04-1.08-0.8-1.1c-0.81-0.02-1.51,0.13-1.91,0.96c-0.5,1.03-1.07,2.03-1.57,3.06
		c-1.15,2.34-3.04,4.22-4.14,6.59C920.63,338.82,920.67,339.27,920.36,339.48L920.36,339.48z M914.85,335.84
		c-0.01,0.01-0.02,0.02-0.03,0.03c-0.01,0-0.02-0.01-0.03-0.01c-0.81-0.57-1.64-1.12-2.18-2c-0.13-0.16-0.26-0.31-0.43-0.45
		c-0.19-0.14-0.35-0.31-0.49-0.49c1.44-0.85,1.56-1.2,1.18-2.84c0.15-0.26,0.28-0.53,0.4-0.81c0.07,0.51,0.25,0.97,0.93,1.14
		c1.18,0.3,1.62-0.84,2.02-1.56c0.59-1.06,1.43-1.25,2.46-1.25c0.19,0.18,0.4,0.31,0.64,0.41c-0.23,0.05-0.43,0.14-0.54,0.33
		c-1.37,2.32-3.41,4.26-4.03,7C914.74,335.51,914.79,335.68,914.85,335.84z M909.44,372.19c-3.86-0.37-7.5-1.52-11.06-2.99
		c-0.68-0.28-1.34-0.33-1.9,0.15v0c-0.07-1.23-1.04-1.58-1.92-2.06c-2.43-1.33-5.06-2.49-6.94-4.51c-1.42-1.53-2.8-3.11-4.14-4.71
		c0,0-0.01,0-0.01,0c-0.34-0.21-0.54-0.49-0.65-0.8c-0.26-0.32-0.51-0.64-0.77-0.96c-0.03-0.03-0.06-0.06-0.09-0.09
		c-0.37-0.04-0.73-0.19-1-0.5c-3.17-3.62-6.45-7.21-7.83-11.97c-0.11-0.09-0.21-0.21-0.31-0.36c-1.85-3.11-2.42-6.43-2.73-10
		c-0.3-3.5-0.57-7.35-0.26-10.84c0-0.03,0.01-0.06,0.02-0.09c-0.08-1.46-0.27-2.99,0-4.42c0.28-1.45,0.85-2.79,1.28-4.18
		c-0.06-0.35-0.1-0.71-0.14-1.06c0.02-0.06,0.05-0.11,0.07-0.18c1.04-6.56,6.61-12.39,10.38-17.64c0.07-0.03,0.15-0.04,0.22-0.04
		c0.74-0.82,1.48-1.64,2.22-2.45l0,0c0.95-0.36,1.6-1.11,2.29-1.8c0.97-0.97,2-1.84,3.37-2.19c2.52-2.04,5.46-3.37,8.35-4.75
		c2.33-1.12,4.58-2.52,7.29-2.63c0.36-0.11,0.71-0.22,1.07-0.34c0.24,0.03,0.48,0.06,0.68,0.13c1.49-0.12,2.96-0.3,4.44-0.48
		c2.61-0.71,5.24-1.37,7.88-1.47c0,0-0.01,0-0.01,0c0.15-0.01,0.3,0,0.45,0c0.32-0.01,0.64-0.01,0.95,0.01
		c0.18,0.01,0.36,0.02,0.55,0.04c0.33,0.03,0.66,0.06,0.99,0.11c0.15,0.02,0.3,0.04,0.45,0.07c0.48,0.08,0.96,0.18,1.44,0.32
		c0.02,0.01,0.04,0.01,0.06,0.02c1.03,0.29,1.57,1.4,0.97,2.24c-0.08,0.12-0.19,0.24-0.32,0.35c-0.31,0.24-0.67,0.42-1.06,0.57
		c-0.25,0.1-0.51,0.17-0.79,0.24l-0.04,0.01c-0.26,0.06-0.53,0.11-0.81,0.14c-0.04,0.01-0.07,0.01-0.11,0.02
		c-1.81,0.23-3.87,0.07-5.32,0.2c-0.13,0.01-0.26,0.04-0.4,0.05c-0.01,0-0.02,0-0.03,0c-0.29,0.03-0.59,0.08-0.88,0.12
		c-1.06,0.14-2.11,0.31-3.14,0.51c-0.18,0.04-0.37,0.07-0.55,0.1v0c-1.79,0.36-3.57,0.77-5.36,1.12c-0.01,0.14-0.01,0.28,0.02,0.44
		c0.01,0.01,0.01,0.01,0.02,0.01c-0.4,0.21-0.82,0.26-1.27,0.2c-2.34,1.1-4.94,1.58-7.16,2.98c-0.63,0.03-1.12,0.3-1.46,0.83l0,0
		c-1.56,0.84-3.13,1.69-4.69,2.53c-1.06,0.92-2.12,1.83-3.18,2.75l0,0c-2.31,1.26-4.2,2.97-5.62,5.2c-1.23,1.92-2.54,3.79-3.81,5.68
		c-0.49,0.27-0.81,0.7-1.08,1.18c-1.36,2.51-2.5,5.09-3.04,7.94c-0.72,3.85-2.01,7.6-1.85,11.58c0.07,1.62,0.2,3.25,0.24,4.87
		c0.03,0.06,0.06,0.12,0.09,0.2c0.43,1.24,0.78,2.53,1.12,3.83c0.12,0.46,0.24,0.92,0.36,1.38c0.05,0.2,0.1,0.39,0.15,0.59
		c0.05,0.21,0.11,0.41,0.16,0.62c0.44,1.67,0.93,3.33,1.61,4.88c0.15,0.35,0.32,0.7,0.49,1.04c0.05,0.09,0.1,0.18,0.15,0.26
		c0.19,0.37,0.39,0.75,0.59,1.11c0.02,0.05,0.06,0.11,0.08,0.16c0.11,0.19,0.22,0.36,0.33,0.55c0.11,0.19,0.22,0.39,0.34,0.59
		c0,0,0.01-0.01,0.01-0.01c0.59,0.97,1.19,1.92,1.78,2.89c0.13,0.21,0.25,0.42,0.38,0.63c0.36,0.48,0.71,0.95,1.07,1.42l0,0.01
		c0.91,1.14,1.59,2.39,2.68,3.46c0.82,0.8,1.6,1.62,2.37,2.46c1.53,1.44,2.91,3.06,4.62,4.32c0.28,0.2,0.56,0.39,0.84,0.58l0,0.01
		c0.04,0.03,0.09,0.05,0.13,0.08c0.11,0.07,0.21,0.15,0.32,0.22c0,0,0.01-0.01,0.02-0.01c2.29,1.49,4.72,2.64,7.25,3.7
		c0.33,0.1,0.67,0.19,1.01,0.29c0.63,0.58,1.4,0.91,2.17,1.26c1.88,0.85,3.74,1.72,5.69,2.41c1.63,0.58,1.73,1.06,1,2.73
		c0,0,0,0,0,0c-0.07-0.01-0.14-0.01-0.2-0.01c-0.02-0.08-0.03-0.17-0.06-0.25C909.8,372.52,909.64,372.34,909.44,372.19z
		 M891.8,308.08c0.38,0.1,0.72,0.05,1.02-0.12c0.03,0.09,0.06,0.17,0.09,0.26c-0.32,0.91-0.05,1.18,1.04,1.23
		c0,0.16,0.03,0.33,0.1,0.49c0.05,0.07,0.11,0.12,0.17,0.19c-0.4,0.02-0.79-0.11-1.13-0.25c-1.2-0.51-2.04-0.06-2.8,0.81
		c-0.14,0.17-0.26,0.35-0.33,0.56c-0.02,0.11-0.04,0.21-0.06,0.32c-0.63,0.37-1.05,0.26-1.52-0.37c-0.72-0.96-1.22-0.87-1.64,0.19
		c-0.19,0.48-0.23,1.03-0.34,1.55c-0.12-0.27-0.24-0.54-0.36-0.81c0.08-0.09,0.16-0.18,0.25-0.27c0.67-1.25,1.87-2.24,1.79-3.84
		c0.02-0.03,0.04-0.06,0.06-0.08c0.05,0.13,0.1,0.29,0.11,0.49c1.73,0.62,2.56-0.6,3.47-1.68c0-0.01,0.01-0.02,0.01-0.03
		c0.02,0.01,0.04,0.04,0.06,0.05c0.11,0.04,0.21,0.08,0.31,0.12C891.79,307.15,891.57,307.48,891.8,308.08z M887.82,329.94
		c0,0.01-0.01,0.02-0.02,0.03c-0.14,0.13-0.3,0.25-0.45,0.37c-0.18,0.1-0.35,0.23-0.48,0.39c-0.32,0.34-0.46,0.78-0.63,1.2
		c-0.65,1.23-0.9,2.53-0.76,3.91c0,0.04,0,0.08-0.01,0.12c-0.09,0.11-0.16,0.26-0.18,0.44c-0.14,0.89-0.25,1.79-0.37,2.69
		c0,0,0,0,0,0c-0.04,0.09-0.09,0.18-0.13,0.27c0.07,0.12,0.17,0.2,0.27,0.27c-0.03,0.13-0.06,0.26-0.07,0.4
		c0.33,0.93,0.65,1.85,0.88,2.8c-0.64-2.07-1.63-3.98-3.42-5.5c-0.01,0-0.01,0-0.02,0c0.2-0.3,0.12-0.56-0.31-0.77
		c0.14-0.05,0.28-0.12,0.4-0.23c1.28-2.28,1.08-4.15-0.56-5.31c0.83-0.6,0.53-1.49,0.44-2.24c-0.13-1.1-0.03-2.12,0.45-3.11
		c0.19-0.79,0.75-1.45,0.84-2.28c0.06-0.35,0.17-0.69,0.31-1.01c0.17-0.6,0.26-1.2,0.07-1.81c-0.16-0.53-0.34-1.04-0.75-1.36
		c0.11-0.13,0.2-0.26,0.27-0.42c0.12-0.43,0.24-0.86,0.48-1.24c0.21-0.25,0.35-0.52,0.47-0.8c0.06,0.39,0.24,0.73,0.67,0.93
		c1.05,0.48,1.14,1.46,1.61,2.26l0.01,0.02c-0.02,0.14-0.04,0.28-0.05,0.42c-0.39,0.48-0.26,0.84,0.29,1.02
		c0.93,0.31,1.88,0.58,2.52,1.39c0.25,0.47,0.49,0.94,0.73,1.41c-0.32,0.11-0.55,0.35-0.69,0.67c-0.07,0.21-0.11,0.42-0.15,0.63
		c-0.4,0.34-0.57,0.91-0.91,1.31C888.21,327.83,887.52,328.81,887.82,329.94z M885.8,307.18c-1.09,1.64-2.13,3.3-2.59,5.25
		c-1.04,1.97-1.6,4.08-1.87,6.28c-0.02,0.15-0.05,0.3-0.07,0.46c-0.27,1.25-0.49,2.52-0.84,3.75c-0.34,1.18-0.54,2.35-0.27,3.56
		c-0.63,3.58,0.79,6.82,1.7,10.15c0,0,0,0,0,0h0c-0.02,0.29-0.03,0.58-0.05,0.87c-0.29,1.36,0.66,2.34,1.17,3.39
		c1.31,2.73,2.31,5.67,4.71,7.74c0,0,0,0,0,0l0,0c1.69,1.83,3.36,3.68,5.07,5.5c0.88,0.94,1.85,1.78,3.06,2.29
		c0.8,0.96,1.87,1.56,2.93,2.17c2.05,1.19,4.17,2.24,6.18,3.5c1.3,0.82,2.57,1.69,4.08,2.01c0.8,0.17,1.31,0.57,1.62,1.22
		c-0.03,0.02-0.07,0.02-0.1,0.04c-0.17,0.1-0.34,0.22-0.48,0.36c-0.72,0.71-1.53,0.44-2.38,0.31c-3.17-0.51-6.01-1.83-8.82-3.24
		c-0.15,0-0.31-0.02-0.47-0.08c-0.55-0.19-1.07-0.41-1.58-0.66c-2.45-1.17-4.44-2.93-6.33-4.95c-2-2.14-4.64-3.82-6.13-6.37
		c-0.08,0-0.14-0.01-0.22,0c-0.01,0.01-0.02,0.02-0.03,0.03c-0.11-0.29-0.23-0.57-0.34-0.85c-0.11-0.13-0.19-0.27-0.28-0.42
		c0,0,0,0,0.01-0.01c-1.81-2.52-3.03-5.39-4.17-8.3c-0.04,0.01-0.08,0.04-0.13,0.06c-0.01-0.16-0.02-0.32-0.09-0.46l-0.01,0
		c0.01-0.06,0-0.12,0-0.18c0-0.01-0.01-0.01-0.01-0.02c-0.12-0.32-0.13-0.61-0.07-0.87c-0.08-0.39-0.21-0.78-0.3-1.17
		c-1.08-4.43-2.51-8.79-2.26-13.46c0.05-0.96,0.14-1.99-0.23-2.94l0.01,0c0.19-2.61,0.37-5.21,0.95-7.76c0-0.01,0-0.02,0-0.03
		c0.16-1.1,0.47-2.25,0.9-3.38c0.04-0.4,0.12-0.79,0.43-1.11c0.01,0.01,0.02,0.02,0.03,0.03c0.78-1.68,1.83-3.23,3.1-4.39
		c0.84-2.28,2.8-3.89,4.69-5.54c1.31-1.82,2.69-3.56,4.56-4.9c0-0.02-0.01-0.03-0.01-0.05c-0.02-0.03-0.04-0.06-0.06-0.09
		c0.06,0.02,0.12,0.04,0.18,0.06c0.22-0.16,0.47-0.3,0.71-0.44c0.05-0.22,0.15-0.43,0.34-0.64c0.07-0.08,0.15-0.15,0.23-0.23
		c1.3-1.34,2.82-2.49,4.48-3.47c2.37-1.4,5.01-2.43,7.69-3.13c0.25-0.07,0.5-0.12,0.75-0.18c0.26-0.06,0.52-0.12,0.78-0.18
		c0.25-0.05,0.49-0.1,0.74-0.15c0.29-0.06,0.59-0.11,0.88-0.15c0.2-0.03,0.4-0.06,0.6-0.09c0.5-0.07,1-0.13,1.49-0.18
		c0.45-0.04,1.06-0.12,1.72-0.16c1.66-0.11,3.65-0.03,4.4,1.21c0.33,0.54,0.47,1.05,0.44,1.53c0.09,0.21,0.15,0.45,0.13,0.74
		c-0.07,0.82-0.52,1.26-1.33,1.29c-0.84,0.03-1.69-0.02-2.5,0.26c-0.07,0.01-0.14,0.05-0.21,0.07c-0.57-0.17-1.23-0.1-1.9-0.1
		c-5.52-0.02-10,2.89-14.71,5.14c-0.51,0.44-0.84,1.03-1.11,1.62c-0.11,0.08-0.22,0.16-0.34,0.24
		C890.7,300.4,888.36,303.89,885.8,307.18z M912.4,372.05c0.2-0.05,0.41-0.09,0.58-0.1c2.4,0.21,4.75-0.58,7.18-0.21
		c0.94,0.14,1.94-0.28,2.55-1.18c0.52-0.19,1.01-0.24,1.41-0.03c-0.02,0.06-0.03,0.12-0.03,0.18c-0.16,0.22-0.22,0.52-0.04,0.85
		c1.02,1.95-7.3,1.78-7.89,1.75c-1.19-0.05-2.35-0.17-3.51-0.25c0.03-0.17-0.04-0.34-0.14-0.52c-0.07-0.07-0.14-0.11-0.21-0.16
		C912.34,372.28,912.37,372.17,912.4,372.05z M909.82,392.27c0.09,0.08,0.18,0.18,0.26,0.31c0.85,1.37,2.3,1.96,3.73,2.55
		c1.59,0.66,3.13,1.43,4.83,1.76c0.51,0.1,0.85,0.4,1.02,0.76c0.96,0.23,1.9,0.56,2.84,0.95c0.54,0.22,1.1,0.47,1.68,0.63
		c-1.69,0.41-3.42,0.49-5.12,0.41c-0.23,0.11-0.51,0.16-0.85,0.11c-0.66-0.1-1.31-0.23-1.95-0.38c-7.82-0.93-15.56-2.38-23.18-4.47
		c-0.06-0.03-0.12-0.07-0.17-0.1c2.17-0.16,4.34,0.45,6.52,0.27c0.63-0.05,1.28,0.07,1.7-0.34c3.33,0.59,7.53-2.67,7.76-6.05
		c0.01-0.17,0.02-0.34,0.02-0.52C908.96,389.56,909.42,390.91,909.82,392.27z M946.54,344.9c-0.98,1.28-2.08,2.47-2.51,4.08
		c0,0.25-0.01,0.49-0.04,0.73c-0.05,0.02-0.12,0.03-0.17,0.06c-0.15,0.08-0.29,0.17-0.43,0.27c-0.14,0.1-0.27,0.21-0.39,0.33
		c-0.12,0.13-0.23,0.26-0.33,0.39c-0.11,0.13-0.23,0.25-0.34,0.38c-0.06,0.06-0.12,0.12-0.18,0.19c-0.13,0.12-0.25,0.24-0.36,0.37
		c-0.1,0.14-0.21,0.28-0.32,0.42c-0.23,0.27-0.5,0.51-0.79,0.73c-0.07,0.05-0.15,0.1-0.22,0.16c-0.15,0.1-0.29,0.21-0.43,0.32
		c-0.07,0.05-0.15,0.1-0.22,0.15c-0.15,0.1-0.3,0.19-0.45,0.28c-0.16,0.08-0.32,0.16-0.47,0.23c-0.26,0.11-0.52,0.19-0.77,0.31
		c-0.56,0.27-1.16,0.46-1.69,0.78c-3.77,2.47-7.96,3.91-12.33,4.84c-0.19,0.04-0.38,0.08-0.57,0.13c-2.44,1.97-5.5,1.76-8.64,0.82
		c-0.52,0.04-1.05,0.03-1.59,0c-1.78-0.1-3.59-0.56-5.3-1.25v0c-0.5-0.2-0.98-0.43-1.45-0.66c-0.1-0.05-0.19-0.1-0.28-0.14
		c-0.46-0.24-0.92-0.49-1.35-0.76c-0.23-0.14-0.46-0.28-0.67-0.42c-1.05-0.38-2.09-0.81-3.11-1.32c-2.49-1.25-4.61-3.05-6.8-4.7
		c-2.08-1.27-3.97-2.75-3.51-5.75c0.13-0.83-0.06-1.68-0.52-2.43c-0.39-2.07-0.78-4.15-1.18-6.22c-0.01-0.19-0.05-0.38-0.11-0.58
		c0.04-1.56,0.4-3.04,1.11-4.42c0.1-0.21,0.18-0.42,0.25-0.64c0.83-2.19,1.11-4.52,1.71-6.76c0.27-1.01,0.59-2.06,0.09-3.11
		c-0.16-0.16-0.31-0.32-0.41-0.52l0-0.01c-0.49-0.6-1.37-0.79-1.67-1.58c-0.46-1.02-0.93-2.04-1.39-3.06
		c-0.13-0.17-0.26-0.35-0.39-0.52c-0.09-0.49-0.18-0.97-0.27-1.45l0.01,0.01c0.18-0.12,0.36-0.25,0.53-0.39l0-0.01
		c0.85,0.56,1.72,0.99,2.75,0.41c0,0,0,0,0,0c0.59-0.21,0.95-0.63,1.12-1.23c0.65-0.15,1.29-0.3,1.94-0.45
		c0.17-0.01,0.34-0.03,0.49-0.11c0.37-0.23,0.74-0.46,1.11-0.68l-0.08-0.14c0,0,0,0,0,0c0.68-0.49,1.74,0.14,2.41-0.65
		c-0.64-0.7-1.89,0.16-2.08-1.09l-0.01-0.01c0.14-0.18,0.33-0.29,0.54-0.36c0.63-0.23,1.24-0.57,1.95-0.49
		c0.55,0.07,1.13,0.12,1.18-0.64c0.05-0.65-0.42-0.91-1.01-0.98c-0.3-0.03-0.6-0.05-0.9-0.07c-0.97,0.25-1.74,1.13-2.86,0.88l0,0v0
		c-0.82-1.45-0.44-3.47-2.12-4.52c-0.12-0.07-0.18-0.17-0.21-0.27c0.06,0.09,0.12,0.19,0.21,0.27c-0.1-0.22-0.2-0.45-0.3-0.67
		c-0.02-0.1-0.05-0.19-0.12-0.27l0-0.01c0.73-1.24,1.86-2.11,2.86-3.1c0.06,0.01,0.13,0.02,0.19,0.03c2.25-3.57,7.5-4.58,11.72-4.96
		c1-0.33,1.99-0.71,3.06-0.62c1.66,0.15,3.31,0.35,4.95,0.6c2.03,0.21,3.99,0.57,5.91,1.07c4.69,0.4,9.35,1.71,12.52,5.06
		c0.3,0.06,0.62,0.1,0.96,0.1c0.11,0.08,0.22,0.15,0.33,0.23c0.14,0.07,0.26,0.16,0.37,0.26c0.11,0.35,0.32,0.56,0.62,0.64
		c0.05,0.05,0.11,0.1,0.16,0.16c-0.32,0.26-0.54,0.58-0.55,1.05c-0.96,0.23-1.68,0.8-2.13,1.73c-0.27,0.56-0.63,1.07-1.16,1.41
		c-1.04,0.66-1.6,1.67-1.91,2.8c-0.29,1.08-0.84,1.74-1.99,1.94c-0.78,0.14-1.36,0.69-1.82,1.34c-0.41,0.35-0.6,0.8-0.63,1.33
		c-0.05,0.14-0.09,0.27-0.13,0.41c-0.08,0.07-0.14,0.16-0.18,0.26c-0.13,0.2-0.27,0.39-0.41,0.59c0.1-0.06,0.16-0.15,0.23-0.22
		c-0.05,0.09-0.12,0.17-0.23,0.22h0.01c-0.15,0.16-0.33,0.29-0.51,0.4l0.01-0.01c-0.42-0.06-0.82-0.04-1.18,0.17
		c-0.08,0.03-0.16,0.07-0.22,0.15c-0.06,0.12-0.1,0.24-0.11,0.37v0c0,0.01,0,0.02,0,0.03c-0.15,0.13-0.29,0.26-0.43,0.4
		c-0.52,0.65-1.24,1.28-1.09,2.17c0.24,1.5,0.95,2.86,1.62,4.21c0.54,1.1,1.83,0.91,2.81,1.23c0,0,0,0,0,0
		c-0.04,0.33-0.18,0.61-0.46,0.8c-3.11,0.01-6.22,0.03-9.33,0.04l-2.48,1.02l-0.02,0c-0.18,0.11-0.36,0.24-0.55,0.34
		c-0.16,0.17-0.35,0.28-0.56,0.38c-0.12,0.01-0.25,0-0.37-0.01c-1.23-0.23-1.99,0.37-2.46,1.43c-0.27,0.61-0.34,1.31-0.87,1.79
		c-0.24,0.65-0.54,1.28-0.71,1.95c-0.27,1.1-0.19,2.25,0.71,3c1.82,1.51,3.34,3.41,5.56,4.4c1.22,0.55,1.73,1.53,2.2,2.76
		c1.19,3.18,1.46,6.56,2.44,9.79c1.23,4.05,4.38,5.07,7.71,2.28l0.01,0c0.17-0.13,0.34-0.26,0.52-0.38
		c1.45-1.28,2.41-2.87,3.14-4.64c0.38-0.9,0.81-1.78,1.22-2.68c0.04-0.32,0.07-0.64,0.11-0.96c0.72-1.36,1.34-2.76,1.82-4.23
		c0.52-1.59,1.06-3.35,2.03-4.54c1.32-1.64,1.28-2.97,0.55-4.62c-0.14-1.07-0.74-1.85-1.57-2.49v0v0c-0.12-0.81,0.32-1.58-0.04-2.46
		c-0.01-0.02-0.01-0.04-0.01-0.05c0.26-0.01,0.51,0.02,0.75,0.12c1.05,1.17,2.03,2.32,3.84,2.51c0.98,0.1,1.91,0.8,2.65,1.64
		c0.85,0.96,1.91,1.56,3.22,0.72c1.14-0.7,2.14-1.68,3.64-1.63c0.59,0.02,0.94-0.29,1.2-0.72c0.07,0.09,0.16,0.16,0.26,0.22
		c-0.08,0.1-0.17,0.19-0.25,0.3c-0.23,0.6-0.1,1.22-0.13,1.83C949.71,336.82,949.37,341.21,946.54,344.9z"/>
	<path class="st0" d="M903.96,358.15c0-0.01,0-0.02,0-0.03c0.01,0,0.01,0,0.02,0C903.97,358.13,903.96,358.14,903.96,358.15z"/>
	<path class="st0" d="M886.52,315.24c0.01-0.02,0.03-0.03,0.04-0.05c0.01,0.01,0.02,0.02,0.02,0.02
		C886.56,315.23,886.54,315.23,886.52,315.24z"/>
	<path class="st0" d="M911.17,332.01c-0.05-0.01-0.1-0.01-0.15-0.02c0.11-0.07,0.22-0.14,0.32-0.22
		C911.29,331.85,911.24,331.93,911.17,332.01z"/>
	<path class="st0" d="M909.51,374.84c-0.01,0-0.01,0.01-0.02,0.01c0-0.01,0.01-0.03,0.01-0.04
		C909.51,374.82,909.51,374.83,909.51,374.84z"/>
	<polygon class="st0" points="913.34,326.72 913.34,326.72 913.35,326.72 	"/>
	<path class="st0" d="M916.65,324.02c0.12-0.08,0.24-0.16,0.36-0.23c-0.08-0.11-0.14-0.28-0.25-0.33c-0.26-0.1-0.44,0.04-0.41,0.31
		C916.34,323.86,916.54,323.94,916.65,324.02z"/>
</g>
<path class="st0" d="M595.11,940.8c0.16,1.1-0.35,1.32-1.15,1.4c-3.4,0.36-6.77,1.01-10.23,0.84c-1.58-0.08-3.16,0.2-4.75,0.29
	c-0.76,0.04-1.52,0-2.41,0c0-0.51-0.09-0.91,0.03-1.24c0.6-1.63,1.15-3.28,1.91-4.84c1.29-2.65,2.73-5.22,4.1-7.83
	c0.13-0.25,0.35-0.55,0.31-0.8c-0.19-1.13,0.55-1.69,1.32-2.19c1.69-1.11,3.46-2.11,5.12-3.27c3.77-2.65,7.85-4.73,11.84-7
	c3.23-1.83,6.45-3.7,9.7-5.5c1.27-0.7,2.62-1.24,3.91-1.88c1.81-0.9,3.6-1.85,5.42-2.75c1.69-0.83,3.42-1.58,5.09-2.43
	c2.92-1.49,5.82-3.04,8.73-4.55c2.25-1.17,4.31-2.69,6.88-3.27c0.99-0.22,1.89-0.93,2.77-1.49c1.94-1.26,3.86-2.49,6.12-3.15
	c1.09-0.31,2.07-1,3.1-1.51c0.25-0.13,0.49-0.3,0.76-0.39c2.18-0.75,2.16-0.72,4.09,0.63c0.86,0.6,1.91,0.96,2.68,1.65
	c0.88,0.8,1.68,1.75,2.27,2.77c0.91,1.59,1.59,3.3,1.85,5.15c0.27,1.97-0.17,3.69-1.42,5.28c-1.38,1.76-3.17,2.94-5.13,3.9
	c-1.61,0.78-3.21,1.56-4.82,2.34c-0.17,0.09-0.37,0.16-0.49,0.3c-1.37,1.55-3.37,1.99-5.12,2.89c-1.58,0.82-3.21,1.56-4.77,2.42
	c-0.55,0.31-0.93,0.92-1.42,1.36c-0.49,0.44-0.97,0.94-1.55,1.21c-1.39,0.66-2.86,1.19-4.26,1.82c-1.45,0.65-2.88,1.34-4.3,2.05
	c-1.99,0.99-3.94,2.03-5.93,3.02c-3.46,1.71-6.96,3.35-10.4,5.1c-5.24,2.68-10.45,5.43-15.66,8.16c-0.6,0.31-1.15,0.71-1.71,1.09
	C596.92,940.87,596.2,941.21,595.11,940.8z M602.58,928.68l-0.03-0.03c-0.12,0.28-0.23,0.55-0.46,1.11
	c2.18-1.02,4.08-1.85,5.93-2.79c3.22-1.64,6.53-3.11,9.35-5.44c0.26-0.21,0.57-0.35,0.88-0.5c1.43-0.7,2.85-1.41,4.29-2.1
	c3.44-1.65,6.9-3.25,10.33-4.94c1.77-0.87,3.48-1.87,5.23-2.81c0.52-0.28,0.88-0.68,0.75-1.27c-0.41-1.85-0.99-3.62-2.44-4.93
	c-1.14,0.51-1.12,0.52-1.45,1.61c-0.09,0.29-0.31,0.69-0.55,0.75c-1.83,0.51-3.21,2.14-5.26,2.07c-0.09,0-0.19,0.05-0.27,0.1
	c-1.75,1.14-4.19,1.02-5.41,3.2c-0.35,0.62-1.48,0.81-2.25,1.2c0.07-0.2,0.14-0.39,0.33-0.94c-0.73,0.43-1.15,0.67-1.56,0.92
	c0.05,0.1,0.09,0.19,0.14,0.29c0.38-0.1,0.76-0.2,1.14-0.3c-0.73,0.45-1.41,1.04-2.2,1.33c-4.74,1.72-9.28,3.83-13.53,6.53
	c-0.32,0.21-0.66,0.38-1.01,0.55c-2.4,1.14-4.81,2.23-7.19,3.4c-1.47,0.73-2.91,1.52-4.34,2.33c-0.78,0.44-1.51,0.98-2.45,1.6
	c0.65,0.68,1.16,1.23,1.69,1.75c2.35,2.29,2.35,2.27,5.18,0.47C599.09,930.75,600.84,929.73,602.58,928.68z M637.17,913.54
	c0.03,0.11,0.07,0.23,0.1,0.34c-1.23,0.51-2.44,1.06-3.69,1.52c-0.85,0.32-1.77,0.43-2.6,0.79c-1.77,0.77-3.49,1.63-5.23,2.46
	c-0.39,0.19-0.78,0.38-1.15,0.6c-0.78,0.48-1.51,1.03-2.31,1.45c-1.11,0.58-2.29,1.03-3.4,1.61c-2.91,1.51-5.78,3.09-8.71,4.56
	c-3.66,1.84-7.38,3.57-11.05,5.4c-1.2,0.6-2.35,1.33-3.47,2.07c-0.3,0.2-0.62,0.69-0.6,1.02c0.06,1.29,0.26,2.57,0.41,3.84
	c0.83,0.45,1.51-0.02,2.19-0.36c4.84-2.41,9.65-4.87,14.5-7.25c4.63-2.28,9.3-4.49,13.94-6.75c3.86-1.88,7.85-3.49,11.46-5.86
	c0.97-0.64,1.67-1.37,1.92-2.59c0.38,0.71,0.8,0.63,1.01,0.13c0.56-1.33,0.7-2.68-0.18-4.04c-0.44,0.16-0.82,0.3-1.2,0.44
	c-0.14-0.35-0.25-0.65-0.43-1.11c-0.9,0.49-1.71,0.94-2.52,1.38c0.03,0.08,0.06,0.17,0.08,0.25
	C636.55,913.48,636.86,913.51,637.17,913.54z M631.86,901.66c0.34,1.73-0.64,2.1-1.68,2.51c-1.8,0.7-3.58,1.44-5.33,2.24
	c-2.54,1.16-5.04,2.4-7.56,3.58c-0.74,0.35-1.53,0.58-2.26,0.95c-1.15,0.58-2.29,1.19-3.4,1.84c-0.62,0.36-1.17,0.83-1.76,1.23
	c-1.15,0.78-2.26,1.65-3.48,2.3c-2.72,1.45-5.55,2.7-8.25,4.18c-3.51,1.92-6.94,3.99-10.4,6c-0.31,0.18-0.57,0.44-1.07,0.84
	c1.42,0.61,2.46,1.59,3.93,0.74c0.54-0.31,1.16-0.47,1.72-0.76c3.72-1.95,7.42-3.93,11.14-5.88c1.71-0.89,3.43-1.77,5.16-2.6
	c1.65-0.79,3.37-1.42,4.99-2.27c2.69-1.41,5.31-2.94,7.96-4.43c0.41-0.23,1-0.47,1.14-0.84c0.41-1.1,1.35-1.46,2.25-1.88
	c2.27-1.06,4.59-2.02,6.85-3.11c1.37-0.66,2.66-1.47,4.1-2.28C634.91,902.52,633.5,902.26,631.86,901.66z M585.18,941.01
	c0.02,0,0.26,0.1,0.48,0.07c2.44-0.32,4.87-0.66,7.3-1.01c0.49-0.07,0.77-0.37,0.82-0.86c0.13-1.07,0.26-2.21-0.34-3.11
	c-0.58-0.87-0.88-1.79-1.26-2.73c-0.6-1.47-1.68-2.71-3.16-3.47c-1.19-0.6-2.42-1.14-3.82-1.79c-0.44,0.54-1.07,1.1-1.41,1.81
	c-0.83,1.69-1.52,3.44-2.26,5.17c-0.25,0.59-0.15,1.03,0.49,1.27C584.08,937.14,584.31,939.09,585.18,941.01z M644.12,914.83
	c0.79-0.07,1.37-0.3,1.51-1.01c0.19-0.93,0.43-1.91,0.33-2.83c-0.17-1.53-0.54-3.04-0.94-4.52c-0.66-2.44-2.05-4.44-3.88-6.16
	c-0.73-0.69-1.53-0.82-2.69-0.66C642.02,904.21,644.41,908.98,644.12,914.83z M642.34,912.34c0.32-0.09,0.62-0.17,1.04-0.29
	c-0.88-4.53-2.27-8.63-6.37-11.25c-0.78-0.5-1.42-0.35-2.12,0.12c3.64,4.41,5.54,6.37,6.96,14.51
	C642.11,914.43,642.62,913.48,642.34,912.34z M650.22,900.84c0.55,0.03,0.97,0.04,1.56,0.07c0.65-2.43,0.05-4.95,0.56-7.6
	c1.02,1.39-0.15,2.79,0.74,3.99c0.15-1,0.29-2.01,0.44-3.01c0.17,0.71,0.23,1.38,0.2,2.06c-0.03,0.93,0.2,1.92-0.61,2.72
	c-0.18,0.18-0.05,0.67-0.08,1.3c0.82-0.46,1.38-0.77,1.91-1.06c-0.69-2.49,0.35-4.95-0.51-7.23c-1.22-0.06-2.37-0.12-3.24-0.16
	c-0.84,0.48-1.46,0.83-2.16,1.24C651.08,895.35,650.76,898,650.22,900.84z M647.39,899.56c1.07-1.89,1.37-5.15,0.67-6.13
	c-0.44,0.17-0.86,0.32-1.27,0.51c-0.39,0.18-0.79,0.36-1.13,0.61c-0.52,0.38-1.1,2.11-0.76,2.49
	C645.67,897.93,646.54,898.71,647.39,899.56z M643.48,899.51c0.91,1.71,1.94,3.3,2.62,5.02c0.68,1.71,1.01,3.56,1.5,5.35
	c0.19-0.77,0.18-1.56,0.21-2.34c0.1-3.11-0.87-5.78-3.16-7.94C644.29,899.27,643.96,899.07,643.48,899.51z M658.9,892.04
	c-0.49,1.15-0.04,3.88,0.7,4.54c0.04,0.03,0.07,0.07,0.11,0.09c0.48,0.33,0.94,0.15,1.09-0.43
	C661.2,894.68,660.5,893.06,658.9,892.04z M657.79,891.48c-0.13-0.02-0.25-0.05-0.38-0.07c-0.2,0.47-0.5,0.91-0.57,1.39
	c-0.14,0.95-0.18,1.92-0.2,2.88c-0.02,0.88,0.03,1.77,0.06,2.97c0.36-0.62,0.77-1.02,0.82-1.47c0.21-1.72,0.32-3.46,0.44-5.19
	C657.97,891.83,657.85,891.65,657.79,891.48z M650.11,896.93c-1.35,1.67-1.59,2.77-0.85,4.13
	C649.8,899.63,649.99,898.29,650.11,896.93z M655.81,897.58c0.46-1.86,0.35-3.53-0.32-4.26
	C655.46,894.64,655.12,895.96,655.81,897.58z M627.52,903.54c0.05,0.13,0.09,0.26,0.13,0.39c1.06-0.42,2.11-0.83,3.17-1.25
	c-0.05-0.13-0.1-0.25-0.14-0.38C629.57,902.53,628.49,902.87,627.52,903.54z M649.06,896.6c0.32-0.7,0.41-1.39-0.02-2.25
	C648.52,895.24,648.77,895.92,649.06,896.6z M639.45,908.78c-0.26,1.22-0.26,1.22,0.6,1.7C639.8,909.79,639.62,909.28,639.45,908.78
	z M656.72,907.46c0.88,0,1.08-0.24,0.98-0.7c-0.02-0.09-0.29-0.22-0.3-0.21C657.21,906.77,657.05,907,656.72,907.46z M658.58,896.2
	c-0.32,0.8-0.32,0.8,0.26,1.31C658.75,897.03,658.68,896.72,658.58,896.2z M661.6,895.21c-0.01,0.43-0.01,0.73-0.02,1.02
	c0.12,0,0.25,0,0.37,0.01C662.19,895.95,662.35,895.66,661.6,895.21z M591.35,941.79c-0.01-0.13-0.01-0.27-0.02-0.4
	c-0.38,0.03-0.75,0.06-1.13,0.09c0,0.1,0.01,0.21,0.01,0.31C590.59,941.79,590.97,941.79,591.35,941.79z M657.85,900.8
	c0.08,0.08,0.16,0.16,0.25,0.24c0.05-0.08,0.15-0.16,0.14-0.22c-0.03-0.11-0.13-0.19-0.2-0.29
	C657.98,900.61,657.93,900.69,657.85,900.8z M661.97,903.49c0.05-0.14,0.11-0.25,0.11-0.37c0-0.05-0.11-0.11-0.17-0.17
	c-0.06,0.11-0.13,0.22-0.15,0.34C661.75,903.33,661.87,903.4,661.97,903.49z M654.84,890.68c-0.14-0.13-0.22-0.22-0.32-0.26
	c-0.05-0.02-0.2,0.08-0.19,0.12c0.02,0.11,0.08,0.21,0.13,0.32C654.56,890.81,654.66,890.76,654.84,890.68z M659.19,905.45
	c-0.03-0.12-0.06-0.21-0.08-0.29c-0.12,0.04-0.27,0.05-0.34,0.13c-0.04,0.04,0.06,0.21,0.09,0.32
	C658.97,905.55,659.08,905.5,659.19,905.45z"/>
<path class="st0" d="M917.56,888.94c-4.41-6.26-14.5-10.55-21.81-11.53c-3.39-0.45-7.6,0.33-10.75-0.56c-1.5-0.42-2.59-2.31-4.06-3
	c-2.29-1.07-4.63-0.8-7.02-1.33c-4.29-0.96-5.38-0.86-5.98,3.71c-0.49,3.73-2.47,3.74-5.03,6.09c-5.65,5.19-11.62,10.85-15.33,17.69
	c-4.07,7.51-4.49,16.27-4.65,24.62c-0.09,4.36-0.22,8.77,0.78,13.05c0.4,1.7-5.73,8.69-7.76,9.95c-3.9,2.42-6.32,1.33-5.9,6.59
	c0.12,1.53,0.12,3.11-0.27,4.61c1.51,0.67,3.41,0.93,5.01,1.37c8.63,2.38,17.26,4.28,25.97,6.37c7.76,1.87,15.46-0.22,22.32-3.95
	c3.17-1.72,4.47-4.18,2.3-7.44c-2.73-4.1-7.99-4.14-12.4-5c-2.6-0.5-9.07-0.24-10.08-3.42c-1.08-3.4-4.02-5.44-7.3-6.53
	c-5.81-1.92-2.95-20.46-2.18-24.95c1.33-7.84,5.19-14.85,10.99-20.27c2.18-2.04,6.66-6.89,6.29-1.08c-0.3,4.69-1.27,7.92,0.79,12.4
	c1.36,2.97,2.55,6.35,4.14,9.18c1.49,2.67,6.31,1.85,8.7,1.43c9.13-1.62,18.09-7.19,24.95-13.2
	C912.5,900.93,921.34,894.29,917.56,888.94C916.64,887.63,918.36,890.07,917.56,888.94z M859.53,895.29
	c-1.61-0.28-2.25-0.78-1.98-2.15C858.74,893.33,858.93,894.19,859.53,895.29z M844.94,932.95c1.52,0.33,2.91,0.62,4.24,0.91
	C847.44,934.36,846.45,934.17,844.94,932.95z M845.73,937.91c-0.63-0.77-0.63-0.77-0.59-1.97
	C845.77,936.61,845.76,936.61,845.73,937.91z M845.27,930.26c1.32,0.32,2.64,0.64,4.03,0.98
	C848.16,932.55,846.96,932.35,845.27,930.26z M849.84,935.78c0.01,1.22-2,0.86-2.72,0.54c-0.01-0.2-0.02-0.41-0.04-0.61
	C848.01,935.74,848.93,935.76,849.84,935.78C849.84,935.94,848.93,935.76,849.84,935.78z M852.98,905.62
	c-1.75-0.26-3.25-0.78-3.79-2.66c1.88,0.47,3.75,0.93,5.63,1.4C854.59,905.4,853.98,905.82,852.98,905.62
	C851.4,905.39,853.81,905.74,852.98,905.62z M852.4,907.01c-1.62,1.01-2.73,0.77-4.53-1.06
	C849.75,905.66,850.95,906.55,852.4,907.01z M853.13,909.04c-2.43,1.87-4.02,1.75-5.97-0.34
	C849.19,908.81,850.93,908.91,853.13,909.04z M850.72,914.49l-3.18-0.47C849.07,913.5,849.07,913.5,850.72,914.49z M848.61,911.58
	c0.86,0.05,1.72,0.09,2.58,0.13C850.6,912.47,848.59,913,848.61,911.58C849.47,911.63,848.61,911.76,848.61,911.58z M847.43,915.37
	c0.75,0.24,1.49,0.48,2.24,0.73C849.16,917.49,846.95,916.75,847.43,915.37C848.17,915.61,847.36,915.56,847.43,915.37z
	 M849.82,918.39c2.46,0.99-5.05,3.19-3.47-0.79C847.59,917.5,848.74,917.76,849.82,918.39
	C850.05,918.49,848.71,917.95,849.82,918.39z M849.77,922.36c-2.59,0-3.57-0.45-4.58-2.05
	C847.03,920.64,848.32,921.68,849.77,922.36z M844.96,923.57c1.32-1.06,3.62,1.08,4.58,1.66
	C848.27,926.06,842.8,925.29,844.96,923.57C845.3,923.3,844.4,924.01,844.96,923.57z M844.63,927.55
	C853.11,927.44,847.23,931.04,844.63,927.55C846.22,927.53,845.8,929.13,844.63,927.55z M838.75,947.57
	c1.94-3.88,2.4-4.15,6.33-2.59c2.46,0.98,5.37,2.36,6.97,4.56c2.87,3.95-2.22,3.36-4.83,2.76
	C845.18,951.84,837.13,950.8,838.75,947.57z M881.91,956.71c0.06-0.88,0.12-1.76,0.18-2.64c0.43,0.64,5.66,4.9,2.1,5.86
	c-4.05,1.07-7.57,3.74-11.94,4.62c-11.99,2.41-23.84-3.68-35.36-6.27c-4.84-1.09-6.88-4.09-0.75-3.52
	c0.08-0.34,13.58,3.23,15.27,3.73c5.56,1.64,10.78,3.28,16.66,3.32C869.41,961.82,884.88,959.52,881.91,956.71
	C881.96,956,882,956.79,881.91,956.71z M864.35,950.14c2.19-0.87,5.96,1.27,8.11,1.75c1.91,0.43,5.83,0.07,7.38,1.53
	c5.51,2.68-9.14,6.65-10.84,6.72c-6.55,0.27-12.62-1.94-18.82-3.71c-5.75-1.64-11.65-2.89-17.03-4.92
	c1.69-4.18,8.55,0.89,11.03,1.44c2.68,0.6,6.55,2.15,9.29,1.54C857.16,953.66,860.81,951.54,864.35,950.14
	C864.85,949.94,861.12,951.42,864.35,950.14z M855.45,943.95c2.03-3.35,7.51,2.8,5.53,5.28c-1.22,1.51-4.16,2.03-5.87,2.7
	c-1.3-2.23-2.6-4.04-4.3-5.98C852.48,945.62,854.45,945.59,855.45,943.95z M853.92,942.13c-1.62,1.3-3.1,1.51-5.16,0.87
	C850.53,942.15,851.8,940.99,853.92,942.13z M850.04,938.69c-0.57,0.04-1.15,0.07-1.72,0.11c-0.02-0.16-0.04-0.32-0.06-0.48
	C849.48,937.6,850.07,937.72,850.04,938.69C849.47,938.72,850.01,938.49,850.04,938.69z M852.04,902.27
	c-1.17-0.76-1.56-1.48-0.95-2.8c1.73,0.86,3.46,1.73,5.19,2.59C855.18,903.44,853.34,903.1,852.04,902.27
	C850.7,901.39,853.64,903.3,852.04,902.27z M852.56,897.44c1.54-0.24,4.03,1.83,5.36,2.58
	C855.48,900.41,853.36,900.02,852.56,897.44C852.77,897.41,853.28,899.76,852.56,897.44z M858,898.28
	c-0.89-0.11-5.13-1.92-4.07-3.48c1.09-1.6,5.2,2.4,5.99,3.01C859.31,898.06,858.67,898.22,858,898.28
	C856.31,898.06,858.48,898.34,858,898.28z M860.35,892.35c0.6,0.62,1.21,1.23,1.82,1.85C860.71,894.4,860.49,893.42,860.35,892.35z
	 M863.18,892.65c-1.28-0.43-1.77-1.75-1.99-2.96c1.72-0.14,2.54,1.86,4.32,1.67C865.05,892.49,864.28,892.92,863.18,892.65
	C862.13,892.29,864.05,892.94,863.18,892.65z M862.98,885.37c0.96,1.1,1.97,2.26,3.06,3.51
	C863.45,889.7,862.38,888.22,862.98,885.37z M865.29,885.17c-0.62-1.46,0.06-2.07,1.32-2.82c-0.14,2.04,1.05,3.64,2.24,5.15
	C867.01,888.07,865.93,886.68,865.29,885.17C864.72,883.83,866.16,887.22,865.29,885.17z M869.95,886.3
	c-5.4-5.55,2.29-12.8,8.27-11.72c1.51,0.27,2.88,0.98,3.83,2.21c1.71,2.23-1.59,2.9-3.23,4.07
	C876.63,882.42,872.63,889.06,869.95,886.3C867.45,883.73,871.27,887.65,869.95,886.3z M876.57,910.34
	c-2.47-0.7-4.01-7.72-4.03-9.75c-0.06-4.56,0.38-10.5,4.09-13.72c2.66-2.31,5.04-5.19,8.5-6.29c4.57-1.45,10.56-0.93,15.1,0.4
	c1.71,0.5,11.32,3.71,8.89,5.85c-2.91,2.56-7.57,4.01-10.9,6.04c-4.27,2.6-8.71,5.43-12.62,8.54
	C883.2,903.31,879.23,909.62,876.57,910.34C875.47,910.03,876.77,910.29,876.57,910.34z M898.22,904.87
	c-2.23,0.96-6.94,2.27-8.83-0.09c-3-3.75,2.46-5.58,5.29-7.55c2.99-2.08,7.1-5.11,7.95,0.78
	C903.05,900.94,900.79,903.76,898.22,904.87C896.83,905.46,901.6,903.41,898.22,904.87z M882.28,915.55
	c-9.05,1.99-0.35-7.77,1.55-9.99c1.75-2.05,5.59,2.11,7.73,2.68c2.88,0.77,5.75,0.5,8.66,0.12
	C894.93,912.31,888.63,914.15,882.28,915.55C881.32,915.76,888.5,914.18,882.28,915.55z M911.92,899.21
	c-1.26,1.27-9.3,9.3-10.68,8.18c2.63-2.58,4.01-5,3.87-8.76c-0.13-3.58-3.64-5.68,0.2-7.38c1.8-0.8,8.22-3.87,10.02-2.04
	C917.63,891.54,913.51,897.6,911.92,899.21C909.02,902.13,914.03,897.07,911.92,899.21z"/>
<path class="st1" d="M356.53,557.09c-17.4-8.55-35.19-16.34-53.33-23.19c-0.63-0.23-1.26-0.41-1.9-0.56
	c-5.26,1.71-10.55,3.43-15.9,4.77c-3.74,0.93-7.57,2.29-11.43,2.6c-8.55,2.41-17.06,4.97-25.45,7.93c2.82,2.28,8.19,1.25,9.5,3.86
	c0.5-0.11,1.12,0.23,1.02,0.9c-0.57,4.02-0.87,8.32-2.41,12.13c-0.34,0.83-0.72,1.63-1.12,2.41c-0.26,0.82-0.47,1.65-0.59,2.51
	c-0.66,4.83-2,6.82-5.28,10.34c-0.13,0.14-0.28,0.2-0.43,0.24c-2.84,6.3-4.02,12.34-0.88,18.83c4.6-3.62,7.31-9.33,8.71-14.7
	c0.98-3.74-0.98-6.72-0.55-10.61c0.38-3.43,2.55-7.39,3.39-10.93c2-8.39,5.47-14.86,15.28-6.95c4.02,3.24-4.51,18.06-1.46,23.97
	c3,5.81,14.03,6.72,19.51,7.77c7.27,1.39,23.03,6.98,29.44,1.4c4.7-4.09,2.62-18.37,8.13-19.85c10.11-2.71,20.16-5.52,30.14-8.71
	C360.2,558.82,358.59,558.1,356.53,557.09z M314.85,588.05c-3.8,0.05-8.31-0.13-11.97-1.23c-2.67,0.62-5.62-0.34-8.15-1.5
	c-1.43-0.26-2.85-0.54-4.19-0.85c-0.07,0.01-0.14,0.03-0.23,0.02c-1.69-0.15-4.34-0.51-6.76-1.21c-2.97-0.69-5.71-1.75-5.45-3.51
	c0.27-1.8,2.88-1.94,4.77-2.1c0.44-0.07,0.89-0.12,1.37-0.17c0.2-0.02,0.36,0.03,0.5,0.1c1.75-0.01,3.49,0.2,4.72,0.27
	c3.53,0.22,6.93,0.76,10.29,1.49c7.61,1.05,14.97,2.9,17.01,5.38C318.18,586.16,317.06,588.02,314.85,588.05z M320.37,579.95
	c-0.18,0.39-0.68,0.63-1.09,0.42c-0.89-0.46-1.74-1.07-2.6-1.67c-1.98-0.55-3.95-1.84-5.79-2.36c-2.78-0.78-5.55-1.53-8.35-2.24
	c-10.1-0.8-21.22-1.67-23.76-1.33c0.11-1.82,0.36-3.65,0.75-5.42c-0.14-0.15-0.22-0.37-0.18-0.64c0.08-0.62,0.2-1.23,0.33-1.85
	c0.26-1.41,0.54-2.81,0.73-4.22c0.15-1.16,0.23-2.91,1.09-3.83c1.99-2.13,5.86-2.71,8.62-3.21c0.27-0.05,0.48,0.03,0.64,0.17
	c1.18-0.27,2.45-0.39,3.84-0.32c7.61,0.36,17.13,2.72,24.09,5.82c3.25,1.45,4.39,3.31,4.47,5.49c0.07,0.1,0.12,0.22,0.14,0.36
	C323.95,570.17,322.54,575.42,320.37,579.95z M329.5,565.95c-4.06-11.18-15.83-12.51-27.08-15.29c-6.8-1.68-13.08-1.05-19.96,0.73
	c-1.44,0.37-10.71,1.32-15.31-0.23c-2.41-0.33-4.82-1.01-7.06-1.58c-0.51-0.13-0.87-0.62-0.63-1.15c0.74-1.69,3.81-2.14,5.35-2.62
	c2.4-0.76,4.81-1.35,7.25-1.86c4.07-1.16,9.36-2.16,14.66-2.9c0.9-0.76,1.92-1.17,3.19-1.48c3.45-0.84,6.77-2.07,10.2-2.96
	c2.97-0.78,5.36,0.71,7.68,2.36c0.05,0,0.09-0.01,0.14,0c6.9,1.36,13.29,5.68,19.51,8.98c8.65,3.57,17.24,7.27,25.71,11.28
	C345.26,561.47,337.38,563.71,329.5,565.95z"/>
<path class="st0" d="M366.15,443.39c-8.81,4.08-19.82,2.99-29.1,3.67c-12.37,0.9-24.24-0.77-36.44-1.49
	c-1.37-0.08-16.03-1.65-11.24-5.67c2.95-2.47,9.39-4.73,13.12-6.13c13.59-5.09,27.19-10.61,41.73-11.49
	c9.94-0.61,26.94-1.43,33.61,7.32c2.94,3.86,0.11,7.75-3.03,10.46c-4.58,3.95-4.09,7.49-10.45,9.67c-5.93,2.03-11.65,2.74-17.8,3.34
	c-1.41,0.13-15.1,2.21-10.54-2.06C339,448.19,367.83,450.05,366.15,443.39C365.67,443.62,366.27,443.86,366.15,443.39z
	 M304.62,442.89c9.52,1.56,19.46,2.05,29.15,0.99c5.32-0.59,24.87,0.37,19.04-10.79c-2.73-5.21-21.29-1.09-26.42-0.5
	c-4.79,0.55-9.56,1.5-14.12,3.21C307.1,437.73,305.03,437.15,304.62,442.89C306.38,443.18,304.75,440.99,304.62,442.89z
	 M343.92,426.17c-0.2-1.42-3.61-0.56-4.75-0.52C339.2,427.44,342.58,426.26,343.92,426.17
	C343.88,425.95,342.34,426.28,343.92,426.17z"/>
<path class="st0" d="M937.48,504.39c-6.02,8.11-16.83,12.66-25.08,17.92c-11.01,7.02-22.92,11.46-34.64,16.94
	c-1.32,0.61-15.77,6.54-13.44,0.5c1.43-3.72,6.21-9,8.93-12.14c9.92-11.43,19.64-23.26,32.67-31.35
	c8.91-5.53,24.26-14.81,35.09-10.23c4.78,2.02,4.21,6.96,2.73,11c-2.16,5.88,0.17,8.84-4.58,14c-4.43,4.81-9.36,8.33-14.76,11.95
	c-1.23,0.83-12.85,9.58-10.88,3.43C914.81,522.36,942.56,509.58,937.48,504.39C937.15,504.84,937.84,504.76,937.48,504.39z
	 M880.07,534.82c9.66-3.36,19.16-7.91,27.6-13.73c4.64-3.2,23.3-12.15,11.97-19.33c-5.29-3.35-20.35,9.69-24.81,12.8
	c-4.15,2.9-8.08,6.15-11.41,9.99C879.63,528.89,877.4,529.41,880.07,534.82C881.86,534.19,879.18,533.02,880.07,534.82z
	 M907.7,499.95c-0.94-1.19-3.65,1.3-4.69,1.91C904,503.47,906.51,500.71,907.7,499.95C907.55,499.76,906.29,500.84,907.7,499.95z"/>
<path class="st0" d="M198.72,215.42c-6.35,0.27-14.7,5.38-20.14,8.74c-3.55,2.19-7.53,5.56-11.58,6.72
	c-4.24,1.22-8.4-1.44-12.94-0.51c-7.17,1.48-12.4,10.62-19.76,10.35c-7.65-0.29-11.45-6.99-15.74-12.94
	c5.89-3.68,11.01-7.69,17.72-9.88c2.13-0.69,4.59-1.65,6.78-0.53c2.02,1.03,7,4.5,5.63-1.61c-1.63-7.26-16.61,0.15-19.99,1.86
	c-7.34,3.73-17.06,7.05-23.69,11.74c-8.62,6.09-14.14,24.41-1.73,29.93c5.64,2.51,12.16,0.6,16.78-3.1
	c4.08-3.27,5.44-12.2,10.72-11.9c6.6,0.38,12.29-4.16,11.95,3.84c-0.23,5.5,3.81,10.12,8.76,12c5.88,2.23,8.82-0.71,14.05-2.37
	c4.88-1.56,4.13-9.01,6.74-12.07c-0.04-6.5-3.26-10.7,3.29-13.96c3.65-1.82,31.69-21.12,22.84-5.11
	C199.65,229.12,209.42,214.96,198.72,215.42C197.6,215.47,201.94,215.28,198.72,215.42z M117.53,252.5
	c-8.76,9.72-21.86-3.98-15.52-14.06C109.76,226.13,129.37,239.35,117.53,252.5C116.49,253.64,120.4,249.31,117.53,252.5z
	 M167.48,248.49c-4.87,14.8-25.52,7.48-21-7.34C150.72,227.26,172.32,233.81,167.48,248.49
	C165.88,253.35,168.02,246.85,167.48,248.49z"/>
<path class="st0" d="M645.43,671.47c0.76-6.61,2.56-13.09,3.44-19.67c0.66-4.98-2.5-3.94-5.28-3.55c-4.66,0.65-9.35,1.73-14.02,2.8
	c-2.87,0.66-9.21,3.26-4.15,6.72c6.89,4.71,4.63,11.74-3.25,16.41c-8.9,5.28-17.72,10.41-27.17,11.61
	c-10.1,1.28-4.59,14.39-1.02,20.45c1.48,2.51,5.76,11.33,8.27,11.55c2.77,0.24,10.33-8.67,12.74-11.06
	c6.88-6.82,13.71-16.14,17.78-26.1c0.79-1.93,3.58-9.27,5.66-7.6C641.47,675.44,643.91,679.01,645.43,671.47
	C646.06,665.98,645.36,671.84,645.43,671.47z M641.62,670.96c-3.21-2.07-3.43-6.76-6.68-1c-2.28,4.04-4.01,8.5-6.27,12.57
	c-4.41,7.92-9.65,13.57-15.15,19.95c-5.81,6.73-11.11,11.37-14.73,1.95c-1.45-3.78-3.05-7.43-4.55-11.17
	c-1.41-3.51,9.17-5.47,11.15-6.2c6.97-2.56,13.2-6.58,19.49-12.02c6.56-5.67,11.61-9.19,5.86-16.52c-5.1-6.51,11.45-7.17,14.56-6.81
	C648.14,652.05,644.64,672.91,641.62,670.96C639.86,669.83,642.56,671.57,641.62,670.96z"/>
<path class="st0" d="M739.02,725.39c5.53-1.65,12.9-15.8,15.47-20.86c2.42-4.78,2.31-10.64,2.94-15.91c0.35-2.93,0.7-5.85,1.07-8.77
	c0.37-2.91-2.1-3.3-3.27-5.38c5.17-2.37,15.88-0.1,20.86,2.46c-1.03,1.48-2.65,1.29-3.54,2.92c-1.45,2.66-1.16,6.67-1.5,9.58
	c-0.62,5.26-3.28,12.85-0.46,17.78c3.37,5.9,5.72,12.56,9.36,18.28c3.08,4.84,8.17,10.02,9.99,15.48
	c3.54,10.58-27.05,3.26-32.19,2.77c-6.35-0.6-15.49-0.51-21.17-3.67C731.43,737.2,737.54,728.93,739.02,725.39
	C741.86,724.54,738.29,727.15,739.02,725.39z M770.29,712.47c1.04-1.5-1.74-4.2-2.51-5.66c-1.54-2.91-1.3-5.5-0.79-8.64
	c1.15-7.12,2.33-13.86,2.39-21.1c-2.85-0.42-7.17-2.69-7.38,1.35c-0.2,3.94-0.47,7.87-0.62,11.81c-0.32,7.98-0.93,12.69-5.9,19.08
	C760.26,711.08,765.31,711.63,770.29,712.47C770.46,712.23,765.45,711.65,770.29,712.47z M771.91,729.59
	c-1.08,0.27-6.25,3.61-2.58,3.15c4.62-0.57,8.32-1.37,12.49,1.41c-0.3-4.54-6.17-6.11-10.21-6.31
	C771.71,728.42,771.81,729,771.91,729.59C770.66,729.9,771.81,729.01,771.91,729.59z M777.57,736.82c-2.33,0.48-4.66,0.96-6.99,1.44
	c2.76,0.72,5.36,1.6,8.25,0.93C778.41,738.39,777.99,737.61,777.57,736.82C774.97,737.35,777.85,737.35,777.57,736.82z
	 M774.45,720.08c-0.58-4.77-3.49-5.03-6.29-2.56C769.34,717.8,773.68,720.35,774.45,720.08
	C774.16,717.74,772.71,720.7,774.45,720.08z M773.99,725.56C779.72,730.07,777.72,723.41,773.99,725.56
	C775.09,726.43,775.43,724.73,773.99,725.56z M764.54,730.65c1.44,1.64,2.43-1.51,3.47-2.26
	C767.04,727.37,765.34,729.93,764.54,730.65C764.72,730.84,765.55,729.73,764.54,730.65z M744.19,727.38
	c-0.69-1.46-1.49-1.19-2.41,0.79C742.4,729.16,743.2,728.9,744.19,727.38C743.96,727.09,743.52,727.79,744.19,727.38z M775.97,722.7
	c-0.69-0.82-1.34-0.9-1.96-0.24C774.46,723.39,775.11,723.47,775.97,722.7C775.28,722.33,775.27,722.98,775.97,722.7z M781.81,741
	c-0.82-0.74-1.41-0.64-1.78,0.3C780.63,741.87,781.23,741.77,781.81,741C781.19,740.74,781.23,741.36,781.81,741z M771.91,725.59
	c0.11-0.86-0.32-1.01-1.27-0.44C770.63,725.82,771.05,725.97,771.91,725.59C771.88,725.38,771.51,725.59,771.91,725.59z
	 M769.8,722.04c-0.47,0.35-0.49,0.65-0.06,0.89C770.59,722.74,770.6,722.44,769.8,722.04C769.7,722.2,770.16,722.37,769.8,722.04z
	 M768.58,720.21c-0.16-0.62-0.5-0.69-1.02-0.2C767.71,720.56,768.05,720.62,768.58,720.21C768.45,719.98,768.31,720.3,768.58,720.21
	z"/>
<path class="st0" d="M311.55,244.19c5.32-1.47,7.55,1.58,12.19,2.76c3.68,0.94,6.53-0.83,9.93,1.91c-0.6,3.19-7.01,1.7-8.61,5.93
	c-2.39,6.33-4.41,12.59-6.11,19.14c-2.03,7.81-5.39,33.84-15.55,36.16c-10.55,2.4-1.4-31.39-0.26-36.54
	c1.34-6.07,3.58-11.92,4.42-18.09c0.88-6.54-0.65-6.63-6.13-9.41c6.84-2.84,12.15,0.62,10.96,7.84c-1.24,7.49-5.35,14.24,3.28,17.15
	c2.04,0.69,5.31-17.92,5.74-19.9C321.71,249.68,313.41,246.15,311.55,244.19C315.62,243.06,312.8,245.52,311.55,244.19z
	 M310.26,289.36c1.28,1.2,2.36-0.88,1.23-1.62C311.09,288.28,310.67,288.82,310.26,289.36
	C310.48,289.56,310.67,288.82,310.26,289.36z"/>
<g>
	<g>
		<path class="st0" d="M88.31,918.58c1.01-0.58,2.02-1.17,3.04-1.73c2.06-1.12,4.13-2.21,6.19-3.34c1.35-0.74,1.63-1.75,1.31-3.31
			c-0.39-1.86-0.44-3.82-0.37-5.72c0.09-2.29,2.65-3.56,4.1-1.86c2.25,2.63,4.49,2.63,7.22,1.31c0.09-0.04,0.2-0.03,0.3-0.05
			c5.44-0.9,6.9-0.18,8.48,5.08c0.52,1.75,0.15,3.81-0.1,5.69c-0.07,0.53-1.11,1.09-1.8,1.35c-1.71,0.64-3.47,1.2-5.25,1.62
			c-1.89,0.44-2.67,1.51-2.83,3.42c-0.1,1.16-0.56,2.39-1.19,3.38c-1.04,1.65-2.29,1.63-3.32,0c-0.65-1.02-1.03-2.2-1.5-3.33
			c-1.43-3.4-2.07-3.71-5.56-2.83c-1.97,0.49-3.95,1-5.95,1.38c-0.82,0.15-1.69,0-2.54-0.01C88.46,919.28,88.38,918.93,88.31,918.58
			z M106.95,915.77c2.16-0.73,3.87-1.12,5.4-1.86c1.15-0.56,2.17-1.49,3.07-2.41c0.92-0.95,0.69-2.19-0.07-3.07
			c-0.52-0.6-1.56-1.23-2.24-1.11c-2.3,0.39-4.54,1.09-6.79,1.74c-0.88,0.25-1.39,0.92-1.08,1.88
			C105.74,912.44,106.3,913.93,106.95,915.77z M105.29,920.5c0.22-0.09,0.44-0.19,0.66-0.28c-0.76-2.99-1.52-5.99-2.3-8.98
			c-0.18-0.68-0.41-1.38-0.78-1.97c-0.25-0.39-0.79-0.59-1.2-0.88c-0.21,0.13-0.43,0.27-0.64,0.4
			C102.78,912.58,103.33,916.79,105.29,920.5z"/>
	</g>
	<g>
		<path class="st0" d="M123.13,935.28c0.56-1.02,1.1-2.06,1.69-3.07c1.17-2.03,2.36-4.05,3.53-6.08c0.76-1.33,0.47-2.34-0.62-3.5
			c-1.3-1.38-2.38-3.02-3.31-4.68c-1.12-1.99,0.4-4.42,2.52-3.73c3.3,1.06,5.21-0.11,6.84-2.66c0.05-0.08,0.15-0.13,0.23-0.2
			c4.16-3.61,5.79-3.77,9.88-0.11c1.36,1.21,2.13,3.17,2.9,4.9c0.22,0.49-0.37,1.51-0.83,2.09c-1.13,1.44-2.32,2.83-3.62,4.12
			c-1.37,1.36-1.49,2.68-0.62,4.4c0.52,1.04,0.77,2.33,0.76,3.5c-0.02,1.95-1.1,2.58-2.83,1.74c-1.08-0.53-2.03-1.34-3.03-2.05
			c-3-2.14-3.7-2.08-6.22,0.5c-1.42,1.46-2.84,2.92-4.35,4.29c-0.61,0.56-1.44,0.89-2.17,1.32
			C123.63,935.8,123.38,935.54,123.13,935.28z M137.54,923.12c1.46-1.75,2.71-2.97,3.62-4.41c0.69-1.08,1.07-2.4,1.35-3.66
			c0.29-1.29-0.56-2.23-1.67-2.58c-0.76-0.24-1.98-0.23-2.49,0.22c-1.75,1.54-3.3,3.31-4.87,5.04c-0.62,0.68-0.7,1.5,0.06,2.16
			C134.76,920.92,136.02,921.89,137.54,923.12z M138.6,928.02c0.14-0.2,0.28-0.39,0.41-0.58c-2.22-2.15-4.43-4.31-6.66-6.45
			c-0.51-0.48-1.07-0.96-1.69-1.26c-0.42-0.2-0.99-0.09-1.48-0.12c-0.12,0.22-0.23,0.45-0.34,0.68
			C132.31,922.59,134.99,925.88,138.6,928.02z"/>
	</g>
</g>
<g>
	<path class="st0" d="M450.76,81.13c-1.6-5.32-3.19-10.65-5.06-15.87c-2.96-8.26-6.15-16.45-9.25-24.66
		c-1.46-3.88-2.93-7.75-4.41-11.62c-0.86-2.23-1.72-2.77-4.04-2.67c-0.57,0.02-1.15-0.18-1.72-0.15c-1.06,0.06-2.22-0.02-3.16,0.37
		c-4.17,1.75-8.58,2.57-13,3.13c-4.84,0.62-9.75,0.7-14.63,1.01c-3.06,0.19-6.12,0.32-9.17,0.55c-2.87,0.22-5.74,0.66-8.62,0.78
		c-2.66,0.11-5.31,0.17-7.84,1.08c-3.43,1.23-6.92,2.14-10.51,2.87c-6.82,1.38-13.53,3.28-20.29,4.96
		c-2.17,0.54-4.35,1.04-6.52,1.57c-1.24,0.3-1.82,0.94-1.48,2.34c0.22,0.93,0.13,1.94,0.18,2.92c-0.04,0.14-0.05,0.28-0.08,0.42
		c0.76,2.74,1.22,5.54,1.8,8.33c0.63,1.5,1.23,3,1.5,4.57c0.8,4.52,2.38,8.77,3.86,13.07c1.33,3.84,2.56,7.71,3.65,11.62
		c1.45,4.9,2.68,9.86,3.75,14.89c0.12,0.49,0.24,0.99,0.37,1.48c0.24,0.95,0.65,1.9,1.18,2.72c0.67,1.03,1.51,2.15,2.91,2.05
		c2.72-0.2,5.4-0.45,7.99-1.59c2.78-1.23,5.72-2.22,8.67-2.96c7.15-1.79,14.35-3.39,21.54-5.01c2.1-0.47,4.24-0.72,6.36-1.11
		c2.03-0.37,4.05-0.81,6.08-1.15c1.54-0.26,3.09-0.38,4.63-0.64c0.6-0.1,1.46-0.25,1.68-0.66c0.98-1.81,2.5-1.91,4.26-1.76
		c1.31,0.12,2.66,0.19,3.96,0.05c7.5-0.77,15.01-1.5,22.49-2.47c3.75-0.49,7.49-1.2,10.8-3.39
		C451.1,84.55,451.61,83.94,450.76,81.13z M388.4,88.88c-4.91,0.35-9.22,2.55-13.64,4.4c-4.2,1.76-8.38,3.58-12.64,5.17
		c-2.48,0.92-5.11,1.48-7.8,1.07c-0.74-0.11-1.43-0.48-2.15-0.73c0.04-0.24,0.09-0.48,0.13-0.72c1.42-0.34,2.87-0.6,4.26-1.03
		c6.56-2.01,13.03-4.24,19.31-7.07c2.76-1.25,5.82-1.89,8.79-2.61c1.67-0.4,3.38-0.13,5.46,0.77
		C389.23,88.54,388.82,88.85,388.4,88.88z M389.5,86.64c-5.5-0.92-10.45,0.99-15.4,2.88c-4.25,1.61-8.47,3.31-12.74,4.89
		c-2.02,0.75-4.08,1.38-6.16,1.93c-1.02,0.27-2.12,0.3-3.18,0.28c-0.75-0.01-1.51-0.23-1.55-1.25c-0.03-0.94,0.55-1.26,1.36-1.46
		c1.77-0.44,3.5-1.03,5.29-1.39c5.4-1.1,10.49-3.06,15.49-5.32c4.35-1.96,8.81-3.52,13.69-2.92c1.87,0.23,3.72,0.73,5.57,1.16
		c0.35,0.08,0.65,0.4,0.97,0.61c-0.02,0.17-0.04,0.34-0.06,0.51C391.67,86.6,390.55,86.82,389.5,86.64z M396.98,83.82
		c-7.13-2.59-14.26-1.89-21.2,0.47c-6.9,2.34-13.5,5.54-20.64,7.19c-4.17,0.96-4.21,1.43-5.83-3.23c-1.66-4.77-2.86-9.69-4.28-14.54
		c-1-3.42-2.03-6.83-3.03-10.25c-0.76-2.63-1.46-5.27-2.24-7.89c-0.75-2.53-1.56-5.05-2.3-7.42c1.28-2.1,3.15-2.37,5.16-2.73
		c2.59-0.46,5.14-1.24,7.63-2.11c1.93-0.68,3.84-1.39,5.75-2.12c8.67-4.46,18.18-10.17,26.75-3.55c0.11,0.08,0.2,0.17,0.27,0.27
		c0.27,0.23,0.5,0.49,0.62,0.76c0.99,2.26,1.84,4.59,2.66,6.93c0.41,1.17,0.56,2.42,0.95,3.6c1.41,4.35,2.85,8.7,4.29,13.04
		c0.09,0.18,0.17,0.35,0.26,0.53l0.03,0.06c0.88,1.81,1.73,3.64,2.26,5.58c1.12,2.2,1.7,4.61,2.58,6.9
		c0.95,2.47,1.81,4.98,2.67,7.49c0.12,0.36,0.08,0.78,0.15,1.58C398.48,84.14,397.69,84.08,396.98,83.82z M394.53,64.21
		c1.23,0.7,0.84,1.88,1.32,3.06C394.58,66,394.58,66,394.53,64.21z M406.37,84.41c-0.23,0.16-0.56,0.18-0.84,0.26
		c2.02-2.43,4.47-4.25,7.48-4.91c2.56-0.56,5.24-0.96,7.84-0.88c6.46,0.2,12.89,0.32,19.31-0.64c0.81-0.12,2.01-0.75,2.36,0.5
		c0.36,1.31-0.92,1.69-1.84,1.85c-2.44,0.43-4.9,0.9-7.36,0.94c-3.21,0.06-6.43-0.41-9.65-0.42c-2.71-0.01-5.44,0.19-8.13,0.53
		C412.35,82.04,409.15,82.56,406.37,84.41z M441.61,83.51c-1.09,0.37-2.23,0.64-3.37,0.76c-4.7,0.53-9.4,0.39-14.12,0.12
		c-4.35-0.25-8.72-0.21-13.08-0.29c4.47-1.3,8.93-2.6,13.78-1.8c4.75,0.78,9.56,0.52,14.33-0.21c1.02-0.15,2.06-0.17,3.09-0.25
		c0.08,0.17,0.17,0.34,0.25,0.52C442.2,82.76,441.99,83.38,441.61,83.51z M443.93,75.56c-2.5,1.17-5.16,1.84-7.91,1.89
		c-5.8,0.11-11.59,0.16-17.39,0.16c-4.64,0-8.8,1.29-12.45,4.21c-1.01,0.81-2.11,1.51-3.61,2.56c-0.81-2.07-1.53-3.64-2.03-5.27
		c-1.13-3.72-2-7.53-3.26-11.2c-1.07-3.11-2.39-6.17-3.87-9.11c-3.08-6.13-5.15-12.54-6.27-19.3c-0.2-1.25,0.2-2.03,1.15-2.76
		c1.85-1.43,3.97-2.13,6.24-2.18c5.29-0.1,10.6-0.14,15.89-0.05c4.61,0.08,9.07-0.5,13.39-2.14c1.01-0.38,2.01-0.79,3.01-1.18
		c0.85-0.34,1.48,0.01,1.89,0.73c0.96,1.71,2.03,3.38,2.76,5.19c1.09,2.68,1.94,5.46,2.88,8.2c1.17,3.45,2.18,6.96,3.52,10.33
		c1.68,4.22,3.66,8.33,5.45,12.51c0.68,1.59,1.27,3.24,1.81,4.89C445.59,74.47,445.35,74.9,443.93,75.56z"/>
	<path class="st0" d="M379.91,44.33c-0.47-0.02-0.96,0.04-1.42-0.07c-6.65-1.54-12.59,0.73-18.2,3.81
		c-4.27,2.34-8.65,4.08-13.45,4.79c-0.36,0.05-0.74-0.1-1.19-0.61c0.55-0.23,1.08-0.56,1.66-0.67c4.85-0.92,9.25-2.8,13.54-5.28
		c4.09-2.37,8.77-3.44,13.49-3.9C376.31,42.2,378.43,42.28,379.91,44.33z"/>
	<path class="st0" d="M353.13,73.76c0.5-0.35,0.96-0.79,1.5-1.03c5.59-2.51,11.05-5.37,17.07-6.75c3.3-0.76,6.68-1.15,10.03-1.69
		c0.32-0.05,0.7-0.09,0.98,0.03c0.41,0.18,0.75,0.52,1.12,0.78c-0.32,0.32-0.59,0.82-0.97,0.92c-0.71,0.19-1.47,0.22-2.22,0.2
		c-6.29-0.2-12.09,1.61-17.72,4.17c-2.49,1.13-4.97,2.27-7.47,3.38c-0.63,0.28-1.31,0.46-1.97,0.69
		C353.37,74.22,353.25,73.99,353.13,73.76z"/>
	<path class="st0" d="M383.95,74.92c-3.54,0.28-7.15,0.39-10.38,2.13c-0.65,0.35-1.31,0.68-1.98,0.99c0.48,0.17,0.88,0.45,1.19,0.81
		c3.76-1.89,7.75-2.74,11.97-2.7c0.49,0.01,0.99-0.17,1.49-0.27C385.49,75.23,384.7,74.86,383.95,74.92z"/>
	<path class="st0" d="M384.68,61.68c-3.73,0.01-7.5-0.27-11.2,0.11c-3.67,0.38-7.37,1.15-10.9,2.25c-3.57,1.11-6.95,2.84-10.53,4.35
		c0.77-1.38,5.7-4.31,9.93-5.52c3.73-1.06,7.55-1.84,11.39-2.41C378.89,59.63,382.64,60.03,384.68,61.68z"/>
	<path class="st0" d="M380.31,50.25c-0.38-0.06-0.8-0.04-1.14-0.18c-2.64-1.14-5.39-0.96-8.07-0.46c-3.9,0.73-7.77,1.59-11.36,3.44
		c-2.71,1.4-5.5,2.67-8.29,3.93c-0.68,0.31-1.48,0.37-2.71,0.66c0.5-0.7,0.59-0.97,0.76-1.05c4.74-2.16,9.42-4.49,14.26-6.39
		c3.77-1.48,7.8-2.22,11.9-2.21c1.82,0.01,3.6,0.14,4.83,1.71C380.44,49.88,380.38,50.06,380.31,50.25z"/>
	<path class="st0" d="M384.88,70.36c-6.44-0.33-12.21,2.06-18.03,4.24c-2.09,0.78-4.05,1.89-6.09,2.79
		c-0.99,0.43-2.01,0.79-3.04,1.08c-0.77,0.21-1.6,0.38-2.35-0.42c2.54-1.03,5.02-1.86,7.36-3.01c4.49-2.2,9.2-3.77,14.01-5.05
		c1.82-0.49,3.75-0.59,5.65-0.72c0.84-0.06,1.71,0.22,2.57,0.35C384.92,69.86,384.9,70.11,384.88,70.36z"/>
	<path class="st0" d="M376.51,55.79c2.35-1.75,4.01-1.85,5.69-0.51C380.39,55.97,378.67,55.72,376.51,55.79z"/>
	<path class="st0" d="M395.24,42.88c1.55-1.06,3.17-2.07,5.09-2.18c2.55-0.15,5.16-0.4,7.65-0.03c5.79,0.86,11.37,0.2,16.89-1.55
		c0.21-0.07,0.46-0.03,0.97-0.04c-0.65,1.55-1.91,1.92-3.14,2.17c-4.97,1.01-9.94,1.59-15.03,0.76c-2.09-0.34-4.28-0.23-6.41-0.07
		c-1.37,0.1-2.71,0.65-4.06,1.01c-0.59,0.16-1.18,0.34-1.77,0.51C395.36,43.27,395.3,43.08,395.24,42.88z"/>
	<path class="st0" d="M432.58,64.15c-1.77,0.93-3.63,1.46-5.54,1.74c-2.45,0.35-4.92,0.67-7.39,0.69c-5.3,0.04-10.52,0.45-15.71,2.1
		c0.71-0.44,1.38-0.97,2.15-1.3c3.15-1.35,6.47-1.95,9.89-1.98c5.05-0.04,10.07-0.29,14.97-1.66c0.38-0.11,0.81-0.09,1.21-0.08
		C432.27,63.66,432.36,63.87,432.58,64.15z"/>
	<path class="st0" d="M398.47,48.68c0.3-0.95,1.12-1.37,1.93-1.64c2.6-0.86,5.2-1.54,8.02-1.4c3.63,0.17,7.29,0.23,10.92-0.02
		c2.19-0.15,4.33-0.96,6.5-1.49c0.52-0.13,1.04-0.3,1.76-0.12c-0.3,0.28-0.57,0.63-0.92,0.83c-2.88,1.69-6.08,2.1-9.34,2.14
		c-3.31,0.04-6.62,0.05-9.93-0.06c-2.8-0.09-5.41,0.55-7.92,1.72c-0.22,0.1-0.46,0.15-0.7,0.21
		C398.74,48.86,398.66,48.78,398.47,48.68z"/>
	<path class="st0" d="M399.03,54.55c2.08-1.52,4.06-3.26,6.86-3.37c2.4-0.09,4.79-0.04,7.19-0.11c2.15-0.06,4.32-0.03,6.44-0.35
		c1.85-0.28,3.64-0.97,5.45-1.51c0.68-0.2,1.32-0.51,2.06-0.57c-1.62,1.65-3.46,3.02-5.77,3.23c-3.12,0.29-6.27,0.32-9.4,0.42
		c-2.23,0.07-4.49-0.09-6.7,0.18c-1.26,0.15-2.46,0.91-3.66,1.46c-0.73,0.33-1.41,0.79-2.11,1.18
		C399.28,54.92,399.15,54.74,399.03,54.55z"/>
	<path class="st0" d="M434.02,67.42c-0.74,1.07-1.89,1.33-2.95,1.48c-3.44,0.48-6.88,1.11-10.33,1.15
		c-3.62,0.05-7.04,0.77-10.45,1.82c-0.39,0.12-0.79,0.2-1.19,0.27c-0.05,0.01-0.12-0.09-0.36-0.26c1.18-1.14,2.69-1.55,4.11-1.99
		c1.49-0.45,3.07-0.74,4.62-0.86c5.35-0.43,10.74-0.49,15.97-1.9C433.56,67.1,433.72,67.26,434.02,67.42z"/>
	<path class="st0" d="M430.4,53.36c-1.86,2.12-5.65,3.18-8.81,2.3C424.69,54.85,427.53,54.11,430.4,53.36z"/>
	<path class="st0" d="M430.3,58.57c-1.87,1.69-4.21,1.61-6.74,1.81C424.86,59.28,427,58.67,430.3,58.57z"/>
	<path class="st0" d="M402.93,64.02c1.44-1.41,3.01-2.28,5.06-1.17C406.31,63.24,404.62,63.63,402.93,64.02z"/>
	<path class="st0" d="M402.63,58.73c1.63-1.28,2.59-1.45,4.56-0.82C405.67,58.71,405.02,58.83,402.63,58.73z"/>
</g>
<g>
	<path class="st0" d="M857.12,101.76c0.62-5.53,2.41-15.66,0.56-20.97c-1.7-4.83,1.71-9.09,0.06-14.11
		c-4.83-14.74-9-29.43-26.48-31.12c-4.41-0.43-4.36-6.54-9.01-7.14c-3.76-0.48-12.67-1.21-13.23,3.65c-0.67,5.76-2.39,4.39-5.59,1.9
		c-3.34-2.6-10.42-2.01-13.84,0.47c-9.96,7.21-10.92,25.11-13.38,35.82c-2.08,9.04-4.58,18.81-4.76,28.12
		c-0.07,3.68,0.37,7.51,4.19,9.13c3.06,1.29,3.45,6.62,5.1,9.23c7.89,12.44,31.9,9.17,43.8,7.33
		C839.75,121.73,855.15,119.45,857.12,101.76C857.43,98.97,856.39,108.27,857.12,101.76z M812.22,35.55
		c1.23-1.48,1.58-3.13,3.94-2.37c0.23,0.07,2.15,1.04,2.06,1.64C817.96,36.61,811.15,36.83,812.22,35.55
		C812.91,34.72,812.03,35.77,812.22,35.55z M798.7,47.42c12.9-4.88,30.77-13.4,43.65-3.93c8.48,6.23,18.66,28.96,6.75,35.98
		c-3.98,2.34-11.91,1.55-16.79,2.73c-6.99,1.68-14.44,0.5-17.46-6.75c-2.35-5.63-2.47-12.02-5.63-17.36
		c-1.46-2.48-3.74-5.05-6.34-6.38C802.74,51.64,796.56,48.22,798.7,47.42z M836.63,95.64c1.72-0.75,2.47,2.11,1.49,2.59
		C837.13,98.71,835.07,96.32,836.63,95.64C837.14,95.42,835.84,95.99,836.63,95.64z M835.75,89.67c-0.11-0.91,0.22-1.5,0.98-1.76
		C840.32,88.76,835.42,96.36,835.75,89.67C835.83,87.88,835.66,91.47,835.75,89.67z M783.58,63.48c-2.2,5.28-3.54,10.96-4.14,16.65
		c-0.78,7.45,0.3,16.87-2.03,23.97c-0.91,2.75-3.18-2.22-3.21-2.38c-0.97-4.02,0.22-9.37,0.88-13.38c1.47-8.89,4.04-17.8,6.14-26.57
		c1.11-4.62,4.75-28.16,14.99-22.28c2.57,1.48-3.47,5-4.7,5.88C787,48.58,785.66,58.48,783.58,63.48
		C783.04,64.77,783.95,62.58,783.58,63.48z M810.83,118.59c-3.17,6-14.05,3.58-19.07,1.94c-8.86-2.9-11.81-8.23-11.62-17.5
		c0.12-5.91,1.37-11.75,1.6-17.62c0.28-7.36,0.52-16.98,4.92-23.18c2.74-5.98,7.07-8.44,13.18-5.17
		c6.81,3.63,8.51,10.84,10.14,17.77c1.44,6.14,4.76,10.13,5.24,16.65C815.89,100.82,815.29,110.13,810.83,118.59
		C809.9,120.34,813.03,114.43,810.83,118.59z M852.46,110.5c-3.97,9.51-26.73,12.95-35.6,12.26c-1.1-0.09,2.67-15.93,2.78-17.86
		c0.22-3.85-0.05-7.69-0.12-11.54c-0.02-1.51-2.67-5.79-1.83-7.02c0.37-0.54,13.6,1.1,14.86,1.68c2.63,1.21-1.71,10.14-1.72,12.44
		c-0.01,4.12,7.06,2.8,8.97,1.78c3.24-1.73,1.05-9.58,1.17-12.14c0.17-4.03,0.14-4.23,4.47-5.79c2.33-0.84,6.05-3.24,8.41-2.66
		C857.55,82.56,854.47,107.49,852.46,110.5C851.72,112.25,853.97,108.23,852.46,110.5z"/>
	<path class="st0" d="M805.62,89.15c-4.44-2.14-16.63-4.34-19.73,0.03c-3.58,5.04-4.48,16.44-2.01,22
		c2.91,6.55,16.56,7.97,20.29,1.95c2.24-3.62,0.96-8.86,1.74-12.92C806.6,96.63,810.35,91.43,805.62,89.15
		C805.03,88.86,807.99,90.29,805.62,89.15z M790.39,92.56c4.82-1.16,17.29,5.15,7.93,5.16C795.91,97.73,782.91,94.35,790.39,92.56
		C792.26,92.11,789.3,92.82,790.39,92.56z M801.64,110.1c-0.81,4.65-9.07,4.49-12.34,2.68c-3.51-1.95-3.61-6.65-3.07-10.15
		c0.41-2.66,4.14-4.9,3.88-1.24c-0.13,1.83-0.74,6.42,2.21,6.18c4.96-0.4,1.23-4.56,3.26-6.57c0.88-0.86,6.23-0.59,6.88,0.4
		C803.42,102.88,801.91,108.57,801.64,110.1C801.25,112.34,801.82,109.08,801.64,110.1z"/>
</g>
<g>
	<path class="st1" d="M112.07,406.63c0.22-8.91,6.27-4.62,8.53-10.41c2.35-6.03,5.44-13.89,6.14-20.27
		c0.86-7.69-8.6-6.75-13.43-8.75c-3.62-1.5-3.95-11.82-8.35-8.46c-7.91,6.04-2.72,3.35-7.92-1.15c-3.45-2.99-8.42,5.63-9.98,3.14
		c-1.04-1.66-0.7-7.11-4.09-5.88c-2.5,0.9-4.17,3.61-5.94,5.42c-3.67,3.76-2.45-6.25-4.53-7.5c-5.16-3.08-7.74,7.2-13.12,7.39
		c-7.56,0.27-8.91,8.25-9.58,14.39c-0.77,7.08,0.98,13.57-0.11,20.53c-1.34,8.49-4.05,17.74-3.95,26.33
		c0.18,16.63,26.53,16.4,38.3,19.02c7.41,1.66,18.89,3.69,22.32-5.41C109.67,426.22,111.84,415.93,112.07,406.63
		C112.09,405.75,112.05,407.15,112.07,406.63z M106.2,360.49c3.06,0.45,2.36,5.2-0.71,4.75
		C102.43,364.78,103.14,360.03,106.2,360.49z M95.31,358.97c3.06,0.45,2.35,5.2-0.71,4.75C91.54,363.26,92.25,358.52,95.31,358.97z
		 M82.71,357.4c3.06,0.45,2.36,5.2-0.71,4.75C78.94,361.69,79.65,356.94,82.71,357.4z M70,355.21c3.06,0.46,2.35,5.2-0.71,4.74
		C66.23,359.5,66.94,354.75,70,355.21z M101.78,433.86c-2.44,10.59-43.86-0.77-48.7-7.4c-4.86-6.64-0.59-25.79,2.94-32.35
		c3.18-5.88,12.49-2.03,17.72-1.1c0.63,0.13,0.31,0.08-0.95-0.14c8.46,1.39,26.38,0.73,33.01,6.76
		C112.43,405.67,103.43,426.72,101.78,433.86C100.35,440.07,103.86,424.85,101.78,433.86z M99.59,393.32
		c-8.12-1.11-16.13-2.16-24.2-2.56c-4.95-0.25-19.99-0.8-22.46-5.97c-2.03-4.26-0.1-12.71,2.18-16.53
		c3.74-6.26,15.82-2.72,21.71-2.27c9.29,0.71,18.68,1.77,27.87,3.28c4.32,0.71,12.05,0.01,15.19,3.51
		c3.39,3.77-0.06,13.39-2.07,17.08C114.22,396.47,105.64,394.14,99.59,393.32C93.39,392.48,104.07,393.93,99.59,393.32z"/>
	<path class="st1" d="M75.42,410.29c-6.08-0.69-7.25,7.95-1.84,8.69C80.83,419.98,83.14,411.17,75.42,410.29
		C69.6,409.62,83.12,411.16,75.42,410.29z M74.84,417.77c-3.13-0.46-1.65-6.45,3.29-2.43C76.08,415.57,77.94,418.23,74.84,417.77z"
		/>
	<path class="st1" d="M74.93,397.67c-9.13-0.43-1.1,6.23,0.41,7.92C83.24,406.26,81.79,397.99,74.93,397.67
		C68.38,397.36,82.51,398.02,74.93,397.67z M75.4,403.81c-3.06-0.46-2.35-5.2,0.71-4.75C79.17,399.51,78.46,404.26,75.4,403.81z"/>
	<path class="st1" d="M84.14,414.18c-0.24,1.94,2.83,8.56,7.65,6.3C99.81,416.7,84.99,407.21,84.14,414.18
		C84.19,413.73,84.76,409.1,84.14,414.18z M88.67,419.22c-3.06-0.45-2.35-5.2,0.71-4.75C92.44,414.93,91.73,419.67,88.67,419.22z"/>
	<path class="st1" d="M58.49,412.85c-1.77,6.31,8.8,5.59,9.55-0.49C68.94,405.1,60.08,407.17,58.49,412.85z M63.24,414.93
		c-3.06-0.46-2.35-5.2,0.71-4.74C67.01,410.64,66.3,415.38,63.24,414.93z"/>
	<path class="st1" d="M61.16,395.56c-5.13,1.15-2.39,7.5,1.54,8.09C69.38,404.29,67.25,394.2,61.16,395.56
		C56.22,396.67,67.43,394.16,61.16,395.56z M62.82,401.43c-3.06-0.45-2.35-5.2,0.71-4.74C66.59,397.14,65.88,401.88,62.82,401.43z"
		/>
	<path class="st1" d="M69.69,425.87c-1.04,6.08,7.93,7.01,8.81,1.68C79.37,422.27,70.72,419.84,69.69,425.87z M76.11,427.69
		c-2.22,3.68-6.91-0.13-3.71-2.76C74.18,422.98,77.3,425.72,76.11,427.69z"/>
	<path class="st1" d="M85.15,423.6c-5.02-0.47-5.78,7.96-1.4,8.61C89.57,433.07,90.9,424.14,85.15,423.6
		C80.51,423.16,90.71,424.12,85.15,423.6z M83.69,430.3c-3.06-0.45-2.35-5.2,0.71-4.74C87.45,426.01,86.75,430.75,83.69,430.3z"/>
	<path class="st1" d="M84.79,402.66c-0.86,5.08,7.77,6.04,9.28,2.35C95.85,400.67,85.79,396.72,84.79,402.66z M89.16,405.75
		c-3.06-0.46-2.35-5.2,0.71-4.75C92.92,401.46,92.22,406.2,89.16,405.75z"/>
	<path class="st1" d="M61.62,420.38c-5.17-0.83-6.61,6.83-1.49,7.58C65.5,428.75,67.08,421.26,61.62,420.38z M60.8,426.59
		c-3.06-0.45-2.36-5.2,0.71-4.75C64.56,422.3,63.86,427.05,60.8,426.59z"/>
</g>
<g>
	<path class="st0" d="M692.13,515.69c-4.39-0.86-4.22,7.77,0.51,7.38C698.42,522.6,696.53,516.55,692.13,515.69
		C691.88,515.64,694.67,516.18,692.13,515.69z"/>
	<path class="st1" d="M713,530.06c2.55-2.35,5.44-6.8,8.98-7.63c7.07-1.66,10.3-3.44,14.35-9.97c0.99-1.6,1.39-3.54,1.21-5.4
		c-4.98,3.76-11.13,0.42-16.06,5.64c-4.5,4.76-10.75,14.03-16.66,6.17c-9.07-12.07-31.36-15.59-43.22-5.99
		c-11.62,9.41-19.12,27.36-9.51,40.73c3.16,4.4,11.04,11.33,16.9,7.73c6.08-3.74,4.88-13.25,13.4-14.8
		c-1.11,1.79-3.35,4.74-1.14,6.75c2.56,2.33,8.6-3.3,10.55-4.68c5.69-4.04,15.91,0.18,18.83-7.98
		C711.83,537.3,710.23,532.61,713,530.06z M727.25,512.68c0.5-0.15,7.65-2.14,7.76-2.07c1.05,0.65-0.64,3.66-1.72,3.71
		c0.16-0.01-1.12,1.66,0,0c-1.46,2.17-3.66,3.71-6.19,4.39c-3.2,0.86-3.54,0.2-5.91-0.98C722.28,515.13,724.63,513.48,727.25,512.68
		z M702.98,526.19C702.97,526.19,702.97,526.19,702.98,526.19L702.98,526.19c-0.01,0-0.01,0-0.01,0.01
		c-3.18,2.02-6.03,4.51-8.67,7.19c-2.83,2.88-5.57,7.69-9.57,9.03c-6.64,4.01-12.07,7.02-14.19,14.61
		c-1.81,6.46-14.05-0.31-16.03-3.73c-3.46-5.95-4.65-12.36-3.75-19.13c1.33-9.89,10.34-22.82,21.17-24.01
		c0.59-0.24,1.18-0.45,1.78-0.57c1.37-0.39,2.78-0.63,4.2-0.44c0.15,0.02,0.28,0.06,0.41,0.1c0.16-0.02,0.31-0.05,0.48-0.06
		c2.31-0.14,4.46,0.3,6.64,0.84c3.58,0.34,7.09,1.13,10.01,2.71C698.37,514.34,708.02,522.99,702.98,526.19z M699.92,543.29
		c-1.41,0.44,6.27-8.61,7.64-7.69C711.06,537.94,701.05,542.94,699.92,543.29C703.68,542.11,699.44,543.44,699.92,543.29z"/>
	<path class="st0" d="M670.17,529.06c2.71-5.46-6.42-10.58-9.55-5.04C656.84,530.65,667.08,535.26,670.17,529.06
		C671.03,527.32,669.3,530.81,670.17,529.06z"/>
	<path class="st1" d="M682.54,516.46c-0.93-0.23-1.73-0.8-2.53-1.32c-0.16-0.1-0.3-0.23-0.41-0.38c-0.84,0.03-1.6,0.23-2.32,0.07
		c-2.79,1.68-4.36,4.19-2.64,7.2c1.89,3.33,5.58,3.07,7.97,1.12C683.78,520.91,684.54,518.48,682.54,516.46z"/>
	<path class="st0" d="M661.57,536.78c4.54,2.7-0.39,10.04-5.08,7.64C651.11,541.67,655.55,533.21,661.57,536.78
		C663.56,537.97,658.89,535.19,661.57,536.78z"/>
</g>
<g>
	<path class="st0" d="M153.41,680.7c0.63-4.01-2.65-6.69-5.93-8.18c-2.19-1.01-4.48-1.28-6.86-0.81c-0.08-1.62-0.64-3.06-1.67-4.3
		c-4.88-5.73-17.81-5.24-21.09-11.93c4.34-1.48,28,2.23,22.91-8.23c-3.57-7.33-18.13-8.56-24.89-10.77
		c-3.45-1.13-22.55-8.95-21.54-11.68c1.33-3.61,25.94,5.39,29.48,6.37c5.04,1.4,10.05,3.14,15.25,3.72
		c1.55-5.07,3.1-10.14,4.67-15.21c3.17-10.28,5.41-20.42,7.55-30.94c1.65-8.13,6.24-17.52-3.79-20.24
		c-11.61-3.14-23.04-6.54-34.76-9.29c-12.24-2.87-24.47-5.78-36.77-8.4c-4.95-1.05-9.92-2.06-14.88-3.09
		c-4.92,1.42-5.58,6.09-6.93,10.58c-1.93,0.44-7.44,24.9-8.52,28.53c-2.34,7.92-8.78,20.4,2.38,23.41
		c9.21,2.49,19.26,4.34,28.15,7.75c0.93,0.36,4.97,2.52,2.16,3.87c-3.57,1.71-10.03-2.91-14.45-2.05c-2.77,0.54-2.14,4.53-0.77,6.05
		c3.15,3.48,12.34,4.32,16.75,5.6c6.2,1.79,12.41,3.55,18.57,5.47c3.49,1.09,14.68,6.75,14.32,1.27c7.05,1.71,14.15,2.91,20.66,6.26
		c9.42,4.86,3.57,8.18-3.87,8.25c-0.92,0.01-17.94-0.96-14.34,3.48c4.57,5.63,13.36,6.66,19.26,10.47c7.75,4.99-0.34,6.31-2.34,10.9
		c-2.71,6.23-5.12,16.82-0.82,22.95c3.5,4.98,12.12,5.21,16.19,0.68C152.23,695.93,152.38,687.27,153.41,680.7z M90.23,555.69
		c-9.93,0.34-19.49-2.74-29.25-4.02C61.5,549.3,86.38,554.99,90.23,555.69C80.2,556.04,80.57,553.95,90.23,555.69z M64.49,612.58
		c-6.17-1.89-12.27-3.99-18.37-6.07c-4.99-1.7-1.35-8.37-0.34-11.99c3.49-12.57,8.13-24.88,10.97-37.6
		c1.78-8.03,24.05-0.37,30.1,0.64c14.63,2.45,29.01,5.8,43.41,9.33c6.07,1.49,12.42,2.69,18.34,4.68c5.53,1.86,1.97,8.47,0.91,12.48
		c-3.63,13.72-7.49,27.33-10.85,41.12c-1.91,7.83-3.23,6.84-10.55,4.84c-6.59-1.79-13.18-3.6-19.77-5.4
		C93.73,620.63,78.96,617.02,64.49,612.58C58.32,610.7,69.83,614.22,64.49,612.58z M89.68,625.54c-2.79-0.68-5.56-1.44-8.34-2.16
		c0.67-3.82,3.11-2.97,6.16-2.12C89.52,621.83,94.21,626.64,89.68,625.54C86.96,624.88,90.79,625.81,89.68,625.54z M103.09,635.5
		c-6.2-1.84-12.4-3.69-18.59-5.56c-3.79-1.14-13.41-2.28-15.59-5.54c1.47-2.6,34.9,7.45,37.05,11.37
		C105,635.69,104.05,635.6,103.09,635.5C91.93,632.19,103.83,635.72,103.09,635.5z M144.93,678.42c3.27-6.05,5.1,5.67,4.97,7.25
		C143.89,685.67,142.1,683.66,144.93,678.42C145.76,676.9,142.11,683.64,144.93,678.42z M140.39,676.18
		c0.06,6.01-0.05,7.5-6.47,5.53C135.16,678.78,136.96,676.38,140.39,676.18C140.4,677.65,136.82,676.39,140.39,676.18z
		 M148.55,692.48c-1.7,4.88-3.36,10.13-9.6,8.52c-4.97-1.57-7.56-4.23-7.02-9.59C133.15,679.49,149.62,689.38,148.55,692.48z"/>
	<path class="st0" d="M141.46,593.54c-2.58,7.69-4.09,22.27-9.82,28.1c-5.06,5.15-21.48-2.77-27.28-4.18
		c-10.77-2.62-21.65-4.69-32.43-7.18c-4.71-1.09-12.57-2.77-16.16-6.22c-3.05-2.93,0.07-12.37,0.66-15.92
		c1.25-7.49,2.66-25.95,9.54-30.66c6.02-4.12,25.45,5.14,31.93,6.83c11.63,3.02,23.49,5.44,35,8.9c3.3,0.99,10.35,1.47,10.19,6.27
		C143.03,580.9,141.22,593.47,141.46,593.54C140.32,596.95,141.3,593.5,141.46,593.54z M93.72,612.6c9.64,2.34,19.27,4.68,28.92,7
		c9.49,2.29,12.73-14.15,13.72-21.55c0.72-5.4,6.39-19.87-2.11-19.18c-2.62,0.21-8.2-3.83-11.1-4.6
		c-5.46-1.44-10.74-2.43-15.94-4.71c-9.79-4.31-21.8-5.67-32.28-7.49c-11.77-2.04-12.86,8.21-14.7,18.14
		c-1.67,9.03-7.68,20.87,3.11,24.73C73.25,608.48,83.45,610.4,93.72,612.6C104.31,615.17,87.99,611.37,93.72,612.6z"/>
</g>
<g>
	<path class="st0" d="M549.69,210.6c-3.01-5.55-1.79-10.68-0.45-15.76c1.19-4.52,2.92-8.91,3.91-13.47
		c2.43-11.16,4.66-22.37,6.81-33.59c0.96-5,1.28-10.13,2.33-15.11c1.3-6.19,2.96-12.3,4.69-18.38c0.38-1.33,1.49-2.69,2.64-3.54
		c2.66-1.94,5.56-3.55,8.33-5.34c2.28-1.47,4.52-2.99,7.5-4.97c1.47,0.53,3.8,1.27,6.06,2.18c8.95,3.57,17.8,7.41,26.84,10.73
		c6.71,2.46,13.65,4.29,20.51,6.33c3.84,1.14,4.89,2.39,4.14,6.24c-1.16,5.95-2.58,11.84-3.9,17.75c-0.42,1.88-1,3.72-1.36,5.61
		c-1.51,7.84-2.94,15.69-4.45,23.54c-2.64,13.79-5.28,27.59-8.05,41.35c-0.3,1.49-1.34,2.93-2.35,4.14
		c-1.83,2.21-3.97,4.18-5.85,6.36c-2.45,2.86-6.21,2.58-9.27,3.97c-0.73,0.33-2.11-0.41-3.03-0.95c-8.51-4.94-17.8-8.03-27.01-11.3
		c-1.41-0.5-2.93-0.81-4.42-0.99c-3.7-0.45-7.32-1.05-10.69-2.83C558.61,210.47,554.19,210.33,549.69,210.6z M639.1,133.17
		c0.05-0.34,0.24-1.29,0.32-2.25c0.23-2.78-0.29-3.85-2.81-4.83c-8.97-3.51-17.87-7.27-27.02-10.27
		c-7.04-2.31-14.37-3.72-21.63-5.32c-3.45-0.76-4.08-0.17-4.97,3.18c-3.46,12.93-5.74,26.09-7.76,39.31
		c-0.72,4.75-1.3,9.55-2.41,14.21c-1.89,7.89-4.16,15.68-6.26,23.51c-0.4,1.49-0.8,2.94,1.05,3.93c7.29,3.91,14.62,7.7,22.65,9.95
		c5.7,1.6,11.34,3.44,16.99,5.22c3.54,1.12,7.04,2.38,10.6,3.46c3.33,1.02,4.14,0.56,5.06-2.68c0.61-2.12,1.28-4.23,1.67-6.39
		c1.86-10.44,3.52-20.93,5.47-31.36c1.24-6.63,2.83-13.2,4.33-19.78C635.86,146.62,637.43,140.2,639.1,133.17z M577.99,114.78
		c-3.03,1.53-5.89,1.67-6.89,4.6c-1.15,3.39-2.41,6.76-3.26,10.22c-2.88,11.61-5.96,23.19-8.28,34.92
		c-2.13,10.79-3.39,21.76-4.96,32.66c-0.12,0.81,0.33,1.7,0.52,2.58c4.72-1.32,5.56-2.37,5.96-6.4c0.22-2.18,0.69-4.34,1.14-6.49
		c1.38-6.6,2.83-13.18,4.21-19.77c0.37-1.75,0.56-3.54,0.97-5.28c3.41-14.32,6.86-28.63,10.26-42.96
		C577.92,117.83,577.85,116.73,577.99,114.78z M616.07,219.1c-0.53-0.68-0.72-1.16-1.04-1.28c-5.33-2.15-10.33-5.11-16.1-6.19
		c-2.67-0.5-5.24-1.56-7.81-2.47c-2.07-0.73-4.04-1.78-6.13-2.4c-5.14-1.53-10.32-2.92-15.5-4.3c-5.02-1.34-6.25-0.5-7.82,5.55
		c1.6,0.7,3.27,1.54,5.01,2.18c7.74,2.82,15.46,5.69,23.26,8.33c5.85,1.98,11.79,3.69,17.72,5.45c2.31,0.68,4.33,0.18,5.83-1.91
		C614.19,221.07,615.08,220.22,616.07,219.1z"/>
	<path class="st0" d="M590.25,129.31c5.74,2.02,11.19,3.85,16.58,5.85c4.77,1.78,9.49,3.72,14.22,5.63
		c4.61,1.86,5.21,3.06,4.27,7.88c-0.58,2.98-1,5.98-1.62,8.95c-0.68,3.26-1.78,3.83-4.95,2.68c-4.79-1.74-9.53-3.64-14.37-5.22
		c-3.64-1.19-7.39-2.18-11.15-2.94c-4.81-0.97-7.07-4.13-6.01-8.79C588.22,138.93,589.14,134.5,590.25,129.31z M618.79,157.71
		c1.05-3.28,1.85-5.74,2.61-8.22c0.52-1.67,0.72-3.44-0.93-4.5c-2.76-1.76-5.53-3.67-8.56-4.82c-4.99-1.9-10.19-3.24-15.3-4.82
		c-3.47-1.07-4.77-0.34-5.66,3.25c-0.3,1.2-0.47,2.44-0.64,3.66c-0.51,3.56-0.3,3.74,3.16,5.08c4.49,1.74,8.92,3.61,13.38,5.44
		C610.76,154.38,614.67,156.01,618.79,157.71z"/>
</g>
<g>
	<path class="st0" d="M458.07,556.93c7.43-4.49,13.39-10.86,20.81-15.27c2.55,2,3.1,4.75,3.84,7.58c5.75-1.41,8.8-6.83,13.85-9.2
		c0.83,2.39-0.42,3.1-1.32,3.81c-3.66,2.93-7.34,5.85-11.14,8.61c-3.17,2.31-3.94,2.01-5.95-1.61c-0.2-0.36-0.45-0.68-0.75-1.1
		c-2.1-0.1-3.58,1.08-5.08,2.32c-5.2,4.31-10.43,8.56-15.62,12.88c-1.48,1.24-2.84,2.61-4.27,3.91c-0.78,0.71-1.59,1.37-2.49,2.15
		c-1.95-4.44-0.66-7.81,2.04-11.07c4.8-5.79,8.31-12.37,11.18-19.3c0.35-0.85,0.55-1.77,0.97-3.17c-2.63-0.05-4.87-0.09-7.21-0.13
		c-0.65-3.21,1.13-5.25,2.77-7.18c3.65-4.29,7.48-8.42,11.29-12.69c-0.84-2.23-1.76-4.65-2.76-7.32c-7.28-0.11-14.65-2.27-22.58-4.8
		c1.11-0.66,1.73-1.03,2.53-1.52c-0.05-0.44,0-1-0.19-1.47c-1.15-2.76-0.16-4.72,2.04-6.49c5.76-4.62,12.28-7.89,18.85-11.15
		c9.07-4.49,18.72-7.43,28.13-10.99c3.61-1.36,7.3-2.52,10.95-3.78c0.65-0.22,1.34-0.37,1.95-0.69c5.01-2.61,9.96-5.33,15-7.88
		c10.33-5.24,20.65-10.5,31.09-15.51c2.56-1.23,5.53-1.78,8.37-2.14c3.27-0.42,4.74,0.9,4.61,4.24c-0.11,2.7-0.5,5.59-1.6,8.03
		c-2.6,5.78-5.46,11.47-8.64,16.95c-4.22,7.28-8.89,14.29-13.29,21.47c-2.4,3.93-3.94,8.25-4.35,12.83
		c-1.13,12.28-6.65,22.95-12.06,33.67c-1.43,2.84-2.73,5.77-4.47,8.41c-2.64,4.01-5.39,8.01-8.52,11.64
		c-2.68,3.11-5.26,2.65-7.94-0.58c-1.77-2.13-2.46-4.6-2.67-7.26c-0.21-2.75-0.41-5.51-0.52-8.27c-0.12-2.81-1.48-4.61-4.09-5.62
		c-9.95-3.88-18.32-10.05-25.68-17.69c-0.56-0.58-1.24-1.06-2.21-1.88c-1.89,1.69-3.78,3.22-5.48,4.95
		c-1.75,1.76-3.35,3.67-4.93,5.59c-1.47,1.78-0.96,3.39,1.25,4.06c0.64,0.2,1.37,0.09,2.05,0.21c0.65,0.11,1.27,0.33,2.36,0.63
		C466.1,543.1,460.64,549.27,458.07,556.93z M551.02,483.16c3.58-6.64,8.53-15.7,13.32-24.86c1.07-2.05,1.68-4.38,2.17-6.66
		c0.19-0.89-0.22-2.3-0.88-2.91c-2.95-2.75-4.37-2.69-7.72-0.18c-0.66,0.49-1.37,0.92-2.11,1.29
		c-10.24,5.08-20.52,10.08-30.71,15.24c-4.29,2.18-8.42,4.67-11.1,8.93c-0.33,0.52-1.06,0.87-1.68,1.1
		c-9.32,3.45-15.9,10.69-23.22,16.86c-2.8,2.37-4.98,5.48-7.47,8.24c-1.19,1.32-1.26,2.77-0.39,4.19c1.37,2.22,2.72,4.49,4.36,6.51
		c4.73,5.8,10.3,10.77,16.25,15.27c2.5,1.89,5.44,3.21,8.24,4.67c1.8,0.94,3.38,0.59,4.78-1.05c2.14-2.52,4.57-4.8,6.62-7.38
		c5.23-6.59,10.37-13.24,15.44-19.96C541.15,496.85,545.22,491.12,551.02,483.16z M539.14,504.16c-0.18-0.14-0.35-0.28-0.53-0.42
		c-0.7,0.79-1.41,1.57-2.07,2.38c-3.98,4.94-7.93,9.92-11.92,14.85c-2.78,3.43-5.86,6.64-8.38,10.25c-1.58,2.27-3.03,4.36-5.4,5.99
		c-1.69,1.16-3.53,3.33-3.69,5.19c-0.35,4.08,0.15,8.26,0.67,12.36c0.17,1.35,1.32,2.67,2.25,3.82c1.12,1.39,2.51,1.37,4.03,0.36
		c3.2-2.13,5.53-4.97,7.22-8.38c1.41-2.84,2.87-5.66,4.2-8.55c1.33-2.88,2.55-5.81,3.75-8.75c1.21-2.93,2.51-5.84,3.47-8.86
		c0.9-2.81,3.15-5.26,2.49-8.54c-0.05-0.22,0.21-0.5,0.3-0.76C536.75,511.46,537.94,507.81,539.14,504.16z M495.18,480.04
		c-1.1-0.42-1.37-0.63-1.59-0.59c-2.57,0.5-5.13,1.08-7.7,1.55c-12.68,2.32-23.14,8.58-31.87,17.9c-2.04,2.19-1.66,4.07,1.21,4.87
		c3.99,1.12,8.06,1.92,12.08,2.85c1.88,0.44,2.95-0.51,4.19-1.87c6.25-6.81,12.65-13.47,19.03-20.17
		C491.92,483.14,493.41,481.77,495.18,480.04z M476.79,508.11c-2.02,2.08-1.39,3.81-0.31,5.27c3.74,5.09,7.3,10.37,11.52,15.04
		c3.59,3.96,8.13,7.01,13.39,8.63c1.42,0.44,2.96,1.11,4-0.72c0.99-1.76,0.47-3.07-1.08-4.26c-2.62-2-5.18-4.08-7.71-6.2
		c-5.57-4.67-11.91-8.44-16.6-14.16C479.05,510.58,478.02,509.5,476.79,508.11z M478.71,545.31c-1.31-0.09-1.82-0.29-2.03-0.13
		c-6.96,5.34-13.92,10.7-20.81,16.13c-0.7,0.55-0.99,1.61-1.47,2.44c0.27,0.22,0.54,0.44,0.81,0.65
		C462.79,558.25,470.36,552.09,478.71,545.31z M485.52,514.14c-1.97-2.44-3.93-4.88-5.89-7.31c-0.25,0.21-0.5,0.41-0.75,0.62
		C480.12,510.51,482.37,512.75,485.52,514.14z M476.57,518.75c1.32,3.85,2.83,5.29,5.86,5.95
		C480.48,522.72,478.52,520.74,476.57,518.75z"/>
	<path class="st0" d="M535.3,489.89c-2.64,3.95-8.95,5.81-13.24,3.81c-0.83-0.38-1.63-1.1-2.12-1.86
		c-2.46-3.77-2.08-10.24,0.68-13.71c2.57-3.22,8.17-4.76,12.52-3.38c2.92,0.92,4.01,3.37,4.28,6.05
		C537.72,484,537.18,487.14,535.3,489.89z M533.25,488.82c0.47-2.37,1.38-4.75,1.3-7.1c-0.1-2.82-2.27-3.8-4.9-2.82
		c-1.55,0.57-3.18,0.92-4.7,1.56c-3.71,1.54-4.49,5.19-1.58,7.89c1.17,1.07,2.75,1.86,4.29,2.31
		C529.65,491.24,531.44,490.49,533.25,488.82z"/>
</g>
<g>
	<path class="st0" d="M681.08,318.03c-0.06,2.02-0.16,4.04-0.24,6.06c-0.13,3.35,0.29,8.88,0.81,12.36
		c0.53,3.48,3.34,10.71,7.91,14.6c2.69,2.29,5.76,4.21,9.12,5.9c9.26,4.64,18.4,3.75,27.57,0.05c15.03-6.06,22.46-21.61,19.42-37.61
		c-1.13-5.93-4.62-9.75-10.57-11.09c-1.9-0.43-3.81-0.8-5.73-1.18c-3.17-0.6-5.8-1.32-5.87-1.6c-0.04-0.17-0.07-0.35-0.06-0.52
		c0.51-5.48,0.84-5.7,6.1-4.15c5.85,1.73,11.59,1,17.17-1.01c2.89-1.04,4.77-2.84,6.13-5.11c2.3-3.86,1.97-7.89,0.85-8.25
		c-0.7-0.23-1.36-0.43-2.04-0.56c-4.35-0.87-8.7-1.72-13.08-2.46c-4.8-0.82-9.34-0.16-13.45,2.64c-0.47,0.32-0.96,0.6-1.47,0.87
		c-0.83,0.45-3.24-0.96-5.11-3.41c-1.87-2.44-4.31-3.5-4.52-3.35c-0.21,0.15-0.27,0.8-0.13,1.44c0.08,0.4,0.19,0.79,0.38,1.13
		c1.05,1.88,2.32,3.63,3.33,5.53c0.65,1.21,1.45,2.61,1.38,3.87c-0.14,2.31,0.67,4.15,1.63,6.11c0.75,1.5,0.89,2.94,0.57,4.37
		c-0.55,2.42-2.58,3.62-3.31,3.18c-0.48-0.29-0.9-0.58-1.21-0.96c-2.8-3.48-7-4.43-10.77-6.15c-0.56-0.25-1.24-0.38-1.85-0.35
		c-7.33,0.38-13.35,3.08-17.85,9.23c-1.16,1.6-2.13,3.26-2.96,4.97c-1.39,2.88-2.15,5.39-2.15,5.42
		C681.08,318,681.08,318.01,681.08,318.03z M725.68,296.1c-2.74-1.26-2.99-4-0.71-6.15c3.78-3.57,8.27-4.78,13.34-3.75
		c3.2,0.65,6.38,1.44,9.57,2.18c0.36,0.09,0.72,0.2,1.25,0.38c0.69,0.23-0.3,3.23-3.13,5.9c-1.69,1.59-3.62,2.8-6.03,3.53
		C734.8,299.77,730.21,298.17,725.68,296.1z M684.16,324.85c0.61-4.22,1.51-8.48,2.9-12.5c2.92-8.46,13.2-10.45,18.91-8.64
		c2.91,0.92,5.54,2.9,8.1,4.68c1.94,1.35,3.93,2.17,6.28,2.33c3.53,0.23,7.06,0.64,10.59,0.88c2.99,0.21,4.99,1.79,6.18,4.37
		c0.79,1.71,1.48,3.53,1.81,5.37c0.48,2.7,0.81,5.41,0.9,8.14c0.15,4.52-0.99,9.8-1.58,11.81c-0.36,1.22-0.73,2.43-1.2,3.6
		c-0.54,1.37-1.38,2.84-2.5,3.71c-2.58,2.01-5.22,4.24-8.22,5.34c-4.11,1.51-8.61,1.91-12.86,3.07c-4.74,1.29-9.16,0.25-13.26-1.81
		c-3.59-1.8-6.92-4.21-10.12-6.67c-1.16-0.9-1.68-2.69-2.37-4.13c-0.43-0.9-0.58-1.94-0.99-2.86
		C684.42,336.2,683.31,330.61,684.16,324.85z"/>
	<path class="st0" d="M729.52,336.03c-0.18-2.64-1.46-1.85-2.15,1.65c-0.69,3.5-1.39,6.34-1.57,6.34c-0.18,0-0.4-1.33-0.5-2.98
		c-0.1-1.65-1.11-1.08-1.7,1.49c-0.59,2.57-2.6,3.05-2.69,2.02c-0.09-1.03-0.31-1.9-0.48-1.94c-0.17-0.04-0.63,0.74-1.04,1.74
		c-0.25,0.61-0.52,1.2-0.87,1.75c-0.34,0.53-0.78,1-1.3,1.52c-0.78,0.78-1.76,0.49-2.19-0.66c-0.43-1.15-1.21-1.27-1.73-0.27
		c-0.35,0.67-0.67,1.24-1.07,1.75c-0.38,0.48-0.86,0.89-1.48,1.4c-0.87,0.71-1.52,0.51-1.46-0.47c0.06-0.98-0.54-1.62-1.33-1.43
		c-0.5,0.12-0.97,0.24-1.44,0.38c-1.62,0.49-2.61,0.6-3.29,0.11c-1.53-1.1-1.7-3.05-2.18-3.02c-0.29,0.02-0.58,0.04-0.87,0.08
		c-0.34,0.04-0.67,0.09-1.04,0.15c-0.57,0.09-1.31-0.34-1.65-0.97c-0.34-0.63-1.69-1.23-3.02-1.35c-1.32-0.12-1.91,1.11-0.82,2.41
		c0.76,0.9,1.63,1.54,2.49,1.7c3.86,0.76,6.56,3.69,10.18,4.67c1.42,0.39,3.04,0.72,4.43,0.43c3.33-0.7,6.59-1.72,9.84-2.74
		c0.8-0.25,1.47-0.96,2.18-1.49c0.6-0.45,1.11-1.13,1.77-1.38c4.04-1.53,7.08-3.99,8.23-8.35c0.1-0.36,0.21-0.78,0.45-1.04
		c3.36-3.58,1.38-7.65,0.98-11.54c-0.04-0.37-0.33-0.72-0.72-1.05c-0.56-0.45-1.03,1.58-0.01,4.24c1.01,2.67-1.02,3.43-1.51,1.42
		c-0.5-2.01-1.4-0.1-0.82,3.64C731.72,338.04,729.69,338.67,729.52,336.03z"/>
</g>
<g>
	<path class="st1" d="M260.56,749.35c-0.76-3.7-2.29-5.57-1.5-9.46c-0.51,2.53-0.13,0.63,0,0c1.28-6.36-6.33,0.15-8.42-0.78
		c-2.88-1.27-5.92-0.12-8.19,1.81c-2.19,1.86-5.32-0.08-7.7-0.56c-6.27-1.25-12.8-2.24-18.84,0.69c-2.32,1.13-5.11-1.7-7.59-1.75
		c-1.73,0.01-3.38,0.36-4.97,1.05c-2.47,1.02-3.88-0.84-6.09-0.25c-3.69,0.99-1.3,3.5-1.4,5.59c-0.14,2.88-1.79,5.13-1.4,8.21
		c0.41,3.31,3.04,5.45,3.64,8.52c-0.08,1.7-0.45,3.35-1.09,4.94c-0.5,2.62-0.21,5.25-0.15,7.89c0.12,5.45,2.27,8.45,3.91,13.26
		c1.43,4.19-5.76,11.99-2.94,14.59c2.49,2.29,6.77-1.52,10.22-2.88c0.07-0.07,0.14-0.15,0.23-0.22c2.31-1.87,4.71-1.7,7.51-0.92
		c3.44,0.96,7.14,1.47,10.8,1.7c1.71-0.64,3.47-1.14,5.29-1.43c0.21-0.03,0.41-0.02,0.59,0.01c2.61-1.04,5.24-1.98,7.58-1.14
		c0.65,0.23,1,0.73,1.08,1.28c3.14,1.96,7.79,6.89,7.87,1.33c0.04-2.91-1.56-5.93-1.02-8.78c0.48-2.52,3.02-4.22,4.42-6.25
		c2.94-4.25,3.82-10.23,4.27-15.27c0.39-4.36-0.8-9.23,1.38-13.27C259.55,754.48,261.26,752.78,260.56,749.35z M198.4,757.36
		c-2.73-0.55-0.19-9.52,0.74-10.88c-1.59,2.32,1.42-2.09,0,0c1.49-2.19,6.02-5.98,8.78-3.46c2.76,2.52-1.94,6.06-3.43,7.65
		C202.99,752.27,201.49,757.98,198.4,757.36z M200.73,799.7C200.73,799.69,200.73,799.69,200.73,799.7c0.4-0.94,5.21-5.93,4.91-2.44
		C205.39,800.07,200.39,800.51,200.73,799.7z M243.86,798.72C244.94,799.87,242.78,797.57,243.86,798.72
		c-1.61-1.71-0.81-5.76,1.36-3.74C246.93,796.56,246.32,801.34,243.86,798.72z M251.09,781.87
		C252.22,780.29,251.02,781.99,251.09,781.87c-3.51,5.73-6,9.2-12,12.65c-6.99,4.01-19.02,6.27-26.23,1.77
		c-12.74-7.96-18.37-24.14-9.49-37.43c7.41-11.09,17.15-20.73,31.45-16.19c7.45,2.36,12.31,6.08,16.38,12.73
		C255.1,761.77,255.56,775.61,251.09,781.87z M252.55,752.98c-2.29-2.65-13.34-12.31-3.94-10.74c3.27,0.55,7.21,2.05,8.67,5.31
		C258.59,750.5,255.97,756.93,252.55,752.98z"/>
	<path class="st0" d="M245.67,755.02c-16.95-23.5-55.63,5.85-38.15,30.53C225.54,810.98,263.47,779.7,245.67,755.02
		C243.37,751.83,247.42,757.45,245.67,755.02z M229.7,790.47c-27.54,4.8-30.11-32.07-6.8-39.43
		C248.35,742.99,257.73,785.55,229.7,790.47C228.42,790.7,230.47,790.34,229.7,790.47z"/>
	<path class="st0" d="M234.89,779.43c-1.12-0.73-2.2-1.5-3.26-2.33c-0.76-0.6-1.42-1.35-2.24-1.82c-1.04-0.59-2.16-1.12-3.32-1.38
		c-1.97-0.43-2.69-0.91-2.91-2.45c-0.21-1.51,0.53-3.41,1.95-3.65c2.66-0.44,3.58-2.58,4.96-4.3c1.26-1.57,2.47-3.19,3.71-4.77
		c0.21-0.27,0.47-0.59,0.77-0.69c0.37-0.12,0.86-0.13,1.2,0.03c0.21,0.1,0.4,0.69,0.3,0.91c-0.37,0.77-0.83,1.51-1.35,2.21
		c-1.66,2.23-3.44,4.38-5.03,6.67c-1.08,1.54-0.75,3.98,0.7,5.23c1.71,1.48,3.57,2.79,5.36,4.19c0.96,0.76,1.93,1.5,2.8,2.35
		c0.15,0.15,0.21,0.39,0.25,0.66c0.06,0.39-0.02,0.81-0.17,0.94C238.46,781.36,236.75,780.64,234.89,779.43z"/>
</g>
<g>
	<path class="st0" d="M330.07,859.45c-4.86-2.72-7.12-6.99-13.04-7.9c-6.21-0.95-12.11-0.04-17.81,2.59
		c-10.37,4.8-20.78,16.81-19.16,29.03c1.79,13.53,4.53,23.32,18.18,29.02c5.33,2.23,11.59,2.73,17.25,1.66
		c1.93-0.37,6.04-2.96,7.85-2.35c1.71,0.58,4.48,4.01,5.54,5.44c4.07,5.48,8.12,10.97,12.17,16.46c-0.55,0.41,9.68,11.06,11.2,11.93
		c5.51,3.13,6.85-3.49,5.02-7.18c-2.87-5.77-6.96-11.72-10.62-17.04c-3.77-5.47-8.2-9.99-12.25-15.14
		c-3.22-4.09,1.78-9.46,3.42-13.85c2.19-5.84,2.61-10.91,1.33-17.02C337.76,868.48,333.67,864.9,330.07,859.45
		C327.69,858.12,330.83,860.6,330.07,859.45z M316.07,854.63c-1.81,0.56-4.31,0.39-7.05-0.54
		C311.58,853.63,313.82,853.72,316.07,854.63z M302.89,854.93c0.9-0.21,3.71-1.52,4.02-0.35
		C305.94,854.81,303.31,856.13,302.89,854.93C304.2,854.62,303,855.22,302.89,854.93z M298.8,856.36c0.69-0.2,0.96,0.09,0.81,0.85
		C298.59,857.32,298.32,857.04,298.8,856.36C298.98,856.27,298.66,856.44,298.8,856.36z M335.48,910.21
		c4.76,6.39,9.35,12.93,13.94,19.44c1.68,2.39,6.28,7.06,6.51,10.08c0.15,1.94-1.91,3.77-3.79,2.53c-2.91-1.05-5.44-5.69-7.35-7.95
		c-2.98-3.53-6.15-6.88-8.93-10.58c-2.09-2.79-4.91-5.61-6.72-8.52c-1.16-1.87,3.71-5.47,4.81-6.63
		C334.47,909.12,334.97,909.66,335.48,910.21C336.77,911.94,335.1,909.69,335.48,910.21z M326.6,910.94c0.45-2.68,2.81-4.8,5.6-4.41
		C332.04,908.12,328.53,912.74,326.6,910.94C327.07,908.12,327.44,911.72,326.6,910.94z M332.73,866.89
		c5.18,13.28,6.02,31.18-7.07,40.65c-10.43,7.54-28.25,6.54-36.37-4.46c-8.91-12.05-8.13-31.79,3.84-41.55
		C303.12,853.4,327.02,852.25,332.73,866.89C334.57,871.6,332.27,865.71,332.73,866.89z"/>
	<path class="st0" d="M316.18,863.78c-10.42-1.6-21.14,1.87-26.07,11.81c-5.4,10.88-0.71,23.88,10.45,28.51
		c9.93,4.11,22.41-0.21,26.75-10.57C332.11,882.07,326.79,869.81,316.18,863.78C312.5,863.21,322.27,867.24,316.18,863.78z
		 M299.18,902.02c-0.3-0.24-0.6-0.47-0.9-0.7C298.79,900.66,299.7,901.35,299.18,902.02C298.88,901.78,299.27,901.91,299.18,902.02z
		 M325.97,876.11c5.49,11.49-1.41,21.24-10.99,27.23c-7.6,4.76-19.51-4.04-22.47-11.02C283.43,870.95,315.14,853.52,325.97,876.11
		C329.2,882.87,325.49,875.11,325.97,876.11z"/>
	<path class="st0" d="M302.97,877.57c-4.23-9.13,10.09-11.45,14.28-5.51c0.95,1.34,1.68,7.9-1.67,6.82
		c-1.99-0.64-2.33-3.13-4.66-3.47C308.1,875,305.47,876.51,302.97,877.57C300.86,873.01,303.82,877.21,302.97,877.57z M316.9,876.62
		c-1.02-2.19-2.44-4.37-4.85-5.17c-4.62-1.52-6.94-0.08-7.97,4.2C309.14,874.83,312.29,872.7,316.9,876.62
		C314.6,871.69,312.95,873.26,316.9,876.62z"/>
</g>
<g>
	<path class="st1" d="M511.21,274.31c-8.42-13.07-18.82-0.39-25.65,11.43c-0.65,1.69-1.34,3.35-2.1,5
		c-1.16,3.57-2.67,7.03-3.7,10.63c0.01,0.01,0.02,0.02,0.03,0.03c-1.93,9.83-4.32,19.57-5.32,29.63
		c-0.76,7.63-2.77,19.67,4.46,25.28c16.61,12.89,25.36-13.32,29.4-25.27c3.57-10.57,4.47-21.61,5.99-32.58
		C515.49,290.1,515.92,281.63,511.21,274.31z M504.31,329.54c-2.09,6.95-5.07,13.65-8.72,19.91c-3.15,5.41-12.01,14.28-17.13-2.54
		c-1.11-3.65-0.36-8.15-0.04-11.87c1.16-13.38,4.65-26.21,6.78-39.35c2.34-4.56,5-8.91,7.7-13.29c2.55-4.12,7.56-13.06,15.01-5.33
		c2.91,3.02,2.9,9.05,2.88,12.86C510.73,302.87,507.98,317.33,504.31,329.54z"/>
	<path class="st1" d="M535.63,299.87c4.04-15.02-12.35-14.21-25.69-11.33c-1.68,0.66-3.39,1.26-5.11,1.8
		c-3.42,1.53-7,2.74-10.36,4.4c0,0.01,0,0.03,0,0.05c-8.58,5.17-17.4,9.94-25.53,15.96c-6.16,4.56-16.43,11.16-15.73,20.28
		c1.6,20.97,26.9,9.84,38.46,4.8c10.23-4.46,19.01-11.2,28.17-17.44C526.81,313.64,533.37,308.27,535.63,299.87z M490.07,331.85
		c-6.55,3.12-13.52,5.41-20.6,6.92c-6.12,1.3-18.65,0.69-9.62-14.39c1.95-3.27,5.79-5.74,8.76-8c10.7-8.13,22.54-14.16,33.71-21.4
		c4.95-1.34,9.96-2.28,15.02-3.22c4.76-0.88,14.76-3.17,14.03,7.54c-0.28,4.18-4.76,8.22-7.59,10.77
		C514.15,318.69,501.59,326.37,490.07,331.85z"/>
	<path class="st1" d="M468.8,312.79c6.94,8.64,13.38,17.64,21.87,24.88c9.6,8.19,30.56,26.19,38.2,6.6
		c3.32-8.53-4.58-17.82-9.16-23.98c-6.03-8.12-13.07-15.25-19.78-22.7c0.01-0.02,0.01-0.03,0.02-0.04c-2.73-2.56-5.8-4.76-8.63-7.22
		c-1.49-1.03-2.95-2.1-4.37-3.21c-11.93-6.64-27.36-12.18-27.87,3.36C458.79,299.17,463.51,306.22,468.8,312.79z M467.45,303.67
		c-1.97-3.26-5.08-8.43-4.14-12.51c2.43-10.46,11.32-5.36,15.62-3.13c4.58,2.37,9.09,4.73,13.44,7.45
		c8.57,10.18,18.15,19.4,26.02,30.28c2.19,3.02,5.14,6.51,6.06,10.2c4.24,17.06-7.92,13.99-13.4,10.97
		c-6.34-3.5-12.33-7.72-17.7-12.61C483.94,325.74,474.15,314.73,467.45,303.67z"/>
</g>
</svg>
