<?xml version="1.0" encoding="utf-8"?>
<!-- Generator: Adobe Illustrator 27.2.0, SVG Export Plug-In . SVG Version: 6.00 Build 0)  -->
<svg version="1.1" id="Layer_1" xmlns="http://www.w3.org/2000/svg" xmlns:xlink="http://www.w3.org/1999/xlink" x="0px" y="0px"
	 viewBox="0 0 178 500" style="enable-background:new 0 0 178 500;" xml:space="preserve">
<style type="text/css">
	.st0{clip-path:url(#SVGID_00000089574570145691891510000002367618739277919408_);}
	.st1{fill-rule:evenodd;clip-rule:evenodd;fill:none;stroke:#FFFFFF;stroke-width:5;stroke-miterlimit:10;}
	.st2{fill:#FFFFFF;}
</style>
<g>
	<defs>
		<rect id="SVGID_1_" x="-18.5" y="-7.5" width="213" height="513"/>
	</defs>
	<clipPath id="SVGID_00000087410010989269136620000005377594273951256964_">
		<use xlink:href="#SVGID_1_"  style="overflow:visible;"/>
	</clipPath>
	<g style="clip-path:url(#SVGID_00000087410010989269136620000005377594273951256964_);">
		<polyline class="st1" points="173.5,-0.31 173.5,493.42 89,422.26 4.5,493.42 4.5,0.25 		"/>
		<g>
			<path class="st2" d="M97.78,338.08h2.47c2.98,3.54,5.83,7.05,8.54,10.52c2.72,3.48,5.75,7.7,9.1,12.67
				c3.48,2.55,6.32,4.73,8.54,6.57c2.22,1.83,4.06,3.42,5.52,4.75c1.46,1.33,2.2,2.02,2.23,2.05c0.53,0.43,1.06,1.16,1.58,2.19
				c0.53,1.02,0.79,1.88,0.79,2.56c0,0.96-0.35,1.76-1.05,2.4c-0.7,0.64-1.53,0.95-2.49,0.95c-2.48,0-5.13-1.3-7.94-3.91
				s-5.69-6.43-8.64-11.45c-3.57-2.48-7.16-4.86-10.78-7.12c-3.62-2.27-6.91-4.24-9.89-5.94c-2.98-1.69-5.91-3.25-8.8-4.68
				c1.86,2.24,3.66,4.46,5.38,6.66c1.72,2.2,3.37,4.36,4.94,6.47s2.54,3.42,2.91,3.91c0.37,0.5,0.7,0.93,0.98,1.3
				c4.72,5.4,7.08,9.44,7.08,12.11c0,2.55-1.21,4.69-3.63,6.43c-2.42,1.74-5.48,2.61-9.17,2.61c-2.33,0-4.76-0.37-7.29-1.12
				c-2.53-0.75-5.13-1.89-7.8-3.42c-2.67-1.54-5.25-3.38-7.73-5.52c-2.48-2.14-4.76-4.5-6.84-7.08c-3.17-3.97-6-8.43-8.5-13.36
				c-2.5-4.94-4.41-9.53-5.73-13.78c-1.32-4.25-1.98-7.39-1.98-9.41c0-1.18,0.29-2.12,0.86-2.82c0.57-0.7,1.35-1.19,2.33-1.49
				c0.98-0.29,2.01-0.44,3.1-0.44c0.99,0,1.99,0.31,2.98,0.93c1.33,0.9,2.74,2.48,4.21,4.75c1.47,2.27,2.78,4.55,3.91,6.84
				c1.13,2.3,1.7,3.62,1.7,3.96c0,0.19-0.06,0.28-0.19,0.28c-0.28,0-0.73-0.36-1.35-1.07c-0.62-0.71-1.26-1.5-1.91-2.37
				c-1.46-1.92-3.01-3.06-4.66-3.4c0.84,3.01,1.94,6.01,3.31,8.99c1.37,2.98,3,5.93,4.89,8.85c1.89,2.92,4.05,5.84,6.47,8.75
				c2.76,3.29,5.64,6.09,8.64,8.4c3,2.31,5.77,4.07,8.31,5.26c2.55,1.2,4.5,1.79,5.87,1.79c1.02,0,1.92-0.33,2.68-0.98
				c0.76-0.65,1.14-1.54,1.14-2.65c0-1.3-0.57-2.92-1.72-4.84c-1.24-2.08-2.83-4.37-4.77-6.87c-1.94-2.5-3.78-4.8-5.52-6.91
				c-1.74-2.11-3.65-4.39-5.73-6.84c-1.89-2.27-3.42-4.03-4.59-5.29c-1.16-1.26-2.18-2.2-3.05-2.82c-1.8-1.3-2.84-2.6-3.12-3.89
				s-0.02-2.39,0.77-3.31c0.79-0.92,1.76-1.37,2.91-1.37c0.37,0,1.82,0.67,4.35,2.03c2.53,1.35,6.19,3.42,10.99,6.19
				c4.79,2.78,10.45,6.2,16.97,10.27C107.45,351.76,103.58,346,97.78,338.08z"/>
			<path class="st2" d="M97.87,308.38h3.12c1.86,2.05,3.1,3.69,3.73,4.94c0.62,1.24,0.87,3.03,0.74,5.35
				c4.78,4.04,7.17,7.59,7.17,10.66c0,1.74-0.57,3.32-1.72,4.75c-1.15,1.43-2.72,2.57-4.7,3.42c-1.99,0.85-4.21,1.28-6.66,1.28
				c-1.99,0-4.19-0.66-6.61-1.98c-2.42-1.32-4.68-3.03-6.77-5.12c-2.1-2.1-3.79-4.34-5.08-6.73c-1.29-2.39-1.93-4.61-1.93-6.66
				c0-1.46,0.23-2.61,0.68-3.45c0.45-0.84,1.08-1.26,1.89-1.26c0.62,0,1.33,0.36,2.14,1.07c0.25-1.18,0.66-1.99,1.23-2.42
				c0.58-0.43,1.62-0.65,3.14-0.65c1.49,0,3.37,0.35,5.63,1.05s4.39,1.65,6.38,2.86l0.84-0.84v-0.7c0-0.53-0.13-1.05-0.4-1.56
				c-0.26-0.51-0.54-0.97-0.84-1.37C99.55,310.63,98.89,309.74,97.87,308.38z M85.62,317.97c1.55,2.58,2.96,4.78,4.21,6.61
				c1.26,1.83,2.53,3.38,3.82,4.66c1.29,1.27,2.58,2.13,3.89,2.56c3.48,0.78,5.35,1.16,5.63,1.16c2.05,0,3.07-1.43,3.07-4.28
				c0-1.33-1.15-3.57-3.45-6.71c-1.46,0.53-2.86,0.79-4.19,0.79c-1.96,0-3.95-0.4-5.98-1.21S88.26,319.55,85.62,317.97z"/>
			<path class="st2" d="M97.87,278.53h3.12c1.86,2.05,3.1,3.69,3.73,4.94c0.62,1.24,0.87,3.03,0.74,5.35
				c4.78,4.04,7.17,7.59,7.17,10.66c0,1.74-0.57,3.32-1.72,4.75c-1.15,1.43-2.72,2.57-4.7,3.42c-1.99,0.85-4.21,1.28-6.66,1.28
				c-1.99,0-4.19-0.66-6.61-1.98c-2.42-1.32-4.68-3.03-6.77-5.12c-2.1-2.1-3.79-4.34-5.08-6.73c-1.29-2.39-1.93-4.61-1.93-6.66
				c0-1.46,0.23-2.61,0.68-3.45c0.45-0.84,1.08-1.26,1.89-1.26c0.62,0,1.33,0.36,2.14,1.07c0.25-1.18,0.66-1.99,1.23-2.42
				c0.58-0.43,1.62-0.65,3.14-0.65c1.49,0,3.37,0.35,5.63,1.05s4.39,1.65,6.38,2.86l0.84-0.84v-0.7c0-0.53-0.13-1.05-0.4-1.56
				c-0.26-0.51-0.54-0.97-0.84-1.37C99.55,280.78,98.89,279.9,97.87,278.53z M85.62,288.12c1.55,2.58,2.96,4.78,4.21,6.61
				c1.26,1.83,2.53,3.38,3.82,4.66c1.29,1.27,2.58,2.13,3.89,2.56c3.48,0.78,5.35,1.16,5.63,1.16c2.05,0,3.07-1.43,3.07-4.28
				c0-1.33-1.15-3.57-3.45-6.71c-1.46,0.53-2.86,0.79-4.19,0.79c-1.96,0-3.95-0.4-5.98-1.21S88.26,289.7,85.62,288.12z"/>
			<path class="st2" d="M98.05,257.34c3.1,2.73,5.74,5.18,7.92,7.33c2.17,2.16,3.79,3.91,4.87,5.26c1.07,1.35,1.61,2.27,1.61,2.77
				c0,0.81-0.65,1.72-1.96,2.72c-1.3,1.01-2.96,1.87-4.98,2.58c-2.02,0.71-4.07,1.07-6.15,1.07c-3.01,0-6.04-1.46-9.1-4.38
				c-3.06-2.92-5.59-6.24-7.61-9.96c-2.02-3.73-3.03-6.52-3.03-8.38c0-1.52,0.96-3.01,2.89-4.47c-5-2.39-9.44-4.66-13.32-6.82
				c-3.88-2.16-6.77-3.96-8.66-5.42c-1.89-1.46-2.84-2.5-2.84-3.12c0-0.68,0.33-1.31,1-1.89c0.67-0.57,1.42-0.86,2.26-0.86
				c1.61,0,4.38,1.18,8.31,3.54s7.75,4.69,11.48,6.98c3.73,2.3,7.4,4.27,11.01,5.91c3.62,1.65,6.96,2.47,10.03,2.47
				c2.79,0,4.19-0.9,4.19-2.7c0-1.09-0.61-2.45-1.84-4.1s-3.28-3.99-6.17-7.03h3.4c8.66,6.71,12.99,11.87,12.99,15.5
				c0,1.46-0.56,2.51-1.68,3.14c-1.12,0.64-2.78,0.95-4.98,0.95C104.71,258.46,101.5,258.09,98.05,257.34z M86.69,253.9
				c0.93,2.76,2.43,6.01,4.49,9.73c2.06,3.73,3.48,5.98,4.26,6.75c0.62,0.68,1.79,1.29,3.49,1.82c1.71,0.53,3,0.79,3.87,0.79
				c0.53,0,0.96-0.16,1.3-0.47c0.34-0.31,0.51-0.7,0.51-1.16c0-0.43-0.19-0.93-0.56-1.49c-0.37-0.56-1.1-1.45-2.19-2.68
				c-1.09-1.23-1.78-2.03-2.09-2.4c-0.47-0.53-1.47-1.7-3-3.51c-1.54-1.82-2.74-3.14-3.61-3.98s-1.84-1.55-2.91-2.14
				C89.19,254.57,88,254.15,86.69,253.9z"/>
			<path class="st2" d="M81.15,186.62l2.79,2.37c0.25-2.76,0.58-5.23,1-7.4c0.42-2.17,0.88-4.18,1.4-6.03
				c0.51-1.85,1.05-3.47,1.61-4.87c2.05-4.9,4.9-7.36,8.57-7.36c2.24,0,4.42,1.02,6.57,3.07c2.14,2.05,4.05,4.71,5.73,7.99
				c1.68,3.27,2.99,6.64,3.93,10.1c0.95,3.46,1.42,6.6,1.42,9.43c0,4.72-0.88,8.4-2.63,11.04c-1.75,2.64-4.15,3.96-7.19,3.96
				c-2.11,0-4.59-0.81-7.45-2.42c-2.86-1.61-6.41-4.11-10.66-7.5c-0.12,2.55-0.5,4.35-1.14,5.4c-0.64,1.06-1.53,1.58-2.68,1.58
				c-0.71,0-1.26-0.2-1.63-0.6c-0.37-0.4-0.64-0.95-0.81-1.63c-0.17-0.68-0.38-1.99-0.63-3.93c-0.25-1.94-0.56-4.43-0.93-7.47
				c-4.16-3.38-7.29-6.42-9.38-9.1c-2.1-2.68-3.3-5.56-3.61-8.64c-0.03-0.25-0.05-0.52-0.05-0.81c0-0.29,0.08-0.44,0.23-0.44
				c0.19,0,0.68,0.35,1.49,1.05c0.81,0.7,2.1,1.83,3.86,3.4c1.77,1.57,3.86,3.42,6.29,5.56c-0.78-5.84-1.67-10.61-2.68-14.32
				c-1.01-3.71-2.21-6.51-3.61-8.4c-1.4-1.89-2.95-2.84-4.66-2.84c-2.08,0-3.58,1.01-4.52,3.03c-0.93,2.02-1.4,5.11-1.4,9.27
				c0,2.3,0.23,4.93,0.7,7.89c0.47,2.96,0.99,5.65,1.58,8.06c0.59,2.41,1.22,4.55,1.89,6.43c0.67,1.88,1.16,2.82,1.47,2.82
				c0.09,0,0.19-0.09,0.28-0.28c0.56-1.52,1.02-2.28,1.4-2.28c0.5,0,1.45,2.33,2.86,6.98c1.41,4.66,2.12,7.79,2.12,9.41
				c0,1.15-0.57,1.72-1.72,1.72c-1.37,0-3.83-1.25-7.38-3.75c-3.55-2.5-5.83-4.77-6.82-6.82c-0.34-0.71-0.88-2.37-1.63-4.98
				s-1.46-5.47-2.14-8.59c-0.68-3.12-1.26-6.29-1.72-9.52c-0.47-3.23-0.7-6.08-0.7-8.57c0-5.87,1.05-10.27,3.14-13.22
				c2.1-2.95,4.73-4.42,7.89-4.42c2.14,0,4.21,0.67,6.19,2.03c1.99,1.35,3.86,3.45,5.63,6.31c1.77,2.86,3.32,6.57,4.66,11.15
				C79.42,175.02,80.44,180.41,81.15,186.62z M87.16,191.55c1.92,1.61,3.62,3.05,5.1,4.31c1.47,1.26,2.67,2.16,3.59,2.7
				c0.92,0.54,1.84,0.81,2.77,0.81c1.49,0,2.82-0.77,3.98-2.3s1.75-3.75,1.75-6.63c0-2.67-0.47-5.52-1.42-8.54
				c-0.95-3.03-2.18-5.57-3.7-7.64c-1.52-2.06-3.06-3.1-4.61-3.1c-1.33,0-2.44,0.76-3.31,2.28c-0.87,1.52-1.64,3.83-2.3,6.94
				C88.33,183.48,87.72,187.21,87.16,191.55z"/>
			<path class="st2" d="M97.87,129.53h3.12c1.86,2.05,3.1,3.69,3.73,4.94c0.62,1.24,0.87,3.03,0.74,5.35
				c4.78,4.04,7.17,7.59,7.17,10.66c0,1.74-0.57,3.32-1.72,4.75s-2.72,2.57-4.7,3.42c-1.99,0.85-4.21,1.28-6.66,1.28
				c-1.99,0-4.19-0.66-6.61-1.98c-2.42-1.32-4.68-3.03-6.77-5.12s-3.79-4.34-5.08-6.73c-1.29-2.39-1.93-4.61-1.93-6.66
				c0-1.46,0.23-2.61,0.68-3.45c0.45-0.84,1.08-1.26,1.89-1.26c0.62,0,1.33,0.36,2.14,1.07c0.25-1.18,0.66-1.99,1.23-2.42
				c0.58-0.43,1.62-0.65,3.14-0.65c1.49,0,3.37,0.35,5.63,1.05s4.39,1.65,6.38,2.86l0.84-0.84v-0.7c0-0.53-0.13-1.05-0.4-1.56
				c-0.26-0.51-0.54-0.97-0.84-1.37C99.55,131.78,98.89,130.9,97.87,129.53z M85.62,139.12c1.55,2.58,2.96,4.78,4.21,6.61
				c1.26,1.83,2.53,3.38,3.82,4.66c1.29,1.27,2.58,2.13,3.89,2.56c3.48,0.78,5.35,1.16,5.63,1.16c2.05,0,3.07-1.43,3.07-4.28
				c0-1.33-1.15-3.57-3.45-6.71c-1.46,0.53-2.86,0.79-4.19,0.79c-1.96,0-3.95-0.4-5.98-1.21C90.6,141.9,88.26,140.71,85.62,139.12z"
				/>
			<path class="st2" d="M97.87,99.69h3.12c1.86,2.05,3.1,3.69,3.73,4.94c0.62,1.24,0.87,3.03,0.74,5.35
				c4.78,4.04,7.17,7.59,7.17,10.66c0,1.74-0.57,3.32-1.72,4.75s-2.72,2.57-4.7,3.42c-1.99,0.85-4.21,1.28-6.66,1.28
				c-1.99,0-4.19-0.66-6.61-1.98c-2.42-1.32-4.68-3.03-6.77-5.12s-3.79-4.34-5.08-6.73c-1.29-2.39-1.93-4.61-1.93-6.66
				c0-1.46,0.23-2.61,0.68-3.45c0.45-0.84,1.08-1.26,1.89-1.26c0.62,0,1.33,0.36,2.14,1.07c0.25-1.18,0.66-1.99,1.23-2.42
				c0.58-0.43,1.62-0.65,3.14-0.65c1.49,0,3.37,0.35,5.63,1.05s4.39,1.65,6.38,2.86l0.84-0.84v-0.7c0-0.53-0.13-1.05-0.4-1.56
				c-0.26-0.51-0.54-0.97-0.84-1.37C99.55,101.94,98.89,101.05,97.87,99.69z M85.62,109.28c1.55,2.58,2.96,4.78,4.21,6.61
				c1.26,1.83,2.53,3.38,3.82,4.66c1.29,1.27,2.58,2.13,3.89,2.56c3.48,0.78,5.35,1.16,5.63,1.16c2.05,0,3.07-1.43,3.07-4.28
				c0-1.33-1.15-3.57-3.45-6.71c-1.46,0.53-2.86,0.79-4.19,0.79c-1.96,0-3.95-0.4-5.98-1.21C90.6,112.06,88.26,110.86,85.62,109.28z
				"/>
			<path class="st2" d="M97.96,64.67h3.12c4.07,3.48,7.15,6.4,9.24,8.75c2.09,2.36,3.14,4.33,3.14,5.91c0,1.52-0.45,2.89-1.35,4.12
				c-0.9,1.23-2.14,2.33-3.73,3.31c-1.58,0.98-3.79,2.13-6.61,3.47c1.96,1.58,3.78,3.01,5.47,4.28c1.69,1.27,2.82,2.16,3.38,2.65
				c0.56,0.5,0.84,0.95,0.84,1.35c0,0.84-0.54,1.44-1.61,1.82c-1.07,0.37-2.63,0.56-4.68,0.56c-2.79,0-5.49-0.33-8.08-1
				c-2.59-0.67-5.11-1.63-7.57-2.89c-2.45-1.26-5.1-2.87-7.94-4.84c-2.84-1.97-5.81-4.18-8.92-6.63c-4.28-3.38-7.78-6.3-10.5-8.75
				c-2.72-2.45-4.76-4.59-6.15-6.4c-1.38-1.82-2.07-3.33-2.07-4.54c0-1.49,0.67-2.23,2-2.23c1.15,0,5.28,2.75,12.41,8.24
				s16.85,13.5,29.17,24.03h4C94,88.82,88.4,83.15,84.74,78.85c-3.66-4.3-5.49-7.63-5.49-9.99c0-0.96,0.57-1.71,1.7-2.23
				c1.13-0.53,2.44-0.79,3.93-0.79c3.04,0,5.86,1.3,8.45,3.91c2.59,2.61,5.56,6.61,8.92,12.01c1.4-0.93,2.41-1.75,3.05-2.47
				c0.64-0.71,0.95-1.61,0.95-2.7c0-0.96-0.33-2-0.98-3.12c-0.65-1.12-1.47-2.26-2.47-3.42S100.2,67.09,97.96,64.67z M100.34,83.06
				c-0.78-1.18-1.98-2.65-3.61-4.4c-1.63-1.75-3.32-3.25-5.08-4.49c-1.75-1.24-3.22-1.86-4.4-1.86c-0.5,0-0.75,0.22-0.75,0.65
				c0,1.18,1.13,3.21,3.4,6.08c2.27,2.87,5.17,5.67,8.71,8.4C98.61,86.26,99.19,84.8,100.34,83.06z"/>
			<path class="st2" d="M99.27,65.14h-1.12c-8.44-8.01-14.36-13.52-17.74-16.53c-3.82-0.68-5.73-2.33-5.73-4.94
				c0-0.65,0.19-1.35,0.56-2.1l0.88-0.28c0.37,0.12,0.9,0.19,1.58,0.19c0.59,0,1.68-0.23,3.28-0.68c1.6-0.45,2.94-0.8,4.03-1.05
				c1.09-0.25,2.31-0.37,3.68-0.37c2.05,0,4.01,0.47,5.89,1.4c1.88,0.93,3.68,2.28,5.4,4.05c1.72,1.77,3.49,4.05,5.29,6.84
				c0.19-1.12,0.28-2,0.28-2.65c0-1.27-0.32-2.65-0.96-4.12c-0.64-1.47-1.49-2.98-2.56-4.52c-1.07-1.54-2.46-3.33-4.17-5.38h3.12
				c3.88,3.97,6.82,7.53,8.82,10.66c2,3.14,3,5.84,3,8.1c0,2.92-1.24,5.62-3.73,8.1c-1.49,1.46-2.92,2.37-4.28,2.72
				C103.44,64.96,101.59,65.14,99.27,65.14z M92.14,47.77l-6.8,0.84c2.17,1.93,6.35,6.04,12.53,12.34c0.4-1.86,0.95-3.13,1.63-3.82
				c0.68-0.68,2-1.65,3.96-2.89c-0.87-2.11-2.06-3.73-3.56-4.87c-1.51-1.13-3.56-1.7-6.17-1.7c-0.31,0-0.59,0.01-0.84,0.02
				C92.64,47.72,92.39,47.74,92.14,47.77z"/>
		</g>
	</g>
</g>
</svg>
