<?xml version="1.0" encoding="utf-8"?>
<!-- Generator: Adobe Illustrator 27.2.0, SVG Export Plug-In . SVG Version: 6.00 Build 0)  -->
<svg version="1.1" id="Layer_1" xmlns="http://www.w3.org/2000/svg" xmlns:xlink="http://www.w3.org/1999/xlink" x="0px" y="0px"
	 viewBox="0 0 1000 1000" style="enable-background:new 0 0 1000 1000;" xml:space="preserve">
<style type="text/css">
	.st0{fill:none;stroke:#000000;stroke-width:7;stroke-miterlimit:10;}
	.st1{fill:#F0AB16;}
	.st2{fill:#F0AB16;stroke:#000000;stroke-width:7;stroke-miterlimit:10;}
</style>
<g>
	<path class="st0" d="M464.96,147.87c19.4-6.63,36.35-20.21,47.03-37.71c4.04-6.62,7.35-13.94,13.21-19.02
		c14.35-12.45,41.07-2.35,43.61,16.47c1.92,14.28-7.83,28.05-6.59,42.41c1.83,21.37,26.62,33.21,48.07,33.51
		c21.45,0.31,42.97-6.41,64.1-2.75c2.26,0.39,4.7,1.03,6.04,2.89c1.77,2.47,0.83,5.9-0.39,8.68c-5.49,12.59-15.02,22.96-21.81,34.91
		c-19.75,34.79,7.36,61.47,43.49,58.03c32.08-3.06,59.58,30.55,22.91,53.47s-22.91,47.36,4.58,74.85c27.5,27.5,56.52,48.88-13.76,55
		c-16.86,1.47-34.93,4.05-39.19,23.73c-2.75,12.72,1.7,25.88,7.3,37.63s12.48,23.15,15.02,35.92c2.55,12.77-0.35,27.72-10.98,35.24
		c-23.46,16.59-61.33-14.14-82.87,4.88c-11.03,9.74-10.24,26.77-9.47,41.46s-1.07,32.41-14.14,39.16
		c-18.68,9.63-50.28-6.54-56.61-25.55c-9.17-27.5-45.83-24.44-59.58,13.75s-77.91,22.91-76.38-4.58
		c1.53-27.5-27.5-41.25-67.25-16.78c-28.78,17.68-51.58-17.86-57.75-41.92c-2.8-10.9,4.04-27.15,1.32-35.37
		c-5.76-17.4-52.82-19.94-67.89-19.87c4.75-19.3,9.5-38.59,14.24-57.89c2.86-11.61,5.63-24.3,0.58-35.13
		c-9.39-20.2-37.99-20.81-55.68-34.34c-3.97-3.03-7.56-7.08-8.32-12.02c-0.85-5.51,1.98-10.95,5.48-15.3
		c13.64-17,37.3-23.53,49.84-41.36c15.16-21.55,2.4-42.66-14.4-58.5c-10.75-10.13-20.89-26.78-11.85-38.46
		c4.9-6.33,13.78-8.13,21.78-7.63c7.99,0.5,15.83,2.84,23.83,2.88c22.81,0.12,43.35-21.51,42.04-44.28
		c-0.82-14.16-8.65-26.84-12.79-40.42c-4.14-13.57-3.12-31.05,8.99-38.45c11.95-7.3,27.55-0.65,38.6,7.95
		c12.77,9.95,28.29,26.8,46.36,21.15c16.33-5.1,20.83-25.59,23.27-42.53s9.1-37.47,26.03-39.99c10.32-1.53,20.1,4.78,28.03,11.54
		c17.51,14.92,31.78,33.62,41.56,54.44C464.71,147.95,464.84,147.91,464.96,147.87z"/>
	<path class="st1" d="M478.66,233.68c4.6,79.36,9.2,158.72,13.8,238.07c25.39-1.21,51.02,3.12,74.6,12.6
		c4.95,1.99,10.5,5.09,11.1,10.4c0.9,7.91-9.26,11.81-17.16,12.84c-48.24,6.28-97.2,7.57-145.69,3.64
		c-13.65-1.11-47.85-4.14-27.96-23.5c4.8-4.67,59.1-17.57,59.35-11.17c-2.58-68.34-5.16-136.67-7.74-204.99
		c0.71,20.54-59.18,47.02-75.25,44.37c-1.44-10.57,6.09-19.64,12.91-27.09c10.84-11.83,21.67-23.65,32.51-35.48
		c4.48-4.89,9.02-9.83,14.55-13.47C439.43,229.54,459.94,231.42,478.66,233.68z"/>
	<path class="st2" d="M747.55,513.47L966,697.73H810.18l-6.11,146.68c0,0-194-177.2-174.15-187.9c13.49-7.27,35.77-3.57,50.41-3.66
		c21.78-0.14,77.37,2.36,78.89-29.95C761.3,578.6,747.55,513.47,747.55,513.47z"/>
	<path class="st2" d="M340.44,699.14c-7.04,15.63-22.78,30.82-33.49,44.6c-19.12,24.59-38.25,49.18-57.37,73.77
		c-25.98,33.4-51.96,66.81-77.93,100.21L157.9,781.77H32.63L225.11,595.4c0,0-4.58,108.46,36.68,108.46
		C287.06,703.86,315.99,695.97,340.44,699.14z"/>
</g>
</svg>
