<?xml version="1.0"?>
<svg version="1.1" xmlns="http://www.w3.org/2000/svg" width="450px" height="200px" style="border: dashed 2px #aaa"><path fill="#e79a60" d="M54.5048828125,92.15576171875q-0.087890625-1.16455078125,0.19775390625-2.197265625t1.07666015625-1.7138671875t2.6806640625-0.68115234375q0.439453125,0,1.07666015625,0.087890625t1.2744140625,0.28564453125t1.03271484375,0.54931640625t0.3955078125,0.966796875q0,1.6259765625,0.10986328125,4.28466796875t0.28564453125,5.537109375t0.32958984375,5.625t0.28564453125,4.46044921875q3.427734375-0.17578125,6.8994140625-0.17578125t6.85546875-0.17578125l6.064453125-0.17578125l0-4.3505859375q0-7.294921875-0.28564453125-14.61181640625t-0.98876953125-14.61181640625q0-0.52734375,0.439453125-0.85693359375t1.03271484375-0.50537109375t1.23046875-0.2197265625t0.98876953125-0.0439453125q1.0107421875,0,2.17529296875,0.3076171875t1.34033203125,1.318359375l0.263671875,1.8896484375q1.0986328125,7.91015625,1.494140625,15.64453125t0.5712890625,15.46875q0.52734375,0.087890625,1.12060546875,0.28564453125t1.20849609375,0.37353515625q0.439453125,0.17578125,1.25244140625,0.52734375t0.81298828125,1.0986328125q0,0.703125-0.615234375,1.0986328125t-1.38427734375,0.59326171875t-1.494140625,0.24169921875t-0.90087890625,0.0439453125q0.087890625,3.251953125,0.087890625,6.48193359375l0,6.48193359375l0,14.1943359375l0,7.91015625q0,0.52734375-0.50537109375,0.94482421875t-1.20849609375,0.68115234375t-1.47216796875,0.3515625t-1.38427734375,0.087890625t-1.4501953125-0.087890625t-1.494140625-0.3515625t-1.16455078125-0.6591796875t-0.50537109375-0.966796875l0-1.8896484375q0.17578125-8.349609375,0.3955078125-16.54541015625t0.439453125-16.45751953125q-4.7900390625,0.17578125-9.73388671875,0.2197265625t-9.82177734375,0.2197265625q0.52734375,6.1962890625,1.20849609375,12.37060546875t1.42822265625,12.37060546875q0,0.52734375-0.50537109375,0.94482421875t-1.1865234375,0.68115234375t-1.4501953125,0.3515625t-1.38427734375,0.087890625q-1.2744140625,0-2.79052734375-0.439453125t-1.69189453125-1.6259765625q-0.52734375-4.658203125-0.98876953125-10.283203125t-0.81298828125-11.49169921875t-0.54931640625-11.49169921875t-0.19775390625-10.1953125q0-1.0986328125-0.087890625-2.26318359375z M103.84096679687,129.443359375q0-2.5048828125,0.63720703125-5.16357421875t2.021484375-4.7900390625t3.49365234375-3.4716796875t5.09765625-1.34033203125q2.2412109375,0,4.72412109375,0.76904296875t4.54833984375,2.197265625t3.36181640625,3.49365234375t1.29638671875,4.6142578125q0,3.076171875-1.12060546875,5.8447265625t-3.14208984375,4.94384765625t-4.72412109375,3.427734375t-5.86669921875,1.25244140625q-2.5927734375,0-4.5263671875-0.94482421875t-3.22998046875-2.52685546875t-1.93359375-3.7353515625t-0.63720703125-4.5703125z M110.30092773437,129.35546875q0,0.791015625,0.24169921875,2.3291015625t0.72509765625,3.01025390625t1.25244140625,2.548828125t1.86767578125,0.98876953125q2.3291015625-0.263671875,3.84521484375-1.51611328125t2.4609375-3.05419921875t1.318359375-3.9111328125t0.37353515625-3.9990234375q0-2.4169921875-0.94482421875-4.04296875t-3.09814453125-2.63671875q0,0.087890625,0.087890625,0.087890625t0.087890625-0.087890625l-1.0986328125-0.263671875q-0.439453125-0.17578125-1.07666015625-0.3955078125t-1.25244140625-0.966796875q-1.7138671875,0.615234375-2.65869140625,1.58203125t-1.42822265625,2.35107421875t-0.59326171875,3.31787109375t-0.10986328125,4.658203125z M137.246875,117.60009765625q-0.10986328125-1.47216796875,0.17578125-2.70263671875t1.142578125-1.99951171875t2.74658203125-0.76904296875q0.439453125,0,1.07666015625,0.10986328125t1.25244140625,0.28564453125t1.03271484375,0.52734375t0.41748046875,0.966796875l0,4.9658203125q1.7138671875-1.9775390625,3.7353515625-2.83447265625t4.6142578125-0.85693359375q1.9775390625,0,3.9111328125,0.90087890625t3.6474609375,2.39501953125t2.96630859375,3.2958984375t1.82373046875,3.603515625q0.3515625-1.6259765625,0.791015625-3.97705078125t1.29638671875-4.50439453125t2.26318359375-3.69140625t3.7353515625-1.5380859375q2.5048828125,0,4.21875,1.8017578125t2.79052734375,4.68017578125t1.6259765625,6.43798828125t0.81298828125,7.03125t0.263671875,6.48193359375l0,4.72412109375q0,0.52734375-0.3955078125,0.85693359375t-0.98876953125,0.50537109375t-1.23046875,0.2197265625t-0.98876953125,0.0439453125q-1.3623046875,0-2.48291015625-0.41748046875t-1.12060546875-2.13134765625l0-3.955078125t-0.087890625-5.11962890625t-0.3076171875-5.4931640625t-0.5712890625-4.98779296875t-0.90087890625-3.603515625t-1.34033203125-1.40625q-1.0986328125,0-1.58203125,1.23046875t-0.81298828125,3.1201171875t-0.50537109375,3.9990234375t-0.4833984375,3.9990234375t-0.98876953125,3.09814453125t-1.86767578125,1.20849609375q-1.2744140625,0-2.2412109375-1.20849609375t-1.91162109375-3.01025390625t-1.8896484375-3.8671875t-2.08740234375-3.8671875q-1.142578125-1.845703125-2.4609375-2.98828125q-1.1865234375-1.0986328125-2.6806640625-1.0546875l-0.2197265625,0q-1.9775390625,0.087890625-3.09814453125,1.42822265625t-1.7138671875,3.27392578125t-0.72509765625,4.15283203125t-0.1318359375,3.88916015625q0,1.58203125,0.263671875,3.69140625q0.17578125,1.40625,0.17578125,2.6806640625q0,0.6591796875-0.0439453125,1.2744140625q-0.1318359375,1.845703125-0.98876953125,3.09814453125t-3.18603515625,1.25244140625q-0.87890625,0-2.197265625-0.17578125t-1.7578125-1.1865234375q-1.0107421875-1.8017578125-1.5380859375-4.54833984375t-0.791015625-5.6689453125t-0.3076171875-5.80078125t-0.0439453125-4.94384765625q0-1.4501953125-0.10986328125-2.92236328125z M192.66938476563,130.41015625q0-3.076171875,0.68115234375-7.2509765625t2.30712890625-7.91015625t4.28466796875-6.35009765625t6.70166015625-2.61474609375q3.779296875,0,5.6689453125,2.17529296875t1.8896484375,5.86669921875q0,2.4169921875-0.90087890625,5.29541015625t-2.57080078125,5.44921875t-3.955078125,4.28466796875t-5.09765625,1.7138671875l-1.142578125-0.087890625q0,1.1865234375,0.3515625,3.18603515625t1.03271484375,3.97705078125t1.7578125,3.4716796875t2.61474609375,1.494140625q2.2412109375,0,4.306640625-1.8017578125t3.9111328125-3.9990234375t3.427734375-3.9990234375t2.900390625-1.8017578125q0.703125,0,1.4501953125,0.2197265625t0.8349609375,1.23046875q0,0.615234375-0.32958984375,1.0107421875t-0.59326171875,0.87890625q-1.3623046875,2.3291015625-2.96630859375,4.4384765625t-3.62548828125,3.8232421875t-4.41650390625,2.70263671875t-5.29541015625,0.98876953125q-3.779296875,0-6.2841796875-1.34033203125t-4.04296875-3.603515625t-2.21923828125-5.2294921875t-0.68115234375-6.21826171875z M200.53559570313,127.0703125l1.23046875,1.0986328125q0.87890625,0.791015625,1.7578125,0.3515625t1.58203125-1.60400390625t1.29638671875-2.87841796875t1.0546875-3.515625t0.68115234375-3.515625t0.2197265625-2.8564453125l0-1.494140625t-0.1318359375-1.58203125t-0.46142578125-1.25244140625t-1.03271484375-0.63720703125q-0.2197265625-0.0439453125-0.3955078125-0.0439453125q-1.494140625,0-2.548828125,1.8896484375q-1.142578125,2.109375-1.845703125,5.11962890625t-1.0107421875,6.17431640625t-0.3955078125,4.74609375z"/><path fill="#ffffff" d="M239.6806640625,83.8720703125q0-3.076171875,1.0546875-4.130859375t2.9443359375-1.0546875q0.52734375,0,1.12060546875,0.087890625t1.12060546875,0.263671875q2.9443359375-0.5712890625,5.5810546875-0.5712890625q4.2626953125,0,7.734375,1.494140625q5.5810546875,2.373046875,9.228515625,7.03125t5.361328125,10.9423828125t1.7138671875,12.8759765625q0,3.69140625-0.50537109375,7.6904296875t-1.95556640625,7.4267578125q-1.2744140625,3.076171875-3.515625,6.43798828125t-5.07568359375,6.3720703125t-6.1083984375,5.2734375t-6.61376953125,3.05419921875l0,0.3515625q0,0.87890625-0.46142578125,1.42822265625t-1.12060546875,0.8349609375t-1.51611328125,0.37353515625t-1.60400390625,0.087890625q-0.439453125,0-1.25244140625-0.087890625t-1.58203125-0.32958984375t-1.29638671875-0.63720703125t-0.52734375-1.0986328125q0-7.998046875-0.41748046875-16.01806640625t-0.94482421875-16.0400390625t-0.94482421875-16.01806640625t-0.41748046875-16.0400390625z M247.986328125,81.630859375q0.439453125,4.21875,0.5712890625,8.41552734375t0.3955078125,8.41552734375q0.703125,10.8984375,1.6259765625,21.68701171875t1.0986328125,21.68701171875q4.21875-2.7685546875,7.22900390625-6.328125t4.94384765625-7.734375t2.83447265625-8.76708984375t0.90087890625-9.47021484375q0-3.515625-0.615234375-7.734375t-2.109375-8.1298828125t-4.02099609375-7.0751953125t-6.30615234375-4.5263671875q-0.791015625-0.263671875-1.91162109375-0.439453125t-3.58154296875-0.17578125q-0.263671875,0-0.52734375,0.087890625t-0.52734375,0.087890625z M284.49038085938,130.41015625q0-3.076171875,0.68115234375-7.2509765625t2.30712890625-7.91015625t4.28466796875-6.35009765625t6.70166015625-2.61474609375q3.779296875,0,5.6689453125,2.17529296875t1.8896484375,5.86669921875q0,2.4169921875-0.90087890625,5.29541015625t-2.57080078125,5.44921875t-3.955078125,4.28466796875t-5.09765625,1.7138671875l-1.142578125-0.087890625q0,1.1865234375,0.3515625,3.18603515625t1.03271484375,3.97705078125t1.7578125,3.4716796875t2.61474609375,1.494140625q2.2412109375,0,4.306640625-1.8017578125t3.9111328125-3.9990234375t3.427734375-3.9990234375t2.900390625-1.8017578125q0.703125,0,1.4501953125,0.2197265625t0.8349609375,1.23046875q0,0.615234375-0.32958984375,1.0107421875t-0.59326171875,0.87890625q-1.3623046875,2.3291015625-2.96630859375,4.4384765625t-3.62548828125,3.8232421875t-4.41650390625,2.70263671875t-5.29541015625,0.98876953125q-3.779296875,0-6.2841796875-1.34033203125t-4.04296875-3.603515625t-2.21923828125-5.2294921875t-0.68115234375-6.21826171875z M292.35659179688,127.0703125l1.23046875,1.0986328125q0.87890625,0.791015625,1.7578125,0.3515625t1.58203125-1.60400390625t1.29638671875-2.87841796875t1.0546875-3.515625t0.68115234375-3.515625t0.2197265625-2.8564453125l0-1.494140625t-0.1318359375-1.58203125t-0.46142578125-1.25244140625t-1.03271484375-0.63720703125q-0.2197265625-0.0439453125-0.3955078125-0.0439453125q-1.494140625,0-2.548828125,1.8896484375q-1.142578125,2.109375-1.845703125,5.11962890625t-1.0107421875,6.17431640625t-0.3955078125,4.74609375z M321.21416015625,127.7294921875q0-3.1640625,0.81298828125-6.35009765625t2.52685546875-5.712890625t4.37255859375-4.10888671875t6.26220703125-1.58203125q1.5380859375,0,3.3837890625,0.37353515625t3.40576171875,1.1865234375t2.63671875,2.109375t1.07666015625,3.18603515625q0,1.1865234375-0.615234375,1.58203125t-1.6259765625,0.3955078125l-0.3076171875-0.439453125t-0.85693359375-1.12060546875t-1.16455078125-1.4501953125t-1.1865234375-1.29638671875q-1.8017578125-1.8017578125-3.3837890625-1.93359375l-0.3515625,0q-1.318359375,0-2.4609375,0.791015625q-1.2744140625,0.966796875-2.26318359375,2.724609375t-1.64794921875,3.7353515625t-1.03271484375,3.9990234375t-0.37353515625,3.33984375q0,1.8017578125,0.41748046875,4.10888671875t1.40625,4.37255859375t2.5048828125,3.4716796875t3.88916015625,1.40625q2.1533203125,0,3.9111328125-1.0546875t3.36181640625-2.35107421875t3.14208984375-2.3291015625t3.1640625-1.03271484375q0.703125,0,1.42822265625,0.17578125t0.72509765625,0.9228515625l0,0.263671875q-0.791015625,2.0654296875-2.6806640625,3.6474609375t-4.24072265625,2.74658203125t-4.8779296875,1.73583984375t-4.50439453125,0.5712890625q-3.69140625,0-6.48193359375-1.20849609375t-4.63623046875-3.31787109375t-2.79052734375-5.07568359375t-0.94482421875-6.48193359375z M358.68500976563,129.443359375q0-2.5048828125,0.63720703125-5.16357421875t2.021484375-4.7900390625t3.49365234375-3.4716796875t5.09765625-1.34033203125q2.2412109375,0,4.72412109375,0.76904296875t4.54833984375,2.197265625t3.36181640625,3.49365234375t1.29638671875,4.6142578125q0,3.076171875-1.12060546875,5.8447265625t-3.14208984375,4.94384765625t-4.72412109375,3.427734375t-5.86669921875,1.25244140625q-2.5927734375,0-4.5263671875-0.94482421875t-3.22998046875-2.52685546875t-1.93359375-3.7353515625t-0.63720703125-4.5703125z M365.14497070313,129.35546875q0,0.791015625,0.24169921875,2.3291015625t0.72509765625,3.01025390625t1.25244140625,2.548828125t1.86767578125,0.98876953125q2.3291015625-0.263671875,3.84521484375-1.51611328125t2.4609375-3.05419921875t1.318359375-3.9111328125t0.37353515625-3.9990234375q0-2.4169921875-0.94482421875-4.04296875t-3.09814453125-2.63671875q0,0.087890625,0.087890625,0.087890625t0.087890625-0.087890625l-1.0986328125-0.263671875q-0.439453125-0.17578125-1.07666015625-0.3955078125t-1.25244140625-0.966796875q-1.7138671875,0.615234375-2.65869140625,1.58203125t-1.42822265625,2.35107421875t-0.59326171875,3.31787109375t-0.10986328125,4.658203125z M391.9810546875,116.3037109375q0-1.8017578125,0.63720703125-3.0322265625t2.70263671875-1.23046875q0.791015625,0,1.9775390625,0.24169921875t1.3623046875,1.20849609375q0.439453125,2.5927734375,0.4833984375,5.625t0.3076171875,5.712890625q1.0107421875-1.9775390625,2.5927734375-4.2626953125t3.603515625-4.21875t4.39453125-3.2080078125t4.833984375-1.2744140625q0.17578125,0,0.6591796875,0.1318359375t0.90087890625,0.37353515625t0.50537109375,0.54931640625t-0.4833984375,0.5712890625q-0.17578125,0.52734375-0.7470703125,0.63720703125t-1.0107421875,0.10986328125q-0.263671875,0-0.8349609375-0.2197265625q-3.251953125,1.7138671875-5.537109375,4.658203125t-3.7353515625,6.52587890625t-2.109375,7.55859375t-0.6591796875,7.75634765625q0,1.8896484375-0.85693359375,2.28515625t-2.74658203125,0.3955078125q-1.0107421875,0-2.13134765625-0.2197265625t-1.56005859375-1.40625q-0.791015625-2.5048828125-1.29638671875-5.7568359375t-0.76904296875-6.70166015625t-0.37353515625-6.78955078125t-0.10986328125-6.0205078125z"/></svg>
