<?xml version="1.0" encoding="utf-8"?>
<!-- Generator: Adobe Illustrator 27.2.0, SVG Export Plug-In . SVG Version: 6.00 Build 0)  -->
<svg version="1.1" id="Layer_1" xmlns="http://www.w3.org/2000/svg" xmlns:xlink="http://www.w3.org/1999/xlink" x="0px" y="0px"
	 viewBox="0 0 1920 1080" style="enable-background:new 0 0 1920 1080;" xml:space="preserve">
<style type="text/css">
	.st0{fill:#FFFFFF;}
	.st1{fill:none;stroke:#000000;stroke-miterlimit:10;}
</style>
<path class="st0" d="M0,553c0,0,67.5-107.5,88.5-56.5s-5,142,107,102s79-180,174-104s194,218,187,33s192.33-29,149.17,91
	c-43.17,120,147.83-37,155.83-130s177-32,200,83s167,19,179-69s93,239,173,102s88-293,115-117s87,200,110,140s61-276,122-141
	s71,150,101,124S1920,493,1920,493v587H0V611.67V553z"/>
<path class="st1" d="M1920,553"/>
</svg>
